M48
INCH,TZ
T1C0.025
T2C0.030
T3C0.032
T4C0.039
T5C0.040
T6C0.050
T7C0.060
T8C0.098
%
G90
G05
T1
X86125Y-18200
X86175Y-21725
X86850Y-28350
X87000Y-30850
X89300Y-19400
X89300Y-20150
X90350Y-29350
X90400Y-28450
X91900Y-20150
X92150Y-31550
X92500Y-19400
X93850Y-33250
X99500Y-20900
X99550Y-18600
T2
X82975Y-22725
X85225Y-16725
X89200Y-32900
X89350Y-16900
X89350Y-22600
X90950Y-19700
X91300Y-28200
X91900Y-26900
X92050Y-19700
X94500Y-15100
X94500Y-21600
X95150Y-19200
X95150Y-20400
X95750Y-15100
X95750Y-21550
X97850Y-19050
X98700Y-32700
X101250Y-17350
X101250Y-18750
X102000Y-20000
T3
X87800Y-14600
X87800Y-15600
X87800Y-16600
X88000Y-23400
X88000Y-24400
X88000Y-25400
X92500Y-15000
X92500Y-16000
X92500Y-17000
X92500Y-22500
X92500Y-23500
X92500Y-24500
T4
X100766Y-26087
X100766Y-27087
X100766Y-29087
X100766Y-30087
X100766Y-31087
T5
X79250Y-18750
X79250Y-19750
X79250Y-20750
X80250Y-18750
X80250Y-19750
X80250Y-20750
X103950Y-16750
X103950Y-17750
X103950Y-18750
X103950Y-19750
X103950Y-20750
X103950Y-21750
X104950Y-16750
X104950Y-17750
X104950Y-18750
X104950Y-19750
X104950Y-20750
X104950Y-21750
T6
X81625Y-28375
T7
X80375Y-27125
X80375Y-29625
X82875Y-27125
X82875Y-29625
T8
X79500Y-14750
X79500Y-32500
X104750Y-14750
X104750Y-32500
T0
M30
