%FSLAX34Y34*%
G04 Gerber Fmt 3.4, Leading zero omitted, Abs format*
G04 (created by PCBNEW (2014-02-24 BZR 4719)-product) date Thu 06 Mar 2014 01:02:44 GMT*
%MOIN*%
G01*
G70*
G90*
G04 APERTURE LIST*
%ADD10C,0.003937*%
%ADD11C,0.011811*%
%ADD12R,0.068000X0.068000*%
%ADD13O,0.068000X0.068000*%
%ADD14R,0.050000X0.015000*%
%ADD15R,0.025000X0.045000*%
%ADD16R,0.063000X0.071000*%
%ADD17R,0.035400X0.039400*%
%ADD18R,0.080000X0.060000*%
%ADD19R,0.045000X0.025000*%
%ADD20R,0.060000X0.080000*%
%ADD21O,0.118100X0.059100*%
%ADD22R,0.059100X0.047200*%
%ADD23C,0.060000*%
%ADD24R,0.059055X0.023622*%
%ADD25R,0.020000X0.045000*%
%ADD26R,0.023600X0.055100*%
%ADD27R,0.080000X0.144000*%
%ADD28R,0.080000X0.040000*%
%ADD29C,0.150000*%
%ADD30C,0.140000*%
%ADD31R,0.050000X0.100000*%
%ADD32C,0.039370*%
%ADD33C,0.035000*%
%ADD34C,0.019685*%
%ADD35C,0.010000*%
G04 APERTURE END LIST*
G54D10*
G54D11*
X104782Y-29904D02*
X104782Y-30101D01*
X105092Y-30101D02*
X104501Y-30101D01*
X104501Y-29820D01*
X105092Y-29257D02*
X104810Y-29454D01*
X105092Y-29595D02*
X104501Y-29595D01*
X104501Y-29370D01*
X104529Y-29314D01*
X104557Y-29285D01*
X104614Y-29257D01*
X104698Y-29257D01*
X104754Y-29285D01*
X104782Y-29314D01*
X104810Y-29370D01*
X104810Y-29595D01*
X104501Y-28892D02*
X104501Y-28779D01*
X104529Y-28723D01*
X104585Y-28667D01*
X104698Y-28639D01*
X104895Y-28639D01*
X105007Y-28667D01*
X105064Y-28723D01*
X105092Y-28779D01*
X105092Y-28892D01*
X105064Y-28948D01*
X105007Y-29004D01*
X104895Y-29032D01*
X104698Y-29032D01*
X104585Y-29004D01*
X104529Y-28948D01*
X104501Y-28892D01*
X105092Y-28385D02*
X104501Y-28385D01*
X105092Y-28048D01*
X104501Y-28048D01*
X104501Y-27851D02*
X104501Y-27514D01*
X105092Y-27682D02*
X104501Y-27682D01*
G54D12*
X79250Y-18750D03*
G54D13*
X79250Y-19750D03*
X79250Y-20750D03*
X80250Y-20750D03*
X80250Y-19750D03*
X80250Y-18750D03*
G54D12*
X104950Y-21750D03*
G54D13*
X104950Y-20750D03*
X104950Y-19750D03*
X104950Y-18750D03*
X104950Y-17750D03*
X104950Y-16750D03*
X103950Y-16750D03*
X103950Y-17750D03*
X103950Y-18750D03*
X103950Y-19750D03*
X103950Y-20750D03*
X103950Y-21750D03*
G54D14*
X100500Y-18750D03*
X100500Y-19000D03*
X100500Y-19250D03*
X100500Y-19500D03*
X100500Y-19750D03*
X100500Y-20000D03*
X100500Y-20250D03*
X100500Y-20500D03*
X102700Y-20500D03*
X102700Y-20250D03*
X102700Y-20000D03*
X102700Y-19750D03*
X102700Y-19500D03*
X102700Y-19250D03*
X102700Y-19000D03*
X102700Y-18750D03*
G54D15*
X101850Y-18050D03*
X101250Y-18050D03*
G54D16*
X88075Y-32125D03*
X89175Y-32125D03*
G54D17*
X88329Y-30875D03*
X88921Y-30875D03*
G54D18*
X93350Y-29500D03*
X93350Y-28200D03*
X98600Y-20350D03*
X98600Y-19050D03*
G54D19*
X99550Y-19950D03*
X99550Y-19350D03*
G54D18*
X92150Y-29500D03*
X92150Y-28200D03*
X95750Y-17150D03*
X95750Y-15850D03*
G54D20*
X90650Y-17750D03*
X89350Y-17750D03*
G54D15*
X90550Y-19000D03*
X89950Y-19000D03*
G54D18*
X94500Y-17150D03*
X94500Y-15850D03*
X95750Y-22350D03*
X95750Y-23650D03*
X94500Y-22350D03*
X94500Y-23650D03*
G54D20*
X89350Y-21750D03*
X90650Y-21750D03*
G54D15*
X89950Y-20500D03*
X90550Y-20500D03*
G54D21*
X100766Y-26087D03*
X100766Y-27087D03*
X100766Y-29087D03*
X100766Y-30087D03*
X100766Y-31087D03*
G54D22*
X86137Y-30875D03*
X85113Y-30875D03*
X86137Y-28375D03*
X85113Y-28375D03*
X86137Y-25875D03*
X85113Y-25875D03*
X86137Y-27125D03*
X85113Y-27125D03*
X86137Y-29625D03*
X85113Y-29625D03*
X84863Y-15475D03*
X85887Y-15475D03*
X83387Y-16725D03*
X82363Y-16725D03*
X82363Y-15475D03*
X83387Y-15475D03*
X88412Y-18200D03*
X87388Y-18200D03*
X83387Y-23975D03*
X82363Y-23975D03*
X84863Y-22725D03*
X85887Y-22725D03*
X85887Y-23975D03*
X84863Y-23975D03*
X88412Y-21800D03*
X87388Y-21800D03*
X93637Y-30875D03*
X92613Y-30875D03*
X93662Y-26900D03*
X92638Y-26900D03*
X95988Y-14250D03*
X97012Y-14250D03*
X96912Y-19200D03*
X95888Y-19200D03*
X95888Y-20400D03*
X96912Y-20400D03*
X95988Y-25250D03*
X97012Y-25250D03*
G54D23*
X87800Y-15600D03*
X87800Y-16600D03*
X87800Y-14600D03*
X92500Y-16000D03*
X92500Y-15000D03*
X92500Y-17000D03*
X88000Y-24400D03*
X88000Y-23400D03*
X88000Y-25400D03*
X92500Y-23500D03*
X92500Y-24500D03*
X92500Y-22500D03*
G54D24*
X89687Y-29851D03*
X89687Y-29359D03*
X89725Y-28875D03*
X89687Y-28375D03*
X89687Y-27882D03*
X89687Y-27390D03*
X89687Y-26898D03*
X87562Y-26898D03*
X87562Y-27390D03*
X87562Y-27882D03*
X87562Y-28375D03*
X87562Y-28867D03*
X87562Y-29359D03*
X87562Y-29851D03*
G54D25*
X85625Y-17725D03*
X85125Y-17725D03*
X84625Y-17725D03*
X84125Y-17725D03*
X83625Y-17725D03*
X83125Y-17725D03*
X82625Y-17725D03*
X82125Y-17725D03*
X82125Y-21725D03*
X82625Y-21725D03*
X83125Y-21725D03*
X83625Y-21725D03*
X84125Y-21725D03*
X84625Y-21725D03*
X85125Y-21725D03*
X85625Y-21725D03*
G54D26*
X93000Y-20800D03*
X93000Y-18700D03*
X92500Y-20800D03*
X92000Y-20800D03*
X91500Y-20800D03*
X92500Y-18700D03*
X92000Y-18700D03*
X91500Y-18700D03*
G54D27*
X97825Y-28900D03*
G54D28*
X95225Y-28900D03*
X95225Y-29800D03*
X95225Y-28000D03*
G54D27*
X99800Y-16500D03*
G54D28*
X97200Y-16500D03*
X97200Y-17400D03*
X97200Y-15600D03*
G54D27*
X99800Y-23000D03*
G54D28*
X97200Y-23000D03*
X97200Y-23900D03*
X97200Y-22100D03*
G54D29*
X80375Y-29625D03*
G54D30*
X81625Y-28375D03*
G54D29*
X80375Y-27125D03*
X82875Y-29625D03*
X82875Y-27125D03*
G54D15*
X84075Y-16725D03*
X84675Y-16725D03*
X83575Y-22725D03*
X84175Y-22725D03*
G54D22*
X87388Y-19400D03*
X88412Y-19400D03*
X87388Y-20600D03*
X88412Y-20600D03*
G54D19*
X99600Y-32100D03*
X99600Y-32700D03*
G54D31*
X98000Y-32100D03*
X96800Y-32100D03*
G54D32*
X102000Y-20000D03*
G54D33*
X93850Y-33250D03*
X92150Y-31550D03*
G54D32*
X101250Y-18750D03*
G54D33*
X99550Y-18600D03*
X86125Y-18200D03*
X99500Y-20900D03*
X86175Y-21725D03*
G54D32*
X98700Y-32700D03*
X91900Y-26900D03*
X91300Y-28200D03*
X94500Y-21600D03*
X89200Y-32900D03*
X97850Y-19050D03*
X95150Y-19200D03*
X95150Y-20400D03*
X95750Y-21550D03*
X89350Y-22600D03*
X82975Y-22725D03*
X85225Y-16725D03*
X89350Y-16900D03*
X101250Y-17350D03*
X95750Y-15100D03*
X94500Y-15100D03*
G54D33*
X87000Y-30850D03*
X90350Y-29350D03*
X90400Y-28450D03*
X86850Y-28350D03*
X89300Y-19400D03*
X92500Y-19400D03*
X89300Y-20150D03*
X91900Y-20150D03*
G54D32*
X92050Y-19700D03*
X90950Y-19700D03*
G54D34*
X102000Y-20000D02*
X102000Y-18600D01*
X102000Y-18600D02*
X102000Y-18650D01*
X102000Y-18650D02*
X102000Y-18600D01*
G54D11*
X102700Y-20000D02*
X102000Y-20000D01*
X102700Y-18750D02*
X102150Y-18750D01*
X102150Y-18750D02*
X102000Y-18600D01*
X101850Y-18450D02*
X101850Y-18050D01*
X102000Y-18600D02*
X101850Y-18450D01*
G54D34*
X98000Y-32350D02*
X98000Y-32100D01*
X97551Y-32798D02*
X98000Y-32350D01*
X93748Y-32798D02*
X97551Y-32798D01*
X88693Y-33295D02*
X93252Y-33295D01*
X88075Y-32676D02*
X88693Y-33295D01*
X93252Y-33295D02*
X93748Y-32798D01*
X88075Y-32125D02*
X88075Y-32676D01*
X100996Y-32100D02*
X101515Y-31580D01*
X100021Y-32100D02*
X100996Y-32100D01*
X99600Y-32100D02*
X100021Y-32100D01*
X98446Y-32100D02*
X99600Y-32100D01*
X98000Y-32100D02*
X98446Y-32100D01*
X87562Y-29851D02*
X87562Y-30108D01*
X87562Y-30108D02*
X88329Y-30875D01*
X88329Y-30875D02*
X88329Y-31321D01*
X88075Y-31575D02*
X88075Y-32125D01*
X88329Y-31321D02*
X88075Y-31575D01*
G54D11*
X100500Y-19750D02*
X100100Y-19750D01*
X100100Y-19750D02*
X99900Y-19950D01*
G54D34*
X101515Y-31580D02*
X102700Y-30396D01*
X102700Y-28700D02*
X101580Y-27580D01*
X102700Y-30396D02*
X102700Y-28700D01*
X100769Y-27580D02*
X100016Y-27580D01*
X101580Y-27580D02*
X100769Y-27580D01*
X98600Y-26164D02*
X98600Y-20846D01*
X98600Y-20846D02*
X98600Y-20350D01*
X100016Y-27580D02*
X98600Y-26164D01*
X99550Y-19950D02*
X99000Y-19950D01*
X99000Y-19950D02*
X98600Y-20350D01*
G54D11*
X99900Y-19950D02*
X99550Y-19950D01*
G54D34*
X90550Y-20400D02*
X90550Y-20500D01*
X89926Y-19776D02*
X90550Y-20400D01*
X89120Y-19776D02*
X89926Y-19776D01*
X88897Y-20000D02*
X89120Y-19776D01*
X85428Y-20000D02*
X88897Y-20000D01*
X84125Y-21303D02*
X85428Y-20000D01*
X84125Y-21725D02*
X84125Y-21303D01*
X91545Y-19969D02*
X91545Y-19217D01*
X91500Y-19172D02*
X91500Y-18700D01*
X90550Y-20500D02*
X91014Y-20500D01*
X91014Y-20500D02*
X91545Y-19969D01*
X91545Y-19217D02*
X91500Y-19172D01*
X84175Y-22203D02*
X84175Y-22725D01*
X84178Y-22200D02*
X84175Y-22203D01*
X84125Y-21725D02*
X84125Y-22146D01*
X84125Y-22146D02*
X84178Y-22200D01*
X90550Y-21650D02*
X90650Y-21750D01*
X90550Y-20500D02*
X90550Y-21650D01*
X90650Y-23387D02*
X90650Y-21750D01*
X92962Y-25700D02*
X90650Y-23387D01*
X96502Y-25700D02*
X92962Y-25700D01*
X96952Y-25250D02*
X96502Y-25700D01*
X97012Y-25250D02*
X96952Y-25250D01*
X97012Y-24738D02*
X97012Y-25250D01*
X97200Y-24550D02*
X97012Y-24738D01*
X97200Y-23900D02*
X97200Y-24550D01*
G54D35*
X104610Y-20410D02*
X104950Y-20750D01*
X104459Y-20259D02*
X104610Y-20410D01*
X102959Y-20259D02*
X104459Y-20259D01*
X102949Y-20250D02*
X102959Y-20259D01*
X102700Y-20250D02*
X102949Y-20250D01*
X89687Y-27882D02*
X90332Y-27882D01*
X90750Y-28300D02*
X90332Y-27882D01*
X90750Y-30150D02*
X90750Y-28300D01*
X92150Y-31550D02*
X90750Y-30150D01*
X100900Y-33250D02*
X93850Y-33250D01*
X93850Y-33250D02*
X93849Y-33250D01*
X103900Y-30249D02*
X100900Y-33250D01*
X103900Y-24188D02*
X103900Y-30249D01*
X104950Y-19750D02*
X104459Y-19259D01*
X104459Y-19259D02*
X104459Y-16514D01*
X104459Y-16514D02*
X104714Y-16259D01*
X105736Y-16811D02*
X105736Y-22351D01*
X104714Y-16259D02*
X105185Y-16259D01*
X105185Y-16259D02*
X105736Y-16811D01*
X105736Y-22351D02*
X103900Y-24188D01*
G54D34*
X82614Y-28375D02*
X81625Y-28375D01*
X83803Y-28375D02*
X82614Y-28375D01*
X85053Y-29625D02*
X83803Y-28375D01*
X85113Y-29625D02*
X85053Y-29625D01*
X83045Y-28375D02*
X82614Y-28375D01*
X85113Y-30442D02*
X83045Y-28375D01*
X85113Y-30875D02*
X85113Y-30442D01*
X83803Y-28375D02*
X82614Y-28375D01*
X85053Y-27125D02*
X83803Y-28375D01*
X85113Y-27125D02*
X85053Y-27125D01*
X83028Y-28375D02*
X82614Y-28375D01*
X85113Y-26290D02*
X83028Y-28375D01*
X85113Y-25875D02*
X85113Y-26290D01*
X81625Y-28375D02*
X85113Y-28375D01*
G54D35*
X102700Y-19750D02*
X103950Y-19750D01*
X103459Y-18240D02*
X103610Y-18089D01*
X103459Y-18840D02*
X103459Y-18240D01*
X103610Y-18089D02*
X103950Y-17750D01*
X103050Y-19250D02*
X103459Y-18840D01*
X102700Y-19250D02*
X103050Y-19250D01*
X103469Y-21750D02*
X103950Y-21750D01*
X101575Y-21750D02*
X103469Y-21750D01*
X100500Y-20675D02*
X101575Y-21750D01*
X100500Y-20500D02*
X100500Y-20675D01*
G54D11*
X100500Y-18750D02*
X101250Y-18750D01*
G54D34*
X92799Y-22200D02*
X92500Y-22500D01*
X93316Y-21683D02*
X92799Y-22200D01*
X93316Y-17816D02*
X93316Y-21683D01*
X92500Y-17000D02*
X93316Y-17816D01*
G54D35*
X100500Y-19250D02*
X100200Y-19250D01*
X100200Y-19250D02*
X99550Y-18600D01*
X79975Y-20750D02*
X80250Y-20750D01*
X78759Y-20159D02*
X78859Y-20259D01*
X78759Y-19514D02*
X78759Y-20159D01*
X81215Y-19259D02*
X79014Y-19259D01*
X79014Y-19259D02*
X78759Y-19514D01*
X82625Y-17850D02*
X81215Y-19259D01*
X78859Y-20259D02*
X79485Y-20259D01*
X82625Y-17725D02*
X82625Y-17850D01*
X79485Y-20259D02*
X79975Y-20750D01*
X82363Y-16725D02*
X82363Y-15475D01*
X82363Y-17138D02*
X82363Y-16725D01*
X82524Y-17299D02*
X82363Y-17138D01*
X82625Y-17725D02*
X82625Y-17400D01*
X82625Y-17400D02*
X82524Y-17299D01*
X85625Y-17725D02*
X85650Y-17725D01*
X85650Y-17725D02*
X86125Y-18200D01*
X85887Y-17663D02*
X85825Y-17725D01*
X85887Y-15475D02*
X85887Y-17663D01*
X85825Y-17725D02*
X85625Y-17725D01*
X100500Y-20250D02*
X100150Y-20250D01*
X100150Y-20250D02*
X99500Y-20900D01*
X85625Y-21725D02*
X86175Y-21725D01*
X85887Y-22725D02*
X85887Y-23975D01*
X85625Y-22127D02*
X85625Y-21725D01*
X85848Y-22350D02*
X85625Y-22127D01*
X85887Y-22725D02*
X85887Y-22389D01*
X85887Y-22389D02*
X85848Y-22350D01*
X82625Y-21600D02*
X81284Y-20259D01*
X82625Y-21725D02*
X82625Y-21600D01*
X79258Y-19750D02*
X79250Y-19750D01*
X81284Y-20259D02*
X79768Y-20259D01*
X79768Y-20259D02*
X79258Y-19750D01*
X82625Y-22050D02*
X82625Y-21725D01*
X82363Y-22312D02*
X82625Y-22050D01*
X82363Y-23975D02*
X82363Y-22312D01*
G54D34*
X101553Y-26087D02*
X100766Y-26087D01*
X101650Y-26087D02*
X101553Y-26087D01*
X105488Y-22248D02*
X101650Y-26087D01*
X104950Y-16750D02*
X105488Y-17288D01*
X105488Y-17288D02*
X105488Y-22248D01*
X95425Y-29800D02*
X95225Y-29800D01*
X96000Y-29225D02*
X95425Y-29800D01*
X96000Y-28725D02*
X96000Y-29225D01*
X95776Y-28501D02*
X96000Y-28725D01*
X93350Y-29500D02*
X93450Y-29500D01*
X93450Y-29500D02*
X94448Y-28501D01*
X94448Y-28501D02*
X95776Y-28501D01*
X95225Y-29800D02*
X95385Y-29800D01*
X99978Y-31087D02*
X100766Y-31087D01*
X96672Y-31087D02*
X99978Y-31087D01*
X95385Y-29800D02*
X96672Y-31087D01*
X101450Y-28249D02*
X102100Y-28899D01*
X100266Y-28249D02*
X101450Y-28249D01*
X96399Y-19576D02*
X96457Y-19634D01*
X98303Y-26287D02*
X100266Y-28249D01*
X98303Y-22203D02*
X98303Y-26287D01*
X97454Y-21354D02*
X98303Y-22203D01*
X101061Y-31087D02*
X100766Y-31087D01*
X97366Y-19634D02*
X97454Y-19722D01*
X96399Y-17700D02*
X96399Y-19576D01*
X97454Y-19722D02*
X97454Y-21354D01*
X96950Y-17150D02*
X96399Y-17700D01*
X102100Y-28899D02*
X102100Y-30048D01*
X102100Y-30048D02*
X101061Y-31087D01*
X96457Y-19634D02*
X97366Y-19634D01*
X96950Y-17150D02*
X97200Y-17400D01*
X95750Y-17150D02*
X96950Y-17150D01*
X98006Y-26622D02*
X100471Y-29087D01*
X98006Y-23606D02*
X98006Y-26622D01*
X100471Y-29087D02*
X100766Y-29087D01*
X97400Y-23000D02*
X98006Y-23606D01*
X97200Y-23000D02*
X97400Y-23000D01*
X96603Y-23000D02*
X97200Y-23000D01*
X94653Y-23000D02*
X96603Y-23000D01*
X94500Y-23153D02*
X94653Y-23000D01*
X94500Y-23650D02*
X94500Y-23153D01*
X97200Y-23000D02*
X97400Y-23000D01*
G54D35*
X103700Y-20500D02*
X103950Y-20750D01*
X102700Y-20500D02*
X103700Y-20500D01*
X103610Y-17089D02*
X103950Y-16750D01*
X103259Y-17440D02*
X103610Y-17089D01*
X103259Y-18757D02*
X103259Y-17440D01*
X103017Y-19000D02*
X103259Y-18757D01*
X102700Y-19000D02*
X103017Y-19000D01*
X103200Y-19500D02*
X103950Y-18750D01*
X102700Y-19500D02*
X103200Y-19500D01*
G54D34*
X99600Y-32700D02*
X98700Y-32700D01*
X89300Y-21800D02*
X89350Y-21750D01*
X88412Y-21800D02*
X89300Y-21800D01*
X89350Y-17754D02*
X89350Y-17750D01*
X88904Y-18200D02*
X89350Y-17754D01*
X88412Y-18200D02*
X88904Y-18200D01*
X89846Y-21750D02*
X89350Y-21750D01*
X89950Y-21646D02*
X89846Y-21750D01*
X89950Y-20500D02*
X89950Y-21646D01*
X89950Y-18578D02*
X89950Y-19000D01*
X89846Y-17750D02*
X89950Y-17853D01*
X89950Y-17853D02*
X89950Y-18578D01*
X89350Y-17750D02*
X89846Y-17750D01*
X92150Y-28200D02*
X91300Y-28200D01*
X92638Y-26900D02*
X91900Y-26900D01*
X83575Y-22196D02*
X83575Y-22725D01*
X83600Y-22171D02*
X83575Y-22196D01*
X83625Y-21725D02*
X83625Y-22146D01*
X83625Y-22146D02*
X83600Y-22171D01*
X84625Y-17275D02*
X84625Y-17725D01*
X84675Y-17225D02*
X84625Y-17275D01*
X84675Y-16725D02*
X84675Y-17225D01*
X94500Y-22350D02*
X94500Y-21600D01*
X89175Y-32875D02*
X89200Y-32900D01*
X89175Y-32125D02*
X89175Y-32875D01*
X93650Y-28200D02*
X92150Y-28200D01*
X89687Y-26898D02*
X89151Y-26898D01*
X88921Y-27129D02*
X88921Y-30875D01*
X89151Y-26898D02*
X88921Y-27129D01*
X88921Y-30875D02*
X88921Y-31321D01*
X89175Y-31575D02*
X89175Y-32125D01*
X88921Y-31321D02*
X89175Y-31575D01*
X101250Y-18050D02*
X101250Y-17350D01*
X99550Y-19350D02*
X98900Y-19350D01*
X98900Y-19350D02*
X98600Y-19050D01*
X98600Y-19050D02*
X97850Y-19050D01*
X95888Y-19200D02*
X95150Y-19200D01*
X95888Y-20400D02*
X95150Y-20400D01*
X95750Y-22350D02*
X95750Y-21550D01*
X89350Y-21750D02*
X89350Y-22600D01*
X84675Y-16725D02*
X85225Y-16725D01*
X83575Y-22725D02*
X82975Y-22725D01*
X95750Y-15850D02*
X95750Y-15100D01*
X94500Y-15850D02*
X94500Y-15100D01*
X89350Y-17750D02*
X89350Y-16900D01*
G54D11*
X100500Y-19500D02*
X100100Y-19500D01*
X99950Y-19350D02*
X99550Y-19350D01*
X100100Y-19500D02*
X99950Y-19350D01*
G54D35*
X92150Y-30076D02*
X92150Y-29500D01*
X92274Y-30200D02*
X92150Y-30076D01*
X92613Y-30875D02*
X92613Y-30539D01*
X92613Y-30539D02*
X92274Y-30200D01*
X95225Y-27700D02*
X95225Y-28000D01*
X94425Y-26900D02*
X95225Y-27700D01*
X93662Y-26900D02*
X94425Y-26900D01*
X93099Y-28650D02*
X92250Y-29500D01*
X93870Y-28650D02*
X93099Y-28650D01*
X94520Y-28000D02*
X93870Y-28650D01*
X92250Y-29500D02*
X92150Y-29500D01*
X95225Y-28000D02*
X94520Y-28000D01*
X96729Y-16900D02*
X97750Y-16900D01*
X96329Y-16500D02*
X96729Y-16900D01*
X97750Y-16900D02*
X97750Y-18025D01*
X94750Y-16500D02*
X96329Y-16500D01*
X97750Y-15950D02*
X97750Y-16900D01*
X94500Y-17150D02*
X94500Y-16750D01*
X94500Y-16750D02*
X94750Y-16500D01*
X97200Y-15150D02*
X97200Y-15600D01*
X97012Y-14962D02*
X97200Y-15150D01*
X97012Y-14250D02*
X97012Y-14962D01*
X96912Y-18864D02*
X96912Y-19200D01*
X97750Y-18025D02*
X96912Y-18864D01*
X97200Y-15600D02*
X97400Y-15600D01*
X97400Y-15600D02*
X97750Y-15950D01*
X95129Y-25250D02*
X95988Y-25250D01*
X93949Y-21586D02*
X93949Y-24070D01*
X94333Y-21203D02*
X93949Y-21586D01*
X96603Y-21203D02*
X94333Y-21203D01*
X97200Y-21800D02*
X96603Y-21203D01*
X93949Y-24070D02*
X95129Y-25250D01*
X97200Y-22100D02*
X97200Y-21800D01*
X95988Y-24588D02*
X95988Y-25250D01*
X95750Y-24350D02*
X95988Y-24588D01*
X95750Y-23650D02*
X95750Y-24350D01*
X96912Y-21012D02*
X96912Y-20400D01*
X97200Y-21300D02*
X96912Y-21012D01*
X97200Y-22100D02*
X97200Y-21300D01*
G54D34*
X95354Y-32100D02*
X94835Y-31580D01*
X96800Y-32100D02*
X95354Y-32100D01*
X94129Y-30875D02*
X94835Y-31580D01*
X94619Y-28930D02*
X95194Y-28930D01*
X95194Y-28930D02*
X95225Y-28900D01*
X93637Y-30875D02*
X94129Y-30875D01*
X94221Y-29329D02*
X94619Y-28930D01*
X94221Y-29857D02*
X94221Y-29329D01*
X93637Y-30442D02*
X94221Y-29857D01*
X93637Y-30875D02*
X93637Y-30442D01*
X94619Y-28930D02*
X94221Y-29329D01*
G54D35*
X89687Y-29359D02*
X90340Y-29359D01*
X86975Y-30875D02*
X86137Y-30875D01*
X87000Y-30850D02*
X86975Y-30875D01*
X90340Y-29359D02*
X90350Y-29350D01*
X86137Y-28375D02*
X86825Y-28375D01*
X90325Y-28375D02*
X89687Y-28375D01*
X90400Y-28450D02*
X90325Y-28375D01*
X86825Y-28375D02*
X86850Y-28350D01*
X87562Y-26680D02*
X87562Y-26898D01*
X86756Y-25875D02*
X87562Y-26680D01*
X86137Y-25875D02*
X86756Y-25875D01*
X87384Y-27882D02*
X87562Y-27882D01*
X86626Y-27125D02*
X87384Y-27882D01*
X86137Y-27125D02*
X86626Y-27125D01*
X87384Y-28867D02*
X87562Y-28867D01*
X86626Y-29625D02*
X87384Y-28867D01*
X86137Y-29625D02*
X86626Y-29625D01*
X85571Y-17153D02*
X85125Y-17600D01*
X85125Y-17600D02*
X85125Y-17725D01*
X85571Y-16124D02*
X85571Y-17153D01*
X84922Y-15475D02*
X85571Y-16124D01*
X84863Y-15475D02*
X84922Y-15475D01*
X84467Y-15475D02*
X83387Y-15475D01*
X84863Y-15475D02*
X84467Y-15475D01*
X83125Y-18525D02*
X83125Y-17725D01*
X84000Y-19400D02*
X83125Y-18525D01*
X87388Y-19400D02*
X84000Y-19400D01*
X83387Y-17138D02*
X83387Y-16725D01*
X83300Y-17225D02*
X83387Y-17138D01*
X83125Y-17725D02*
X83125Y-17400D01*
X83125Y-17400D02*
X83300Y-17225D01*
X87388Y-17012D02*
X87800Y-16600D01*
X87388Y-18200D02*
X87388Y-17012D01*
X92500Y-18700D02*
X92500Y-19400D01*
X89300Y-19400D02*
X88412Y-19400D01*
X92500Y-18700D02*
X92500Y-17666D01*
X92500Y-18700D02*
X92500Y-17666D01*
X93000Y-18700D02*
X92500Y-18700D01*
X82628Y-22891D02*
X82628Y-22346D01*
X82808Y-23071D02*
X82628Y-22891D01*
X82850Y-23071D02*
X82808Y-23071D01*
X83387Y-23608D02*
X82850Y-23071D01*
X83387Y-23975D02*
X83387Y-23608D01*
X83125Y-21850D02*
X83125Y-21725D01*
X82628Y-22346D02*
X83125Y-21850D01*
X83782Y-23975D02*
X84863Y-23975D01*
X83387Y-23975D02*
X83782Y-23975D01*
X85441Y-23639D02*
X84863Y-23061D01*
X86942Y-23008D02*
X87883Y-23949D01*
X87388Y-20600D02*
X87388Y-20936D01*
X85441Y-24331D02*
X85441Y-23639D01*
X87883Y-23949D02*
X88216Y-23949D01*
X88450Y-24616D02*
X88216Y-24850D01*
X84863Y-23061D02*
X84863Y-22725D01*
X88450Y-24183D02*
X88450Y-24616D01*
X85960Y-24850D02*
X85441Y-24331D01*
X86942Y-21381D02*
X86942Y-23008D01*
X87388Y-20936D02*
X86942Y-21381D01*
X88216Y-24850D02*
X85960Y-24850D01*
X88216Y-23949D02*
X88450Y-24183D01*
X85125Y-22127D02*
X85125Y-22050D01*
X84863Y-22389D02*
X85125Y-22127D01*
X85125Y-22050D02*
X85125Y-21725D01*
X84863Y-22725D02*
X84863Y-22389D01*
X87388Y-22788D02*
X87388Y-21800D01*
X87400Y-22800D02*
X87388Y-22788D01*
X88000Y-23400D02*
X87400Y-22800D01*
X88412Y-20600D02*
X88850Y-20600D01*
X88850Y-20600D02*
X89300Y-20150D01*
X89300Y-20150D02*
X89300Y-20150D01*
X89300Y-20150D02*
X89300Y-20150D01*
X91900Y-20150D02*
X92000Y-20250D01*
X92000Y-20250D02*
X92000Y-20800D01*
X92282Y-20800D02*
X92000Y-20800D01*
X92500Y-20800D02*
X92282Y-20800D01*
X83625Y-18325D02*
X83625Y-17725D01*
X83825Y-18525D02*
X83625Y-18325D01*
X87800Y-15600D02*
X86749Y-16650D01*
X86749Y-16650D02*
X86749Y-18056D01*
X86749Y-18056D02*
X86281Y-18525D01*
X86281Y-18525D02*
X83825Y-18525D01*
X91782Y-18324D02*
X92000Y-18542D01*
X92500Y-16000D02*
X91782Y-16718D01*
X91782Y-16718D02*
X91782Y-18324D01*
X92000Y-18542D02*
X92000Y-18700D01*
X86281Y-21349D02*
X84875Y-21349D01*
X84875Y-21349D02*
X84625Y-21600D01*
X84625Y-21600D02*
X84625Y-21725D01*
X86742Y-21811D02*
X86281Y-21349D01*
X86742Y-23142D02*
X86742Y-21811D01*
X88000Y-24400D02*
X86742Y-23142D01*
X91500Y-22500D02*
X91500Y-20800D01*
X92500Y-23500D02*
X91500Y-22500D01*
X89510Y-29851D02*
X89687Y-29851D01*
X89242Y-29583D02*
X89510Y-29851D01*
X89242Y-28962D02*
X89242Y-29583D01*
X89329Y-28875D02*
X89242Y-28962D01*
X89725Y-28875D02*
X89329Y-28875D01*
X89242Y-28569D02*
X89547Y-28875D01*
X89547Y-28875D02*
X89725Y-28875D01*
X89242Y-27658D02*
X89242Y-28569D01*
X89510Y-27390D02*
X89242Y-27658D01*
X89687Y-27390D02*
X89510Y-27390D01*
X89865Y-27390D02*
X89687Y-27390D01*
X90133Y-27122D02*
X89865Y-27390D01*
X90103Y-26630D02*
X90133Y-26660D01*
X88499Y-26630D02*
X90103Y-26630D01*
X87739Y-27390D02*
X88499Y-26630D01*
X90133Y-26660D02*
X90133Y-27122D01*
X87562Y-27390D02*
X87739Y-27390D01*
X87739Y-27390D02*
X87562Y-27390D01*
X88100Y-27751D02*
X87739Y-27390D01*
X88100Y-28232D02*
X88100Y-27751D01*
X87562Y-28375D02*
X87957Y-28375D01*
X87957Y-28375D02*
X88100Y-28232D01*
X87975Y-28375D02*
X87562Y-28375D01*
X88100Y-28500D02*
X87975Y-28375D01*
X88100Y-28735D02*
X88100Y-28500D01*
X88100Y-29216D02*
X88100Y-28735D01*
X87562Y-29359D02*
X87957Y-29359D01*
X87957Y-29359D02*
X88100Y-29216D01*
G54D34*
X92363Y-14101D02*
X92512Y-14250D01*
X83871Y-14101D02*
X92363Y-14101D01*
X82893Y-15080D02*
X83871Y-14101D01*
X82893Y-15869D02*
X82893Y-15080D01*
X82932Y-15909D02*
X82893Y-15869D01*
X83681Y-15909D02*
X82932Y-15909D01*
X84075Y-16303D02*
X83681Y-15909D01*
X84075Y-16725D02*
X84075Y-16303D01*
X90650Y-17153D02*
X90650Y-17750D01*
X84125Y-17246D02*
X84125Y-17725D01*
X84150Y-17221D02*
X84125Y-17246D01*
X84075Y-16725D02*
X84075Y-17146D01*
X84075Y-17146D02*
X84150Y-17221D01*
X90550Y-19000D02*
X90550Y-19300D01*
X93000Y-20350D02*
X93000Y-20800D01*
X92800Y-20150D02*
X93000Y-20350D01*
X92500Y-20150D02*
X92800Y-20150D01*
X92050Y-19700D02*
X92500Y-20150D01*
X90550Y-19300D02*
X90950Y-19700D01*
X90550Y-17850D02*
X90650Y-17750D01*
X90550Y-19000D02*
X90550Y-17850D01*
X90650Y-16112D02*
X90650Y-17153D01*
X92512Y-14250D02*
X90650Y-16112D01*
X95988Y-14250D02*
X92512Y-14250D01*
X95988Y-14682D02*
X95988Y-14250D01*
X96450Y-15144D02*
X95988Y-14682D01*
X96450Y-15950D02*
X96450Y-15144D01*
X97200Y-16500D02*
X97000Y-16500D01*
X97000Y-16500D02*
X96450Y-15950D01*
G54D10*
G36*
X87801Y-33238D02*
X83577Y-33238D01*
X83577Y-30329D01*
X82875Y-29627D01*
X82172Y-30329D01*
X82247Y-30490D01*
X82626Y-30664D01*
X83043Y-30680D01*
X83434Y-30535D01*
X83502Y-30490D01*
X83577Y-30329D01*
X83577Y-33238D01*
X81077Y-33238D01*
X81077Y-30329D01*
X80375Y-29627D01*
X80372Y-29629D01*
X80372Y-29625D01*
X79670Y-28922D01*
X79509Y-28997D01*
X79335Y-29376D01*
X79319Y-29793D01*
X79464Y-30184D01*
X79509Y-30252D01*
X79670Y-30327D01*
X80372Y-29625D01*
X80372Y-29629D01*
X79672Y-30329D01*
X79747Y-30490D01*
X80126Y-30664D01*
X80543Y-30680D01*
X80934Y-30535D01*
X81002Y-30490D01*
X81077Y-30329D01*
X81077Y-33238D01*
X80153Y-33238D01*
X80333Y-33058D01*
X80483Y-32696D01*
X80484Y-32305D01*
X80334Y-31943D01*
X80058Y-31666D01*
X79696Y-31516D01*
X79305Y-31515D01*
X78943Y-31665D01*
X78761Y-31846D01*
X78761Y-21421D01*
X78931Y-21535D01*
X79250Y-21598D01*
X79568Y-21535D01*
X79750Y-21413D01*
X79931Y-21535D01*
X80250Y-21598D01*
X80568Y-21535D01*
X80838Y-21354D01*
X81018Y-21084D01*
X81072Y-20814D01*
X81570Y-21311D01*
X81532Y-21402D01*
X81532Y-21597D01*
X81532Y-22047D01*
X81607Y-22228D01*
X81746Y-22367D01*
X81820Y-22398D01*
X81820Y-23308D01*
X81788Y-23321D01*
X81650Y-23460D01*
X81575Y-23641D01*
X81575Y-23836D01*
X81575Y-24308D01*
X81650Y-24489D01*
X81788Y-24628D01*
X81969Y-24703D01*
X82165Y-24703D01*
X82756Y-24703D01*
X82874Y-24653D01*
X82993Y-24703D01*
X83189Y-24703D01*
X83780Y-24703D01*
X83961Y-24628D01*
X84072Y-24517D01*
X84177Y-24517D01*
X84288Y-24628D01*
X84469Y-24703D01*
X84665Y-24703D01*
X85050Y-24703D01*
X85058Y-24714D01*
X85490Y-25146D01*
X85310Y-25146D01*
X84719Y-25146D01*
X84538Y-25221D01*
X84400Y-25360D01*
X84325Y-25541D01*
X84325Y-25736D01*
X84325Y-26208D01*
X84335Y-26233D01*
X83844Y-26724D01*
X83785Y-26565D01*
X83740Y-26497D01*
X83579Y-26422D01*
X83577Y-26425D01*
X83577Y-26420D01*
X83502Y-26259D01*
X83123Y-26085D01*
X82706Y-26069D01*
X82315Y-26214D01*
X82247Y-26259D01*
X82172Y-26420D01*
X82875Y-27122D01*
X83577Y-26420D01*
X83577Y-26425D01*
X82877Y-27125D01*
X82882Y-27130D01*
X82880Y-27132D01*
X82875Y-27127D01*
X82869Y-27132D01*
X82867Y-27130D01*
X82872Y-27125D01*
X82170Y-26422D01*
X82009Y-26497D01*
X81835Y-26876D01*
X81823Y-27183D01*
X81421Y-27182D01*
X81430Y-26956D01*
X81285Y-26565D01*
X81240Y-26497D01*
X81079Y-26422D01*
X81077Y-26425D01*
X81077Y-26420D01*
X81002Y-26259D01*
X80623Y-26085D01*
X80206Y-26069D01*
X79815Y-26214D01*
X79747Y-26259D01*
X79672Y-26420D01*
X80375Y-27122D01*
X81077Y-26420D01*
X81077Y-26425D01*
X80377Y-27125D01*
X80382Y-27130D01*
X80380Y-27132D01*
X80375Y-27127D01*
X80372Y-27129D01*
X80372Y-27125D01*
X79670Y-26422D01*
X79509Y-26497D01*
X79335Y-26876D01*
X79319Y-27293D01*
X79464Y-27684D01*
X79509Y-27752D01*
X79670Y-27827D01*
X80372Y-27125D01*
X80372Y-27129D01*
X79672Y-27829D01*
X79747Y-27990D01*
X80126Y-28164D01*
X80433Y-28176D01*
X80432Y-28578D01*
X80206Y-28569D01*
X79815Y-28714D01*
X79747Y-28759D01*
X79672Y-28920D01*
X80375Y-29622D01*
X80380Y-29617D01*
X80382Y-29619D01*
X80377Y-29625D01*
X81079Y-30327D01*
X81240Y-30252D01*
X81414Y-29873D01*
X81426Y-29566D01*
X81828Y-29567D01*
X81819Y-29793D01*
X81964Y-30184D01*
X82009Y-30252D01*
X82170Y-30327D01*
X82872Y-29625D01*
X82867Y-29619D01*
X82869Y-29617D01*
X82875Y-29622D01*
X82880Y-29617D01*
X82882Y-29619D01*
X82877Y-29625D01*
X83579Y-30327D01*
X83740Y-30252D01*
X83849Y-30014D01*
X84340Y-30504D01*
X84325Y-30541D01*
X84325Y-30736D01*
X84325Y-31208D01*
X84400Y-31389D01*
X84538Y-31528D01*
X84719Y-31603D01*
X84915Y-31603D01*
X85506Y-31603D01*
X85624Y-31553D01*
X85743Y-31603D01*
X85939Y-31603D01*
X86530Y-31603D01*
X86711Y-31528D01*
X86764Y-31474D01*
X86866Y-31517D01*
X87132Y-31517D01*
X87377Y-31415D01*
X87565Y-31228D01*
X87647Y-31029D01*
X87659Y-31041D01*
X87659Y-31154D01*
X87657Y-31157D01*
X87544Y-31326D01*
X87481Y-31352D01*
X87342Y-31491D01*
X87267Y-31672D01*
X87267Y-31867D01*
X87267Y-32577D01*
X87342Y-32758D01*
X87481Y-32897D01*
X87542Y-32922D01*
X87657Y-33094D01*
X87801Y-33238D01*
X87801Y-33238D01*
G37*
G54D34*
X87801Y-33238D02*
X83577Y-33238D01*
X83577Y-30329D01*
X82875Y-29627D01*
X82172Y-30329D01*
X82247Y-30490D01*
X82626Y-30664D01*
X83043Y-30680D01*
X83434Y-30535D01*
X83502Y-30490D01*
X83577Y-30329D01*
X83577Y-33238D01*
X81077Y-33238D01*
X81077Y-30329D01*
X80375Y-29627D01*
X80372Y-29629D01*
X80372Y-29625D01*
X79670Y-28922D01*
X79509Y-28997D01*
X79335Y-29376D01*
X79319Y-29793D01*
X79464Y-30184D01*
X79509Y-30252D01*
X79670Y-30327D01*
X80372Y-29625D01*
X80372Y-29629D01*
X79672Y-30329D01*
X79747Y-30490D01*
X80126Y-30664D01*
X80543Y-30680D01*
X80934Y-30535D01*
X81002Y-30490D01*
X81077Y-30329D01*
X81077Y-33238D01*
X80153Y-33238D01*
X80333Y-33058D01*
X80483Y-32696D01*
X80484Y-32305D01*
X80334Y-31943D01*
X80058Y-31666D01*
X79696Y-31516D01*
X79305Y-31515D01*
X78943Y-31665D01*
X78761Y-31846D01*
X78761Y-21421D01*
X78931Y-21535D01*
X79250Y-21598D01*
X79568Y-21535D01*
X79750Y-21413D01*
X79931Y-21535D01*
X80250Y-21598D01*
X80568Y-21535D01*
X80838Y-21354D01*
X81018Y-21084D01*
X81072Y-20814D01*
X81570Y-21311D01*
X81532Y-21402D01*
X81532Y-21597D01*
X81532Y-22047D01*
X81607Y-22228D01*
X81746Y-22367D01*
X81820Y-22398D01*
X81820Y-23308D01*
X81788Y-23321D01*
X81650Y-23460D01*
X81575Y-23641D01*
X81575Y-23836D01*
X81575Y-24308D01*
X81650Y-24489D01*
X81788Y-24628D01*
X81969Y-24703D01*
X82165Y-24703D01*
X82756Y-24703D01*
X82874Y-24653D01*
X82993Y-24703D01*
X83189Y-24703D01*
X83780Y-24703D01*
X83961Y-24628D01*
X84072Y-24517D01*
X84177Y-24517D01*
X84288Y-24628D01*
X84469Y-24703D01*
X84665Y-24703D01*
X85050Y-24703D01*
X85058Y-24714D01*
X85490Y-25146D01*
X85310Y-25146D01*
X84719Y-25146D01*
X84538Y-25221D01*
X84400Y-25360D01*
X84325Y-25541D01*
X84325Y-25736D01*
X84325Y-26208D01*
X84335Y-26233D01*
X83844Y-26724D01*
X83785Y-26565D01*
X83740Y-26497D01*
X83579Y-26422D01*
X83577Y-26425D01*
X83577Y-26420D01*
X83502Y-26259D01*
X83123Y-26085D01*
X82706Y-26069D01*
X82315Y-26214D01*
X82247Y-26259D01*
X82172Y-26420D01*
X82875Y-27122D01*
X83577Y-26420D01*
X83577Y-26425D01*
X82877Y-27125D01*
X82882Y-27130D01*
X82880Y-27132D01*
X82875Y-27127D01*
X82869Y-27132D01*
X82867Y-27130D01*
X82872Y-27125D01*
X82170Y-26422D01*
X82009Y-26497D01*
X81835Y-26876D01*
X81823Y-27183D01*
X81421Y-27182D01*
X81430Y-26956D01*
X81285Y-26565D01*
X81240Y-26497D01*
X81079Y-26422D01*
X81077Y-26425D01*
X81077Y-26420D01*
X81002Y-26259D01*
X80623Y-26085D01*
X80206Y-26069D01*
X79815Y-26214D01*
X79747Y-26259D01*
X79672Y-26420D01*
X80375Y-27122D01*
X81077Y-26420D01*
X81077Y-26425D01*
X80377Y-27125D01*
X80382Y-27130D01*
X80380Y-27132D01*
X80375Y-27127D01*
X80372Y-27129D01*
X80372Y-27125D01*
X79670Y-26422D01*
X79509Y-26497D01*
X79335Y-26876D01*
X79319Y-27293D01*
X79464Y-27684D01*
X79509Y-27752D01*
X79670Y-27827D01*
X80372Y-27125D01*
X80372Y-27129D01*
X79672Y-27829D01*
X79747Y-27990D01*
X80126Y-28164D01*
X80433Y-28176D01*
X80432Y-28578D01*
X80206Y-28569D01*
X79815Y-28714D01*
X79747Y-28759D01*
X79672Y-28920D01*
X80375Y-29622D01*
X80380Y-29617D01*
X80382Y-29619D01*
X80377Y-29625D01*
X81079Y-30327D01*
X81240Y-30252D01*
X81414Y-29873D01*
X81426Y-29566D01*
X81828Y-29567D01*
X81819Y-29793D01*
X81964Y-30184D01*
X82009Y-30252D01*
X82170Y-30327D01*
X82872Y-29625D01*
X82867Y-29619D01*
X82869Y-29617D01*
X82875Y-29622D01*
X82880Y-29617D01*
X82882Y-29619D01*
X82877Y-29625D01*
X83579Y-30327D01*
X83740Y-30252D01*
X83849Y-30014D01*
X84340Y-30504D01*
X84325Y-30541D01*
X84325Y-30736D01*
X84325Y-31208D01*
X84400Y-31389D01*
X84538Y-31528D01*
X84719Y-31603D01*
X84915Y-31603D01*
X85506Y-31603D01*
X85624Y-31553D01*
X85743Y-31603D01*
X85939Y-31603D01*
X86530Y-31603D01*
X86711Y-31528D01*
X86764Y-31474D01*
X86866Y-31517D01*
X87132Y-31517D01*
X87377Y-31415D01*
X87565Y-31228D01*
X87647Y-31029D01*
X87659Y-31041D01*
X87659Y-31154D01*
X87657Y-31157D01*
X87544Y-31326D01*
X87481Y-31352D01*
X87342Y-31491D01*
X87267Y-31672D01*
X87267Y-31867D01*
X87267Y-32577D01*
X87342Y-32758D01*
X87481Y-32897D01*
X87542Y-32922D01*
X87657Y-33094D01*
X87801Y-33238D01*
G54D10*
G36*
X91235Y-14692D02*
X90232Y-15694D01*
X90104Y-15886D01*
X90059Y-16112D01*
X90059Y-16944D01*
X89932Y-17071D01*
X89891Y-17169D01*
X89819Y-17097D01*
X89709Y-17051D01*
X89426Y-17051D01*
X89351Y-17126D01*
X89351Y-17748D01*
X89359Y-17748D01*
X89359Y-17751D01*
X89351Y-17751D01*
X89351Y-18373D01*
X89426Y-18448D01*
X89709Y-18448D01*
X89819Y-18402D01*
X89891Y-18330D01*
X89932Y-18428D01*
X89959Y-18455D01*
X89959Y-18543D01*
X89951Y-18551D01*
X89951Y-18631D01*
X89948Y-18639D01*
X89948Y-18551D01*
X89873Y-18476D01*
X89765Y-18476D01*
X89655Y-18522D01*
X89572Y-18605D01*
X89526Y-18715D01*
X89526Y-18771D01*
X89433Y-18732D01*
X89167Y-18732D01*
X89029Y-18789D01*
X88986Y-18746D01*
X88861Y-18695D01*
X88876Y-18688D01*
X88960Y-18605D01*
X89005Y-18495D01*
X89005Y-18448D01*
X89273Y-18448D01*
X89348Y-18373D01*
X89348Y-17751D01*
X89340Y-17751D01*
X89340Y-17748D01*
X89348Y-17748D01*
X89348Y-17126D01*
X89273Y-17051D01*
X88990Y-17051D01*
X88880Y-17097D01*
X88797Y-17180D01*
X88751Y-17290D01*
X88751Y-17409D01*
X88751Y-17665D01*
X88488Y-17665D01*
X88413Y-17740D01*
X88413Y-18198D01*
X88421Y-18198D01*
X88421Y-18201D01*
X88413Y-18201D01*
X88413Y-18209D01*
X88410Y-18209D01*
X88410Y-18201D01*
X88402Y-18201D01*
X88402Y-18198D01*
X88410Y-18198D01*
X88410Y-17740D01*
X88335Y-17665D01*
X88081Y-17665D01*
X87962Y-17546D01*
X87930Y-17533D01*
X87930Y-17392D01*
X87956Y-17392D01*
X88248Y-17271D01*
X88471Y-17049D01*
X88591Y-16758D01*
X88592Y-16443D01*
X88471Y-16151D01*
X88420Y-16100D01*
X88471Y-16049D01*
X88591Y-15758D01*
X88592Y-15443D01*
X88471Y-15151D01*
X88420Y-15100D01*
X88471Y-15049D01*
X88591Y-14758D01*
X88592Y-14692D01*
X91235Y-14692D01*
X91235Y-14692D01*
G37*
G54D34*
X91235Y-14692D02*
X90232Y-15694D01*
X90104Y-15886D01*
X90059Y-16112D01*
X90059Y-16944D01*
X89932Y-17071D01*
X89891Y-17169D01*
X89819Y-17097D01*
X89709Y-17051D01*
X89426Y-17051D01*
X89351Y-17126D01*
X89351Y-17748D01*
X89359Y-17748D01*
X89359Y-17751D01*
X89351Y-17751D01*
X89351Y-18373D01*
X89426Y-18448D01*
X89709Y-18448D01*
X89819Y-18402D01*
X89891Y-18330D01*
X89932Y-18428D01*
X89959Y-18455D01*
X89959Y-18543D01*
X89951Y-18551D01*
X89951Y-18631D01*
X89948Y-18639D01*
X89948Y-18551D01*
X89873Y-18476D01*
X89765Y-18476D01*
X89655Y-18522D01*
X89572Y-18605D01*
X89526Y-18715D01*
X89526Y-18771D01*
X89433Y-18732D01*
X89167Y-18732D01*
X89029Y-18789D01*
X88986Y-18746D01*
X88861Y-18695D01*
X88876Y-18688D01*
X88960Y-18605D01*
X89005Y-18495D01*
X89005Y-18448D01*
X89273Y-18448D01*
X89348Y-18373D01*
X89348Y-17751D01*
X89340Y-17751D01*
X89340Y-17748D01*
X89348Y-17748D01*
X89348Y-17126D01*
X89273Y-17051D01*
X88990Y-17051D01*
X88880Y-17097D01*
X88797Y-17180D01*
X88751Y-17290D01*
X88751Y-17409D01*
X88751Y-17665D01*
X88488Y-17665D01*
X88413Y-17740D01*
X88413Y-18198D01*
X88421Y-18198D01*
X88421Y-18201D01*
X88413Y-18201D01*
X88413Y-18209D01*
X88410Y-18209D01*
X88410Y-18201D01*
X88402Y-18201D01*
X88402Y-18198D01*
X88410Y-18198D01*
X88410Y-17740D01*
X88335Y-17665D01*
X88081Y-17665D01*
X87962Y-17546D01*
X87930Y-17533D01*
X87930Y-17392D01*
X87956Y-17392D01*
X88248Y-17271D01*
X88471Y-17049D01*
X88591Y-16758D01*
X88592Y-16443D01*
X88471Y-16151D01*
X88420Y-16100D01*
X88471Y-16049D01*
X88591Y-15758D01*
X88592Y-15443D01*
X88471Y-15151D01*
X88420Y-15100D01*
X88471Y-15049D01*
X88591Y-14758D01*
X88592Y-14692D01*
X91235Y-14692D01*
G54D10*
G36*
X93204Y-27601D02*
X93009Y-27601D01*
X92890Y-27601D01*
X92780Y-27647D01*
X92750Y-27677D01*
X92719Y-27647D01*
X92636Y-27612D01*
X92636Y-27359D01*
X92636Y-26901D01*
X92636Y-26898D01*
X92636Y-26440D01*
X92561Y-26365D01*
X92283Y-26365D01*
X92173Y-26411D01*
X92089Y-26494D01*
X92044Y-26604D01*
X92044Y-26723D01*
X92044Y-26823D01*
X92118Y-26898D01*
X92636Y-26898D01*
X92636Y-26901D01*
X92118Y-26901D01*
X92044Y-26976D01*
X92044Y-27076D01*
X92044Y-27195D01*
X92089Y-27305D01*
X92173Y-27388D01*
X92283Y-27434D01*
X92561Y-27434D01*
X92636Y-27359D01*
X92636Y-27612D01*
X92609Y-27601D01*
X92490Y-27601D01*
X92226Y-27601D01*
X92151Y-27676D01*
X92151Y-28198D01*
X92159Y-28198D01*
X92159Y-28201D01*
X92151Y-28201D01*
X92151Y-28209D01*
X92148Y-28209D01*
X92148Y-28201D01*
X92148Y-28198D01*
X92148Y-27676D01*
X92073Y-27601D01*
X91809Y-27601D01*
X91690Y-27601D01*
X91580Y-27647D01*
X91497Y-27730D01*
X91451Y-27840D01*
X91451Y-28123D01*
X91526Y-28198D01*
X92148Y-28198D01*
X92148Y-28201D01*
X91526Y-28201D01*
X91451Y-28276D01*
X91451Y-28559D01*
X91497Y-28669D01*
X91569Y-28741D01*
X91471Y-28782D01*
X91332Y-28921D01*
X91292Y-29019D01*
X91292Y-28300D01*
X91250Y-28092D01*
X91133Y-27916D01*
X90716Y-27499D01*
X90581Y-27409D01*
X90634Y-27330D01*
X90675Y-27122D01*
X90675Y-26660D01*
X90634Y-26453D01*
X90516Y-26277D01*
X90486Y-26247D01*
X90310Y-26129D01*
X90103Y-26088D01*
X88499Y-26088D01*
X88323Y-26123D01*
X88448Y-26071D01*
X88671Y-25849D01*
X88791Y-25558D01*
X88792Y-25243D01*
X88732Y-25099D01*
X88833Y-24999D01*
X88950Y-24823D01*
X88992Y-24616D01*
X88992Y-24183D01*
X88950Y-23976D01*
X88833Y-23800D01*
X88732Y-23700D01*
X88791Y-23558D01*
X88792Y-23243D01*
X88671Y-22951D01*
X88449Y-22728D01*
X88158Y-22608D01*
X87974Y-22607D01*
X87930Y-22563D01*
X87930Y-22466D01*
X87962Y-22453D01*
X88081Y-22334D01*
X88335Y-22334D01*
X88410Y-22259D01*
X88410Y-21801D01*
X88402Y-21801D01*
X88402Y-21798D01*
X88410Y-21798D01*
X88410Y-21790D01*
X88413Y-21790D01*
X88413Y-21798D01*
X88421Y-21798D01*
X88421Y-21801D01*
X88413Y-21801D01*
X88413Y-22259D01*
X88488Y-22334D01*
X88766Y-22334D01*
X88799Y-22321D01*
X88880Y-22402D01*
X88990Y-22448D01*
X89273Y-22448D01*
X89348Y-22373D01*
X89348Y-21751D01*
X89340Y-21751D01*
X89340Y-21748D01*
X89348Y-21748D01*
X89348Y-21126D01*
X89273Y-21051D01*
X89150Y-21051D01*
X89158Y-21033D01*
X89233Y-20983D01*
X89399Y-20817D01*
X89432Y-20817D01*
X89526Y-20778D01*
X89526Y-20784D01*
X89572Y-20894D01*
X89655Y-20977D01*
X89765Y-21023D01*
X89873Y-21023D01*
X89948Y-20948D01*
X89948Y-20860D01*
X89951Y-20868D01*
X89951Y-20948D01*
X89959Y-20956D01*
X89959Y-21044D01*
X89932Y-21071D01*
X89891Y-21169D01*
X89819Y-21097D01*
X89709Y-21051D01*
X89426Y-21051D01*
X89351Y-21126D01*
X89351Y-21748D01*
X89359Y-21748D01*
X89359Y-21751D01*
X89351Y-21751D01*
X89351Y-22373D01*
X89426Y-22448D01*
X89709Y-22448D01*
X89819Y-22402D01*
X89891Y-22330D01*
X89932Y-22428D01*
X90059Y-22555D01*
X90059Y-23387D01*
X90104Y-23613D01*
X90232Y-23805D01*
X92544Y-26117D01*
X92736Y-26245D01*
X92962Y-26290D01*
X93043Y-26290D01*
X92968Y-26365D01*
X92714Y-26365D01*
X92639Y-26440D01*
X92639Y-26898D01*
X92647Y-26898D01*
X92647Y-26901D01*
X92639Y-26901D01*
X92639Y-27359D01*
X92714Y-27434D01*
X92968Y-27434D01*
X93087Y-27553D01*
X93204Y-27601D01*
X93204Y-27601D01*
G37*
G54D34*
X93204Y-27601D02*
X93009Y-27601D01*
X92890Y-27601D01*
X92780Y-27647D01*
X92750Y-27677D01*
X92719Y-27647D01*
X92636Y-27612D01*
X92636Y-27359D01*
X92636Y-26901D01*
X92636Y-26898D01*
X92636Y-26440D01*
X92561Y-26365D01*
X92283Y-26365D01*
X92173Y-26411D01*
X92089Y-26494D01*
X92044Y-26604D01*
X92044Y-26723D01*
X92044Y-26823D01*
X92118Y-26898D01*
X92636Y-26898D01*
X92636Y-26901D01*
X92118Y-26901D01*
X92044Y-26976D01*
X92044Y-27076D01*
X92044Y-27195D01*
X92089Y-27305D01*
X92173Y-27388D01*
X92283Y-27434D01*
X92561Y-27434D01*
X92636Y-27359D01*
X92636Y-27612D01*
X92609Y-27601D01*
X92490Y-27601D01*
X92226Y-27601D01*
X92151Y-27676D01*
X92151Y-28198D01*
X92159Y-28198D01*
X92159Y-28201D01*
X92151Y-28201D01*
X92151Y-28209D01*
X92148Y-28209D01*
X92148Y-28201D01*
X92148Y-28198D01*
X92148Y-27676D01*
X92073Y-27601D01*
X91809Y-27601D01*
X91690Y-27601D01*
X91580Y-27647D01*
X91497Y-27730D01*
X91451Y-27840D01*
X91451Y-28123D01*
X91526Y-28198D01*
X92148Y-28198D01*
X92148Y-28201D01*
X91526Y-28201D01*
X91451Y-28276D01*
X91451Y-28559D01*
X91497Y-28669D01*
X91569Y-28741D01*
X91471Y-28782D01*
X91332Y-28921D01*
X91292Y-29019D01*
X91292Y-28300D01*
X91250Y-28092D01*
X91133Y-27916D01*
X90716Y-27499D01*
X90581Y-27409D01*
X90634Y-27330D01*
X90675Y-27122D01*
X90675Y-26660D01*
X90634Y-26453D01*
X90516Y-26277D01*
X90486Y-26247D01*
X90310Y-26129D01*
X90103Y-26088D01*
X88499Y-26088D01*
X88323Y-26123D01*
X88448Y-26071D01*
X88671Y-25849D01*
X88791Y-25558D01*
X88792Y-25243D01*
X88732Y-25099D01*
X88833Y-24999D01*
X88950Y-24823D01*
X88992Y-24616D01*
X88992Y-24183D01*
X88950Y-23976D01*
X88833Y-23800D01*
X88732Y-23700D01*
X88791Y-23558D01*
X88792Y-23243D01*
X88671Y-22951D01*
X88449Y-22728D01*
X88158Y-22608D01*
X87974Y-22607D01*
X87930Y-22563D01*
X87930Y-22466D01*
X87962Y-22453D01*
X88081Y-22334D01*
X88335Y-22334D01*
X88410Y-22259D01*
X88410Y-21801D01*
X88402Y-21801D01*
X88402Y-21798D01*
X88410Y-21798D01*
X88410Y-21790D01*
X88413Y-21790D01*
X88413Y-21798D01*
X88421Y-21798D01*
X88421Y-21801D01*
X88413Y-21801D01*
X88413Y-22259D01*
X88488Y-22334D01*
X88766Y-22334D01*
X88799Y-22321D01*
X88880Y-22402D01*
X88990Y-22448D01*
X89273Y-22448D01*
X89348Y-22373D01*
X89348Y-21751D01*
X89340Y-21751D01*
X89340Y-21748D01*
X89348Y-21748D01*
X89348Y-21126D01*
X89273Y-21051D01*
X89150Y-21051D01*
X89158Y-21033D01*
X89233Y-20983D01*
X89399Y-20817D01*
X89432Y-20817D01*
X89526Y-20778D01*
X89526Y-20784D01*
X89572Y-20894D01*
X89655Y-20977D01*
X89765Y-21023D01*
X89873Y-21023D01*
X89948Y-20948D01*
X89948Y-20860D01*
X89951Y-20868D01*
X89951Y-20948D01*
X89959Y-20956D01*
X89959Y-21044D01*
X89932Y-21071D01*
X89891Y-21169D01*
X89819Y-21097D01*
X89709Y-21051D01*
X89426Y-21051D01*
X89351Y-21126D01*
X89351Y-21748D01*
X89359Y-21748D01*
X89359Y-21751D01*
X89351Y-21751D01*
X89351Y-22373D01*
X89426Y-22448D01*
X89709Y-22448D01*
X89819Y-22402D01*
X89891Y-22330D01*
X89932Y-22428D01*
X90059Y-22555D01*
X90059Y-23387D01*
X90104Y-23613D01*
X90232Y-23805D01*
X92544Y-26117D01*
X92736Y-26245D01*
X92962Y-26290D01*
X93043Y-26290D01*
X92968Y-26365D01*
X92714Y-26365D01*
X92639Y-26440D01*
X92639Y-26898D01*
X92647Y-26898D01*
X92647Y-26901D01*
X92639Y-26901D01*
X92639Y-27359D01*
X92714Y-27434D01*
X92968Y-27434D01*
X93087Y-27553D01*
X93204Y-27601D01*
G54D10*
G36*
X94627Y-32207D02*
X93748Y-32207D01*
X93522Y-32252D01*
X93331Y-32380D01*
X93007Y-32704D01*
X89687Y-32704D01*
X89742Y-32649D01*
X89788Y-32539D01*
X89788Y-32420D01*
X89788Y-32201D01*
X89788Y-32048D01*
X89788Y-31829D01*
X89788Y-31710D01*
X89742Y-31600D01*
X89659Y-31517D01*
X89549Y-31471D01*
X89251Y-31471D01*
X89176Y-31546D01*
X89176Y-32123D01*
X89713Y-32123D01*
X89788Y-32048D01*
X89788Y-32201D01*
X89713Y-32126D01*
X89176Y-32126D01*
X89176Y-32134D01*
X89173Y-32134D01*
X89173Y-32126D01*
X89165Y-32126D01*
X89165Y-32123D01*
X89173Y-32123D01*
X89173Y-31546D01*
X89098Y-31471D01*
X88889Y-31471D01*
X88911Y-31362D01*
X88923Y-31350D01*
X88939Y-31312D01*
X88997Y-31370D01*
X89157Y-31370D01*
X89267Y-31324D01*
X89350Y-31241D01*
X89396Y-31131D01*
X89396Y-31012D01*
X89396Y-30951D01*
X89321Y-30876D01*
X88998Y-30876D01*
X88998Y-30873D01*
X89321Y-30873D01*
X89396Y-30798D01*
X89396Y-30737D01*
X89396Y-30618D01*
X89350Y-30508D01*
X89303Y-30461D01*
X89490Y-30461D01*
X90081Y-30461D01*
X90262Y-30386D01*
X90266Y-30382D01*
X90366Y-30533D01*
X91482Y-31649D01*
X91482Y-31682D01*
X91584Y-31927D01*
X91771Y-32115D01*
X92016Y-32217D01*
X92282Y-32217D01*
X92527Y-32115D01*
X92715Y-31928D01*
X92817Y-31683D01*
X92817Y-31603D01*
X93006Y-31603D01*
X93124Y-31553D01*
X93243Y-31603D01*
X93439Y-31603D01*
X93901Y-31603D01*
X93901Y-31848D01*
X94267Y-31848D01*
X94417Y-31998D01*
X94627Y-32207D01*
X94627Y-32207D01*
G37*
G54D34*
X94627Y-32207D02*
X93748Y-32207D01*
X93522Y-32252D01*
X93331Y-32380D01*
X93007Y-32704D01*
X89687Y-32704D01*
X89742Y-32649D01*
X89788Y-32539D01*
X89788Y-32420D01*
X89788Y-32201D01*
X89788Y-32048D01*
X89788Y-31829D01*
X89788Y-31710D01*
X89742Y-31600D01*
X89659Y-31517D01*
X89549Y-31471D01*
X89251Y-31471D01*
X89176Y-31546D01*
X89176Y-32123D01*
X89713Y-32123D01*
X89788Y-32048D01*
X89788Y-32201D01*
X89713Y-32126D01*
X89176Y-32126D01*
X89176Y-32134D01*
X89173Y-32134D01*
X89173Y-32126D01*
X89165Y-32126D01*
X89165Y-32123D01*
X89173Y-32123D01*
X89173Y-31546D01*
X89098Y-31471D01*
X88889Y-31471D01*
X88911Y-31362D01*
X88923Y-31350D01*
X88939Y-31312D01*
X88997Y-31370D01*
X89157Y-31370D01*
X89267Y-31324D01*
X89350Y-31241D01*
X89396Y-31131D01*
X89396Y-31012D01*
X89396Y-30951D01*
X89321Y-30876D01*
X88998Y-30876D01*
X88998Y-30873D01*
X89321Y-30873D01*
X89396Y-30798D01*
X89396Y-30737D01*
X89396Y-30618D01*
X89350Y-30508D01*
X89303Y-30461D01*
X89490Y-30461D01*
X90081Y-30461D01*
X90262Y-30386D01*
X90266Y-30382D01*
X90366Y-30533D01*
X91482Y-31649D01*
X91482Y-31682D01*
X91584Y-31927D01*
X91771Y-32115D01*
X92016Y-32217D01*
X92282Y-32217D01*
X92527Y-32115D01*
X92715Y-31928D01*
X92817Y-31683D01*
X92817Y-31603D01*
X93006Y-31603D01*
X93124Y-31553D01*
X93243Y-31603D01*
X93439Y-31603D01*
X93901Y-31603D01*
X93901Y-31848D01*
X94267Y-31848D01*
X94417Y-31998D01*
X94627Y-32207D01*
G54D10*
G36*
X94901Y-15251D02*
X94840Y-15251D01*
X94576Y-15251D01*
X94501Y-15326D01*
X94501Y-15848D01*
X94509Y-15848D01*
X94509Y-15851D01*
X94501Y-15851D01*
X94501Y-15859D01*
X94498Y-15859D01*
X94498Y-15851D01*
X94498Y-15848D01*
X94498Y-15326D01*
X94423Y-15251D01*
X94159Y-15251D01*
X94040Y-15251D01*
X93930Y-15297D01*
X93847Y-15380D01*
X93801Y-15490D01*
X93801Y-15773D01*
X93876Y-15848D01*
X94498Y-15848D01*
X94498Y-15851D01*
X93876Y-15851D01*
X93801Y-15926D01*
X93801Y-16209D01*
X93847Y-16319D01*
X93919Y-16391D01*
X93821Y-16432D01*
X93682Y-16571D01*
X93607Y-16752D01*
X93607Y-16947D01*
X93607Y-17272D01*
X93292Y-16956D01*
X93292Y-16843D01*
X93171Y-16551D01*
X93120Y-16500D01*
X93171Y-16449D01*
X93291Y-16158D01*
X93292Y-15843D01*
X93171Y-15551D01*
X92980Y-15359D01*
X92994Y-15357D01*
X93093Y-15140D01*
X93102Y-14902D01*
X93079Y-14840D01*
X94901Y-14840D01*
X94901Y-15251D01*
X94901Y-15251D01*
G37*
G54D34*
X94901Y-15251D02*
X94840Y-15251D01*
X94576Y-15251D01*
X94501Y-15326D01*
X94501Y-15848D01*
X94509Y-15848D01*
X94509Y-15851D01*
X94501Y-15851D01*
X94501Y-15859D01*
X94498Y-15859D01*
X94498Y-15851D01*
X94498Y-15848D01*
X94498Y-15326D01*
X94423Y-15251D01*
X94159Y-15251D01*
X94040Y-15251D01*
X93930Y-15297D01*
X93847Y-15380D01*
X93801Y-15490D01*
X93801Y-15773D01*
X93876Y-15848D01*
X94498Y-15848D01*
X94498Y-15851D01*
X93876Y-15851D01*
X93801Y-15926D01*
X93801Y-16209D01*
X93847Y-16319D01*
X93919Y-16391D01*
X93821Y-16432D01*
X93682Y-16571D01*
X93607Y-16752D01*
X93607Y-16947D01*
X93607Y-17272D01*
X93292Y-16956D01*
X93292Y-16843D01*
X93171Y-16551D01*
X93120Y-16500D01*
X93171Y-16449D01*
X93291Y-16158D01*
X93292Y-15843D01*
X93171Y-15551D01*
X92980Y-15359D01*
X92994Y-15357D01*
X93093Y-15140D01*
X93102Y-14902D01*
X93079Y-14840D01*
X94901Y-14840D01*
X94901Y-15251D01*
G54D10*
G36*
X95923Y-19906D02*
X95889Y-19940D01*
X95889Y-20398D01*
X95897Y-20398D01*
X95897Y-20401D01*
X95889Y-20401D01*
X95889Y-20409D01*
X95886Y-20409D01*
X95886Y-20401D01*
X95886Y-20398D01*
X95886Y-19940D01*
X95811Y-19865D01*
X95533Y-19865D01*
X95423Y-19911D01*
X95339Y-19994D01*
X95294Y-20104D01*
X95294Y-20223D01*
X95294Y-20323D01*
X95368Y-20398D01*
X95886Y-20398D01*
X95886Y-20401D01*
X95368Y-20401D01*
X95294Y-20476D01*
X95294Y-20576D01*
X95294Y-20661D01*
X94333Y-20661D01*
X94126Y-20702D01*
X93950Y-20819D01*
X93906Y-20863D01*
X93906Y-17902D01*
X94002Y-17942D01*
X94197Y-17942D01*
X94901Y-17942D01*
X94901Y-19848D01*
X95884Y-19848D01*
X95923Y-19906D01*
X95923Y-19906D01*
G37*
G54D34*
X95923Y-19906D02*
X95889Y-19940D01*
X95889Y-20398D01*
X95897Y-20398D01*
X95897Y-20401D01*
X95889Y-20401D01*
X95889Y-20409D01*
X95886Y-20409D01*
X95886Y-20401D01*
X95886Y-20398D01*
X95886Y-19940D01*
X95811Y-19865D01*
X95533Y-19865D01*
X95423Y-19911D01*
X95339Y-19994D01*
X95294Y-20104D01*
X95294Y-20223D01*
X95294Y-20323D01*
X95368Y-20398D01*
X95886Y-20398D01*
X95886Y-20401D01*
X95368Y-20401D01*
X95294Y-20476D01*
X95294Y-20576D01*
X95294Y-20661D01*
X94333Y-20661D01*
X94126Y-20702D01*
X93950Y-20819D01*
X93906Y-20863D01*
X93906Y-17902D01*
X94002Y-17942D01*
X94197Y-17942D01*
X94901Y-17942D01*
X94901Y-19848D01*
X95884Y-19848D01*
X95923Y-19906D01*
G54D10*
G36*
X96331Y-21745D02*
X96311Y-21793D01*
X96209Y-21751D01*
X96090Y-21751D01*
X95826Y-21751D01*
X95751Y-21826D01*
X95751Y-22348D01*
X95759Y-22348D01*
X95759Y-22351D01*
X95751Y-22351D01*
X95751Y-22359D01*
X95748Y-22359D01*
X95748Y-22351D01*
X95126Y-22351D01*
X95125Y-22352D01*
X95123Y-22351D01*
X94501Y-22351D01*
X94501Y-22359D01*
X94498Y-22359D01*
X94498Y-22351D01*
X94492Y-22351D01*
X94492Y-22348D01*
X94498Y-22348D01*
X94498Y-22340D01*
X94501Y-22340D01*
X94501Y-22348D01*
X95123Y-22348D01*
X95125Y-22347D01*
X95126Y-22348D01*
X95748Y-22348D01*
X95748Y-21826D01*
X95673Y-21751D01*
X95409Y-21751D01*
X95290Y-21751D01*
X95180Y-21797D01*
X95125Y-21852D01*
X95069Y-21797D01*
X94959Y-21751D01*
X94840Y-21751D01*
X94576Y-21751D01*
X94501Y-21826D01*
X94501Y-21801D01*
X94558Y-21745D01*
X96331Y-21745D01*
X96331Y-21745D01*
G37*
G54D34*
X96331Y-21745D02*
X96311Y-21793D01*
X96209Y-21751D01*
X96090Y-21751D01*
X95826Y-21751D01*
X95751Y-21826D01*
X95751Y-22348D01*
X95759Y-22348D01*
X95759Y-22351D01*
X95751Y-22351D01*
X95751Y-22359D01*
X95748Y-22359D01*
X95748Y-22351D01*
X95126Y-22351D01*
X95125Y-22352D01*
X95123Y-22351D01*
X94501Y-22351D01*
X94501Y-22359D01*
X94498Y-22359D01*
X94498Y-22351D01*
X94492Y-22351D01*
X94492Y-22348D01*
X94498Y-22348D01*
X94498Y-22340D01*
X94501Y-22340D01*
X94501Y-22348D01*
X95123Y-22348D01*
X95125Y-22347D01*
X95126Y-22348D01*
X95748Y-22348D01*
X95748Y-21826D01*
X95673Y-21751D01*
X95409Y-21751D01*
X95290Y-21751D01*
X95180Y-21797D01*
X95125Y-21852D01*
X95069Y-21797D01*
X94959Y-21751D01*
X94840Y-21751D01*
X94576Y-21751D01*
X94501Y-21826D01*
X94501Y-21801D01*
X94558Y-21745D01*
X96331Y-21745D01*
G54D10*
G36*
X103901Y-23000D02*
X101478Y-25423D01*
X101383Y-25359D01*
X101082Y-25299D01*
X100449Y-25299D01*
X100148Y-25359D01*
X99892Y-25530D01*
X99722Y-25785D01*
X99662Y-26087D01*
X99722Y-26388D01*
X99848Y-26577D01*
X99190Y-25919D01*
X99190Y-21493D01*
X99366Y-21567D01*
X99632Y-21567D01*
X99877Y-21465D01*
X100065Y-21278D01*
X100144Y-21086D01*
X101191Y-22133D01*
X101367Y-22250D01*
X101575Y-22292D01*
X103319Y-22292D01*
X103361Y-22354D01*
X103631Y-22535D01*
X103901Y-22588D01*
X103901Y-23000D01*
X103901Y-23000D01*
G37*
G54D34*
X103901Y-23000D02*
X101478Y-25423D01*
X101383Y-25359D01*
X101082Y-25299D01*
X100449Y-25299D01*
X100148Y-25359D01*
X99892Y-25530D01*
X99722Y-25785D01*
X99662Y-26087D01*
X99722Y-26388D01*
X99848Y-26577D01*
X99190Y-25919D01*
X99190Y-21493D01*
X99366Y-21567D01*
X99632Y-21567D01*
X99877Y-21465D01*
X100065Y-21278D01*
X100144Y-21086D01*
X101191Y-22133D01*
X101367Y-22250D01*
X101575Y-22292D01*
X103319Y-22292D01*
X103361Y-22354D01*
X103631Y-22535D01*
X103901Y-22588D01*
X103901Y-23000D01*
G54D10*
G36*
X104633Y-15734D02*
X104507Y-15759D01*
X104331Y-15876D01*
X104247Y-15960D01*
X103950Y-15901D01*
X103631Y-15964D01*
X103361Y-16145D01*
X103181Y-16415D01*
X103117Y-16733D01*
X103117Y-16766D01*
X103126Y-16807D01*
X102876Y-17056D01*
X102759Y-17232D01*
X102717Y-17440D01*
X102717Y-18182D01*
X102467Y-18182D01*
X102467Y-18177D01*
X102467Y-17727D01*
X102392Y-17546D01*
X102253Y-17407D01*
X102072Y-17332D01*
X101938Y-17332D01*
X101939Y-17213D01*
X101834Y-16960D01*
X101640Y-16766D01*
X101387Y-16661D01*
X101113Y-16660D01*
X100860Y-16765D01*
X100666Y-16959D01*
X100561Y-17212D01*
X100560Y-17486D01*
X100646Y-17693D01*
X100632Y-17727D01*
X100632Y-17922D01*
X100632Y-18182D01*
X100152Y-18182D01*
X100098Y-18205D01*
X99928Y-18034D01*
X99683Y-17932D01*
X99417Y-17932D01*
X99172Y-18034D01*
X98984Y-18221D01*
X98969Y-18257D01*
X98902Y-18257D01*
X98234Y-18257D01*
X98250Y-18233D01*
X98292Y-18025D01*
X98292Y-16900D01*
X98292Y-15950D01*
X98250Y-15742D01*
X98133Y-15566D01*
X98092Y-15525D01*
X98092Y-15302D01*
X98017Y-15121D01*
X97878Y-14982D01*
X97697Y-14907D01*
X97677Y-14907D01*
X97639Y-14850D01*
X97724Y-14764D01*
X97799Y-14583D01*
X97799Y-14388D01*
X97799Y-14348D01*
X103851Y-14348D01*
X103766Y-14553D01*
X103765Y-14944D01*
X103915Y-15306D01*
X104191Y-15583D01*
X104553Y-15733D01*
X104633Y-15734D01*
X104633Y-15734D01*
G37*
G54D34*
X104633Y-15734D02*
X104507Y-15759D01*
X104331Y-15876D01*
X104247Y-15960D01*
X103950Y-15901D01*
X103631Y-15964D01*
X103361Y-16145D01*
X103181Y-16415D01*
X103117Y-16733D01*
X103117Y-16766D01*
X103126Y-16807D01*
X102876Y-17056D01*
X102759Y-17232D01*
X102717Y-17440D01*
X102717Y-18182D01*
X102467Y-18182D01*
X102467Y-18177D01*
X102467Y-17727D01*
X102392Y-17546D01*
X102253Y-17407D01*
X102072Y-17332D01*
X101938Y-17332D01*
X101939Y-17213D01*
X101834Y-16960D01*
X101640Y-16766D01*
X101387Y-16661D01*
X101113Y-16660D01*
X100860Y-16765D01*
X100666Y-16959D01*
X100561Y-17212D01*
X100560Y-17486D01*
X100646Y-17693D01*
X100632Y-17727D01*
X100632Y-17922D01*
X100632Y-18182D01*
X100152Y-18182D01*
X100098Y-18205D01*
X99928Y-18034D01*
X99683Y-17932D01*
X99417Y-17932D01*
X99172Y-18034D01*
X98984Y-18221D01*
X98969Y-18257D01*
X98902Y-18257D01*
X98234Y-18257D01*
X98250Y-18233D01*
X98292Y-18025D01*
X98292Y-16900D01*
X98292Y-15950D01*
X98250Y-15742D01*
X98133Y-15566D01*
X98092Y-15525D01*
X98092Y-15302D01*
X98017Y-15121D01*
X97878Y-14982D01*
X97697Y-14907D01*
X97677Y-14907D01*
X97639Y-14850D01*
X97724Y-14764D01*
X97799Y-14583D01*
X97799Y-14388D01*
X97799Y-14348D01*
X103851Y-14348D01*
X103766Y-14553D01*
X103765Y-14944D01*
X103915Y-15306D01*
X104191Y-15583D01*
X104553Y-15733D01*
X104633Y-15734D01*
G54D10*
G36*
X99854Y-29587D02*
X99722Y-29785D01*
X99662Y-30087D01*
X99722Y-30388D01*
X99794Y-30496D01*
X96917Y-30496D01*
X96240Y-29819D01*
X96417Y-29642D01*
X96545Y-29450D01*
X96590Y-29225D01*
X96590Y-28725D01*
X96545Y-28499D01*
X96417Y-28307D01*
X96194Y-28083D01*
X96117Y-28032D01*
X96117Y-27702D01*
X96042Y-27521D01*
X95903Y-27382D01*
X95722Y-27307D01*
X95599Y-27307D01*
X94808Y-26516D01*
X94632Y-26399D01*
X94598Y-26392D01*
X94598Y-26290D01*
X96502Y-26290D01*
X96728Y-26245D01*
X96920Y-26117D01*
X96994Y-26043D01*
X97162Y-26549D01*
X98677Y-28316D01*
X99209Y-28848D01*
X99397Y-28848D01*
X99668Y-29119D01*
X99722Y-29388D01*
X99854Y-29587D01*
X99854Y-29587D01*
G37*
G54D34*
X99854Y-29587D02*
X99722Y-29785D01*
X99662Y-30087D01*
X99722Y-30388D01*
X99794Y-30496D01*
X96917Y-30496D01*
X96240Y-29819D01*
X96417Y-29642D01*
X96545Y-29450D01*
X96590Y-29225D01*
X96590Y-28725D01*
X96545Y-28499D01*
X96417Y-28307D01*
X96194Y-28083D01*
X96117Y-28032D01*
X96117Y-27702D01*
X96042Y-27521D01*
X95903Y-27382D01*
X95722Y-27307D01*
X95599Y-27307D01*
X94808Y-26516D01*
X94632Y-26399D01*
X94598Y-26392D01*
X94598Y-26290D01*
X96502Y-26290D01*
X96728Y-26245D01*
X96920Y-26117D01*
X96994Y-26043D01*
X97162Y-26549D01*
X98677Y-28316D01*
X99209Y-28848D01*
X99397Y-28848D01*
X99668Y-29119D01*
X99722Y-29388D01*
X99854Y-29587D01*
M02*
