%FSLAX34Y34*%
G04 Gerber Fmt 3.4, Leading zero omitted, Abs format*
G04 (created by PCBNEW (2014-02-24 BZR 4719)-product) date Thu 06 Mar 2014 01:02:44 GMT*
%MOIN*%
G01*
G70*
G90*
G04 APERTURE LIST*
%ADD10C,0.003937*%
%ADD11C,0.009843*%
%ADD12R,0.068000X0.068000*%
%ADD13O,0.068000X0.068000*%
%ADD14O,0.118100X0.059100*%
%ADD15C,0.060000*%
%ADD16C,0.150000*%
%ADD17C,0.140000*%
%ADD18C,0.039370*%
%ADD19C,0.035000*%
%ADD20C,0.019685*%
%ADD21C,0.010000*%
G04 APERTURE END LIST*
G54D10*
G54D11*
X102173Y-24119D02*
X102651Y-24119D01*
X102707Y-24091D01*
X102735Y-24062D01*
X102763Y-24006D01*
X102763Y-23922D01*
X102735Y-23866D01*
X102538Y-24119D02*
X102566Y-24062D01*
X102566Y-23950D01*
X102538Y-23894D01*
X102510Y-23866D01*
X102454Y-23838D01*
X102285Y-23838D01*
X102229Y-23866D01*
X102201Y-23894D01*
X102173Y-23950D01*
X102173Y-24062D01*
X102201Y-24119D01*
X102566Y-24400D02*
X102173Y-24400D01*
X101976Y-24400D02*
X102004Y-24372D01*
X102032Y-24400D01*
X102004Y-24428D01*
X101976Y-24400D01*
X102032Y-24400D01*
X102173Y-24597D02*
X102173Y-24822D01*
X101976Y-24681D02*
X102482Y-24681D01*
X102538Y-24709D01*
X102566Y-24766D01*
X102566Y-24822D01*
X102566Y-25019D02*
X101976Y-25019D01*
X102566Y-25272D02*
X102257Y-25272D01*
X102201Y-25244D01*
X102173Y-25187D01*
X102173Y-25103D01*
X102201Y-25047D01*
X102229Y-25019D01*
X102173Y-25806D02*
X102566Y-25806D01*
X102173Y-25553D02*
X102482Y-25553D01*
X102538Y-25581D01*
X102566Y-25637D01*
X102566Y-25722D01*
X102538Y-25778D01*
X102510Y-25806D01*
X102566Y-26087D02*
X101976Y-26087D01*
X102201Y-26087D02*
X102173Y-26143D01*
X102173Y-26256D01*
X102201Y-26312D01*
X102229Y-26340D01*
X102285Y-26368D01*
X102454Y-26368D01*
X102510Y-26340D01*
X102538Y-26312D01*
X102566Y-26256D01*
X102566Y-26143D01*
X102538Y-26087D01*
X101948Y-27043D02*
X102707Y-26537D01*
X102566Y-27240D02*
X102173Y-27240D01*
X102285Y-27240D02*
X102229Y-27268D01*
X102201Y-27296D01*
X102173Y-27353D01*
X102173Y-27409D01*
X102566Y-27690D02*
X102538Y-27634D01*
X102510Y-27606D01*
X102454Y-27578D01*
X102285Y-27578D01*
X102229Y-27606D01*
X102201Y-27634D01*
X102173Y-27690D01*
X102173Y-27775D01*
X102201Y-27831D01*
X102229Y-27859D01*
X102285Y-27887D01*
X102454Y-27887D01*
X102510Y-27859D01*
X102538Y-27831D01*
X102566Y-27775D01*
X102566Y-27690D01*
X102566Y-28140D02*
X101976Y-28140D01*
X102201Y-28140D02*
X102173Y-28196D01*
X102173Y-28309D01*
X102201Y-28365D01*
X102229Y-28393D01*
X102285Y-28421D01*
X102454Y-28421D01*
X102510Y-28393D01*
X102538Y-28365D01*
X102566Y-28309D01*
X102566Y-28196D01*
X102538Y-28140D01*
X102566Y-28759D02*
X102538Y-28703D01*
X102510Y-28674D01*
X102454Y-28646D01*
X102285Y-28646D01*
X102229Y-28674D01*
X102201Y-28703D01*
X102173Y-28759D01*
X102173Y-28843D01*
X102201Y-28899D01*
X102229Y-28928D01*
X102285Y-28956D01*
X102454Y-28956D01*
X102510Y-28928D01*
X102538Y-28899D01*
X102566Y-28843D01*
X102566Y-28759D01*
X102173Y-29124D02*
X102173Y-29349D01*
X101976Y-29209D02*
X102482Y-29209D01*
X102538Y-29237D01*
X102566Y-29293D01*
X102566Y-29349D01*
X102341Y-29546D02*
X102341Y-29996D01*
X102566Y-30530D02*
X102257Y-30530D01*
X102201Y-30502D01*
X102173Y-30446D01*
X102173Y-30334D01*
X102201Y-30277D01*
X102538Y-30530D02*
X102566Y-30474D01*
X102566Y-30334D01*
X102538Y-30277D01*
X102482Y-30249D01*
X102426Y-30249D01*
X102370Y-30277D01*
X102341Y-30334D01*
X102341Y-30474D01*
X102313Y-30530D01*
X102566Y-30812D02*
X102173Y-30812D01*
X102285Y-30812D02*
X102229Y-30840D01*
X102201Y-30868D01*
X102173Y-30924D01*
X102173Y-30980D01*
X102566Y-31177D02*
X102173Y-31177D01*
X102229Y-31177D02*
X102201Y-31205D01*
X102173Y-31262D01*
X102173Y-31346D01*
X102201Y-31402D01*
X102257Y-31430D01*
X102566Y-31430D01*
X102257Y-31430D02*
X102201Y-31458D01*
X102173Y-31515D01*
X102173Y-31599D01*
X102201Y-31655D01*
X102257Y-31683D01*
X102566Y-31683D01*
X102173Y-31908D02*
X102566Y-32049D01*
X102173Y-32190D02*
X102566Y-32049D01*
X102707Y-31993D01*
X102735Y-31965D01*
X102763Y-31908D01*
X102873Y-23275D02*
X103632Y-22769D01*
X103492Y-23556D02*
X103464Y-23500D01*
X103407Y-23472D01*
X102901Y-23472D01*
X103492Y-24034D02*
X103182Y-24034D01*
X103126Y-24006D01*
X103098Y-23950D01*
X103098Y-23838D01*
X103126Y-23781D01*
X103464Y-24034D02*
X103492Y-23978D01*
X103492Y-23838D01*
X103464Y-23781D01*
X103407Y-23753D01*
X103351Y-23753D01*
X103295Y-23781D01*
X103267Y-23838D01*
X103267Y-23978D01*
X103239Y-24034D01*
X103464Y-24287D02*
X103492Y-24344D01*
X103492Y-24456D01*
X103464Y-24512D01*
X103407Y-24541D01*
X103379Y-24541D01*
X103323Y-24512D01*
X103295Y-24456D01*
X103295Y-24372D01*
X103267Y-24316D01*
X103210Y-24287D01*
X103182Y-24287D01*
X103126Y-24316D01*
X103098Y-24372D01*
X103098Y-24456D01*
X103126Y-24512D01*
X103464Y-25019D02*
X103492Y-24962D01*
X103492Y-24850D01*
X103464Y-24794D01*
X103407Y-24766D01*
X103182Y-24766D01*
X103126Y-24794D01*
X103098Y-24850D01*
X103098Y-24962D01*
X103126Y-25019D01*
X103182Y-25047D01*
X103239Y-25047D01*
X103295Y-24766D01*
X103492Y-25300D02*
X103098Y-25300D01*
X103210Y-25300D02*
X103154Y-25328D01*
X103126Y-25356D01*
X103098Y-25412D01*
X103098Y-25469D01*
X103267Y-25665D02*
X103267Y-26115D01*
X103492Y-26650D02*
X102901Y-26650D01*
X103464Y-26650D02*
X103492Y-26593D01*
X103492Y-26481D01*
X103464Y-26425D01*
X103435Y-26397D01*
X103379Y-26368D01*
X103210Y-26368D01*
X103154Y-26397D01*
X103126Y-26425D01*
X103098Y-26481D01*
X103098Y-26593D01*
X103126Y-26650D01*
X103492Y-27184D02*
X103182Y-27184D01*
X103126Y-27156D01*
X103098Y-27100D01*
X103098Y-26987D01*
X103126Y-26931D01*
X103464Y-27184D02*
X103492Y-27128D01*
X103492Y-26987D01*
X103464Y-26931D01*
X103407Y-26903D01*
X103351Y-26903D01*
X103295Y-26931D01*
X103267Y-26987D01*
X103267Y-27128D01*
X103239Y-27184D01*
X103464Y-27718D02*
X103492Y-27662D01*
X103492Y-27550D01*
X103464Y-27493D01*
X103435Y-27465D01*
X103379Y-27437D01*
X103210Y-27437D01*
X103154Y-27465D01*
X103126Y-27493D01*
X103098Y-27550D01*
X103098Y-27662D01*
X103126Y-27718D01*
X103267Y-27971D02*
X103267Y-28421D01*
X103492Y-28956D02*
X102901Y-28956D01*
X103464Y-28956D02*
X103492Y-28899D01*
X103492Y-28787D01*
X103464Y-28731D01*
X103435Y-28703D01*
X103379Y-28674D01*
X103210Y-28674D01*
X103154Y-28703D01*
X103126Y-28731D01*
X103098Y-28787D01*
X103098Y-28899D01*
X103126Y-28956D01*
X103492Y-29237D02*
X103098Y-29237D01*
X102901Y-29237D02*
X102929Y-29209D01*
X102957Y-29237D01*
X102929Y-29265D01*
X102901Y-29237D01*
X102957Y-29237D01*
X103098Y-29434D02*
X103098Y-29659D01*
X103492Y-29518D02*
X102985Y-29518D01*
X102929Y-29546D01*
X102901Y-29602D01*
X102901Y-29659D01*
X103098Y-29771D02*
X103098Y-29996D01*
X103492Y-29856D02*
X102985Y-29856D01*
X102929Y-29884D01*
X102901Y-29940D01*
X102901Y-29996D01*
X103267Y-30193D02*
X103267Y-30643D01*
X103492Y-31177D02*
X102901Y-31177D01*
X103464Y-31177D02*
X103492Y-31121D01*
X103492Y-31008D01*
X103464Y-30952D01*
X103435Y-30924D01*
X103379Y-30896D01*
X103210Y-30896D01*
X103154Y-30924D01*
X103126Y-30952D01*
X103098Y-31008D01*
X103098Y-31121D01*
X103126Y-31177D01*
X103492Y-31458D02*
X103098Y-31458D01*
X103210Y-31458D02*
X103154Y-31487D01*
X103126Y-31515D01*
X103098Y-31571D01*
X103098Y-31627D01*
X103492Y-31824D02*
X103098Y-31824D01*
X102901Y-31824D02*
X102929Y-31796D01*
X102957Y-31824D01*
X102929Y-31852D01*
X102901Y-31824D01*
X102957Y-31824D01*
X103098Y-32049D02*
X103492Y-32190D01*
X103098Y-32330D01*
X103464Y-32780D02*
X103492Y-32724D01*
X103492Y-32611D01*
X103464Y-32555D01*
X103407Y-32527D01*
X103182Y-32527D01*
X103126Y-32555D01*
X103098Y-32611D01*
X103098Y-32724D01*
X103126Y-32780D01*
X103182Y-32808D01*
X103239Y-32808D01*
X103295Y-32527D01*
X103492Y-33061D02*
X103098Y-33061D01*
X103210Y-33061D02*
X103154Y-33089D01*
X103126Y-33118D01*
X103098Y-33174D01*
X103098Y-33230D01*
X104108Y-27198D02*
X104136Y-27282D01*
X104164Y-27311D01*
X104220Y-27339D01*
X104304Y-27339D01*
X104361Y-27311D01*
X104389Y-27282D01*
X104417Y-27226D01*
X104417Y-27001D01*
X103826Y-27001D01*
X103826Y-27198D01*
X103854Y-27254D01*
X103883Y-27282D01*
X103939Y-27311D01*
X103995Y-27311D01*
X104051Y-27282D01*
X104079Y-27254D01*
X104108Y-27198D01*
X104108Y-27001D01*
X104248Y-27564D02*
X104248Y-27845D01*
X104417Y-27507D02*
X103826Y-27704D01*
X104417Y-27901D01*
X104361Y-28435D02*
X104389Y-28407D01*
X104417Y-28323D01*
X104417Y-28267D01*
X104389Y-28182D01*
X104332Y-28126D01*
X104276Y-28098D01*
X104164Y-28070D01*
X104079Y-28070D01*
X103967Y-28098D01*
X103911Y-28126D01*
X103854Y-28182D01*
X103826Y-28267D01*
X103826Y-28323D01*
X103854Y-28407D01*
X103883Y-28435D01*
X104417Y-28688D02*
X103826Y-28688D01*
X104417Y-29026D02*
X104079Y-28773D01*
X103826Y-29026D02*
X104164Y-28688D01*
G54D12*
X79250Y-18750D03*
G54D13*
X79250Y-19750D03*
X79250Y-20750D03*
X80250Y-20750D03*
X80250Y-19750D03*
X80250Y-18750D03*
G54D12*
X104950Y-21750D03*
G54D13*
X104950Y-20750D03*
X104950Y-19750D03*
X104950Y-18750D03*
X104950Y-17750D03*
X104950Y-16750D03*
X103950Y-16750D03*
X103950Y-17750D03*
X103950Y-18750D03*
X103950Y-19750D03*
X103950Y-20750D03*
X103950Y-21750D03*
G54D14*
X100766Y-26087D03*
X100766Y-27087D03*
X100766Y-29087D03*
X100766Y-30087D03*
X100766Y-31087D03*
G54D15*
X87800Y-15600D03*
X87800Y-16600D03*
X87800Y-14600D03*
X92500Y-16000D03*
X92500Y-15000D03*
X92500Y-17000D03*
X88000Y-24400D03*
X88000Y-23400D03*
X88000Y-25400D03*
X92500Y-23500D03*
X92500Y-24500D03*
X92500Y-22500D03*
G54D16*
X80375Y-29625D03*
G54D17*
X81625Y-28375D03*
G54D16*
X80375Y-27125D03*
X82875Y-29625D03*
X82875Y-27125D03*
G54D18*
X102000Y-20000D03*
G54D19*
X93850Y-33250D03*
X92150Y-31550D03*
G54D18*
X101250Y-18750D03*
G54D19*
X99550Y-18600D03*
X86125Y-18200D03*
X99500Y-20900D03*
X86175Y-21725D03*
G54D18*
X98700Y-32700D03*
X91900Y-26900D03*
X91300Y-28200D03*
X94500Y-21600D03*
X89200Y-32900D03*
X97850Y-19050D03*
X95150Y-19200D03*
X95150Y-20400D03*
X95750Y-21550D03*
X89350Y-22600D03*
X82975Y-22725D03*
X85225Y-16725D03*
X89350Y-16900D03*
X101250Y-17350D03*
X95750Y-15100D03*
X94500Y-15100D03*
G54D19*
X87000Y-30850D03*
X90350Y-29350D03*
X90400Y-28450D03*
X86850Y-28350D03*
X89300Y-19400D03*
X92500Y-19400D03*
X89300Y-20150D03*
X91900Y-20150D03*
G54D18*
X92050Y-19700D03*
X90950Y-19700D03*
G54D20*
X104950Y-22286D02*
X104950Y-21750D01*
X104786Y-22450D02*
X104950Y-22286D01*
X102650Y-22450D02*
X104786Y-22450D01*
X102000Y-21800D02*
X102650Y-22450D01*
X102000Y-20596D02*
X102000Y-21800D01*
X102000Y-20000D02*
X102000Y-20596D01*
G54D21*
X92150Y-31550D02*
X93850Y-33250D01*
G54D20*
X101250Y-18750D02*
X99500Y-17000D01*
X99500Y-17000D02*
X92500Y-17000D01*
G54D21*
X88099Y-14899D02*
X87800Y-14600D01*
X91625Y-18425D02*
X88099Y-14899D01*
X99375Y-18425D02*
X91625Y-18425D01*
X99550Y-18600D02*
X99375Y-18425D01*
X81800Y-18200D02*
X80250Y-19750D01*
X86125Y-18200D02*
X81800Y-18200D01*
X95000Y-25400D02*
X88000Y-25400D01*
X99500Y-20900D02*
X95000Y-25400D01*
X79589Y-20410D02*
X79250Y-20750D01*
X79740Y-20259D02*
X79589Y-20410D01*
X84709Y-20259D02*
X79740Y-20259D01*
X86175Y-21725D02*
X84709Y-20259D01*
G54D20*
X94575Y-21525D02*
X94550Y-21500D01*
X94500Y-21600D02*
X94575Y-21525D01*
X94550Y-21500D02*
X94600Y-21550D01*
X100766Y-30087D02*
X101061Y-30087D01*
G54D21*
X88850Y-30850D02*
X87000Y-30850D01*
X90350Y-29350D02*
X88850Y-30850D01*
X86950Y-28450D02*
X90400Y-28450D01*
X86850Y-28350D02*
X86950Y-28450D01*
X92325Y-19225D02*
X89474Y-19225D01*
X92500Y-19400D02*
X92325Y-19225D01*
X89474Y-19225D02*
X89300Y-19400D01*
X89300Y-20150D02*
X89750Y-20150D01*
X89750Y-20150D02*
X91900Y-20150D01*
G54D20*
X90950Y-19700D02*
X92050Y-19700D01*
G54D10*
G36*
X105730Y-33480D02*
X104862Y-33480D01*
X104862Y-33242D01*
X104896Y-33242D01*
X105169Y-33129D01*
X105378Y-32920D01*
X105491Y-32648D01*
X105492Y-32353D01*
X105379Y-32080D01*
X105170Y-31871D01*
X104898Y-31758D01*
X104862Y-31758D01*
X104862Y-22783D01*
X104898Y-22776D01*
X104920Y-22771D01*
X104920Y-22771D01*
X105033Y-22696D01*
X105196Y-22533D01*
X105196Y-22533D01*
X105196Y-22533D01*
X105271Y-22420D01*
X105287Y-22340D01*
X105339Y-22340D01*
X105431Y-22301D01*
X105501Y-22231D01*
X105540Y-22139D01*
X105540Y-22040D01*
X105540Y-21360D01*
X105501Y-21268D01*
X105431Y-21198D01*
X105371Y-21172D01*
X105495Y-20987D01*
X105540Y-20761D01*
X105540Y-20738D01*
X105495Y-20512D01*
X105367Y-20321D01*
X105260Y-20250D01*
X105367Y-20178D01*
X105495Y-19987D01*
X105540Y-19761D01*
X105540Y-19738D01*
X105495Y-19512D01*
X105367Y-19321D01*
X105260Y-19250D01*
X105425Y-19099D01*
X105522Y-18891D01*
X105522Y-18608D01*
X105425Y-18400D01*
X105260Y-18250D01*
X105425Y-18099D01*
X105522Y-17891D01*
X105475Y-17800D01*
X105000Y-17800D01*
X105000Y-18224D01*
X105000Y-18275D01*
X105000Y-18700D01*
X105475Y-18700D01*
X105522Y-18608D01*
X105522Y-18891D01*
X105475Y-18800D01*
X105000Y-18800D01*
X105000Y-18807D01*
X104900Y-18807D01*
X104900Y-18800D01*
X104892Y-18800D01*
X104892Y-18700D01*
X104900Y-18700D01*
X104900Y-18275D01*
X104900Y-18224D01*
X104900Y-17800D01*
X104892Y-17800D01*
X104892Y-17700D01*
X104900Y-17700D01*
X104900Y-17692D01*
X105000Y-17692D01*
X105000Y-17700D01*
X105475Y-17700D01*
X105522Y-17608D01*
X105425Y-17400D01*
X105260Y-17249D01*
X105367Y-17178D01*
X105495Y-16987D01*
X105540Y-16761D01*
X105540Y-16738D01*
X105495Y-16512D01*
X105492Y-16508D01*
X105492Y-14603D01*
X105379Y-14330D01*
X105170Y-14121D01*
X104898Y-14008D01*
X104603Y-14007D01*
X104330Y-14120D01*
X104121Y-14329D01*
X104008Y-14601D01*
X104007Y-14896D01*
X104120Y-15169D01*
X104329Y-15378D01*
X104601Y-15491D01*
X104896Y-15492D01*
X105169Y-15379D01*
X105378Y-15170D01*
X105491Y-14898D01*
X105492Y-14603D01*
X105492Y-16508D01*
X105367Y-16321D01*
X105175Y-16193D01*
X104950Y-16148D01*
X104724Y-16193D01*
X104532Y-16321D01*
X104450Y-16445D01*
X104367Y-16321D01*
X104175Y-16193D01*
X103950Y-16148D01*
X103724Y-16193D01*
X103532Y-16321D01*
X103404Y-16512D01*
X103360Y-16738D01*
X103360Y-16761D01*
X103404Y-16987D01*
X103532Y-17178D01*
X103639Y-17250D01*
X103532Y-17321D01*
X103404Y-17512D01*
X103360Y-17738D01*
X103360Y-17761D01*
X103404Y-17987D01*
X103532Y-18178D01*
X103639Y-18250D01*
X103532Y-18321D01*
X103404Y-18512D01*
X103360Y-18738D01*
X103360Y-18761D01*
X103404Y-18987D01*
X103532Y-19178D01*
X103639Y-19250D01*
X103532Y-19321D01*
X103404Y-19512D01*
X103360Y-19738D01*
X103360Y-19761D01*
X103404Y-19987D01*
X103532Y-20178D01*
X103639Y-20250D01*
X103532Y-20321D01*
X103404Y-20512D01*
X103360Y-20738D01*
X103360Y-20761D01*
X103404Y-20987D01*
X103532Y-21178D01*
X103639Y-21250D01*
X103532Y-21321D01*
X103404Y-21512D01*
X103360Y-21738D01*
X103360Y-21761D01*
X103404Y-21987D01*
X103481Y-22101D01*
X102794Y-22101D01*
X102348Y-21655D01*
X102348Y-20596D01*
X102348Y-20283D01*
X102378Y-20253D01*
X102446Y-20089D01*
X102446Y-19911D01*
X102379Y-19747D01*
X102253Y-19621D01*
X102089Y-19553D01*
X101911Y-19553D01*
X101747Y-19620D01*
X101696Y-19671D01*
X101696Y-18661D01*
X101629Y-18497D01*
X101503Y-18371D01*
X101339Y-18303D01*
X101295Y-18303D01*
X99746Y-16753D01*
X99633Y-16678D01*
X99611Y-16673D01*
X99500Y-16651D01*
X99499Y-16651D01*
X93054Y-16651D01*
X93054Y-15081D01*
X93043Y-14863D01*
X92981Y-14712D01*
X92885Y-14684D01*
X92815Y-14755D01*
X92815Y-14614D01*
X92787Y-14518D01*
X92581Y-14445D01*
X92363Y-14456D01*
X92212Y-14518D01*
X92184Y-14614D01*
X92500Y-14929D01*
X92815Y-14614D01*
X92815Y-14755D01*
X92570Y-15000D01*
X92885Y-15315D01*
X92981Y-15287D01*
X93054Y-15081D01*
X93054Y-16651D01*
X92929Y-16651D01*
X92811Y-16534D01*
X92730Y-16500D01*
X92811Y-16466D01*
X92965Y-16311D01*
X93049Y-16109D01*
X93050Y-15891D01*
X92966Y-15688D01*
X92811Y-15534D01*
X92736Y-15502D01*
X92787Y-15481D01*
X92815Y-15385D01*
X92500Y-15070D01*
X92429Y-15141D01*
X92429Y-15000D01*
X92114Y-14684D01*
X92018Y-14712D01*
X91945Y-14918D01*
X91956Y-15136D01*
X92018Y-15287D01*
X92114Y-15315D01*
X92429Y-15000D01*
X92429Y-15141D01*
X92184Y-15385D01*
X92212Y-15481D01*
X92267Y-15500D01*
X92188Y-15533D01*
X92034Y-15688D01*
X91950Y-15890D01*
X91949Y-16108D01*
X92033Y-16311D01*
X92188Y-16465D01*
X92269Y-16499D01*
X92188Y-16533D01*
X92034Y-16688D01*
X91950Y-16890D01*
X91949Y-17108D01*
X92033Y-17311D01*
X92188Y-17465D01*
X92390Y-17549D01*
X92608Y-17550D01*
X92811Y-17466D01*
X92929Y-17348D01*
X99355Y-17348D01*
X100803Y-18795D01*
X100803Y-18838D01*
X100870Y-19002D01*
X100996Y-19128D01*
X101160Y-19196D01*
X101338Y-19196D01*
X101502Y-19129D01*
X101628Y-19003D01*
X101696Y-18839D01*
X101696Y-18661D01*
X101696Y-19671D01*
X101621Y-19746D01*
X101553Y-19910D01*
X101553Y-20088D01*
X101620Y-20252D01*
X101651Y-20283D01*
X101651Y-20596D01*
X101651Y-21799D01*
X101651Y-21800D01*
X101673Y-21911D01*
X101678Y-21933D01*
X101753Y-22046D01*
X102121Y-22413D01*
X101488Y-22413D01*
X101488Y-25739D01*
X101463Y-25701D01*
X101286Y-25583D01*
X101077Y-25541D01*
X100454Y-25541D01*
X100245Y-25583D01*
X100068Y-25701D01*
X99975Y-25841D01*
X99975Y-18515D01*
X99910Y-18359D01*
X99791Y-18239D01*
X99634Y-18175D01*
X99530Y-18174D01*
X99489Y-18147D01*
X99375Y-18125D01*
X91749Y-18125D01*
X88345Y-14721D01*
X88349Y-14709D01*
X88350Y-14491D01*
X88266Y-14288D01*
X88111Y-14134D01*
X87909Y-14050D01*
X87691Y-14049D01*
X87488Y-14133D01*
X87334Y-14288D01*
X87250Y-14490D01*
X87249Y-14708D01*
X87333Y-14911D01*
X87488Y-15065D01*
X87569Y-15099D01*
X87488Y-15133D01*
X87334Y-15288D01*
X87250Y-15490D01*
X87249Y-15708D01*
X87333Y-15911D01*
X87488Y-16065D01*
X87569Y-16099D01*
X87488Y-16133D01*
X87334Y-16288D01*
X87250Y-16490D01*
X87249Y-16708D01*
X87333Y-16911D01*
X87488Y-17065D01*
X87690Y-17149D01*
X87908Y-17150D01*
X88111Y-17066D01*
X88265Y-16911D01*
X88349Y-16709D01*
X88350Y-16491D01*
X88266Y-16288D01*
X88111Y-16134D01*
X88030Y-16100D01*
X88111Y-16066D01*
X88265Y-15911D01*
X88349Y-15709D01*
X88350Y-15574D01*
X91412Y-18637D01*
X91510Y-18702D01*
X91510Y-18702D01*
X91625Y-18725D01*
X99141Y-18725D01*
X99189Y-18840D01*
X99308Y-18960D01*
X99465Y-19024D01*
X99634Y-19025D01*
X99790Y-18960D01*
X99910Y-18841D01*
X99974Y-18684D01*
X99975Y-18515D01*
X99975Y-25841D01*
X99950Y-25878D01*
X99925Y-26006D01*
X99925Y-20815D01*
X99860Y-20659D01*
X99741Y-20539D01*
X99584Y-20475D01*
X99415Y-20474D01*
X99259Y-20539D01*
X99139Y-20658D01*
X99075Y-20815D01*
X99074Y-20900D01*
X94875Y-25100D01*
X93054Y-25100D01*
X93054Y-24581D01*
X93050Y-24488D01*
X93050Y-23391D01*
X92966Y-23188D01*
X92811Y-23034D01*
X92730Y-23000D01*
X92811Y-22966D01*
X92965Y-22811D01*
X93049Y-22609D01*
X93050Y-22391D01*
X92966Y-22188D01*
X92925Y-22147D01*
X92925Y-19315D01*
X92860Y-19159D01*
X92741Y-19039D01*
X92584Y-18975D01*
X92480Y-18974D01*
X92439Y-18947D01*
X92325Y-18925D01*
X89474Y-18925D01*
X89360Y-18947D01*
X89319Y-18975D01*
X89319Y-18975D01*
X89215Y-18974D01*
X89059Y-19039D01*
X88939Y-19158D01*
X88875Y-19315D01*
X88874Y-19484D01*
X88939Y-19640D01*
X89058Y-19760D01*
X89094Y-19774D01*
X89059Y-19789D01*
X88939Y-19908D01*
X88875Y-20065D01*
X88874Y-20234D01*
X88939Y-20390D01*
X89058Y-20510D01*
X89215Y-20574D01*
X89384Y-20575D01*
X89540Y-20510D01*
X89601Y-20450D01*
X89750Y-20450D01*
X91598Y-20450D01*
X91658Y-20510D01*
X91815Y-20574D01*
X91984Y-20575D01*
X92140Y-20510D01*
X92260Y-20391D01*
X92324Y-20234D01*
X92325Y-20065D01*
X92322Y-20059D01*
X92428Y-19953D01*
X92481Y-19824D01*
X92584Y-19825D01*
X92740Y-19760D01*
X92860Y-19641D01*
X92924Y-19484D01*
X92925Y-19315D01*
X92925Y-22147D01*
X92811Y-22034D01*
X92609Y-21950D01*
X92391Y-21949D01*
X92188Y-22033D01*
X92034Y-22188D01*
X91950Y-22390D01*
X91949Y-22608D01*
X92033Y-22811D01*
X92188Y-22965D01*
X92269Y-22999D01*
X92188Y-23033D01*
X92034Y-23188D01*
X91950Y-23390D01*
X91949Y-23608D01*
X92033Y-23811D01*
X92188Y-23965D01*
X92263Y-23997D01*
X92212Y-24018D01*
X92184Y-24114D01*
X92500Y-24429D01*
X92815Y-24114D01*
X92787Y-24018D01*
X92732Y-23999D01*
X92811Y-23966D01*
X92965Y-23811D01*
X93049Y-23609D01*
X93050Y-23391D01*
X93050Y-24488D01*
X93043Y-24363D01*
X92981Y-24212D01*
X92885Y-24184D01*
X92570Y-24500D01*
X92885Y-24815D01*
X92981Y-24787D01*
X93054Y-24581D01*
X93054Y-25100D01*
X92815Y-25100D01*
X92815Y-24885D01*
X92500Y-24570D01*
X92429Y-24641D01*
X92429Y-24500D01*
X92114Y-24184D01*
X92018Y-24212D01*
X91945Y-24418D01*
X91956Y-24636D01*
X92018Y-24787D01*
X92114Y-24815D01*
X92429Y-24500D01*
X92429Y-24641D01*
X92184Y-24885D01*
X92212Y-24981D01*
X92418Y-25054D01*
X92636Y-25043D01*
X92787Y-24981D01*
X92815Y-24885D01*
X92815Y-25100D01*
X88471Y-25100D01*
X88466Y-25088D01*
X88311Y-24934D01*
X88230Y-24900D01*
X88311Y-24866D01*
X88465Y-24711D01*
X88549Y-24509D01*
X88550Y-24291D01*
X88466Y-24088D01*
X88311Y-23934D01*
X88230Y-23900D01*
X88311Y-23866D01*
X88465Y-23711D01*
X88549Y-23509D01*
X88550Y-23291D01*
X88466Y-23088D01*
X88311Y-22934D01*
X88109Y-22850D01*
X87891Y-22849D01*
X87688Y-22933D01*
X87534Y-23088D01*
X87450Y-23290D01*
X87449Y-23508D01*
X87533Y-23711D01*
X87688Y-23865D01*
X87769Y-23899D01*
X87688Y-23933D01*
X87534Y-24088D01*
X87450Y-24290D01*
X87449Y-24508D01*
X87533Y-24711D01*
X87688Y-24865D01*
X87769Y-24899D01*
X87688Y-24933D01*
X87534Y-25088D01*
X87450Y-25290D01*
X87449Y-25508D01*
X87533Y-25711D01*
X87688Y-25865D01*
X87890Y-25949D01*
X88108Y-25950D01*
X88311Y-25866D01*
X88465Y-25711D01*
X88470Y-25700D01*
X95000Y-25700D01*
X95000Y-25699D01*
X95114Y-25677D01*
X95114Y-25677D01*
X95212Y-25612D01*
X99499Y-21324D01*
X99584Y-21325D01*
X99740Y-21260D01*
X99860Y-21141D01*
X99924Y-20984D01*
X99925Y-20815D01*
X99925Y-26006D01*
X99909Y-26087D01*
X99950Y-26295D01*
X100068Y-26472D01*
X100245Y-26590D01*
X100250Y-26591D01*
X100216Y-26602D01*
X100049Y-26736D01*
X99947Y-26924D01*
X99942Y-26952D01*
X99990Y-27037D01*
X100716Y-27037D01*
X100716Y-27029D01*
X100816Y-27029D01*
X100816Y-27037D01*
X100823Y-27037D01*
X100823Y-27137D01*
X100816Y-27137D01*
X100816Y-27632D01*
X101111Y-27632D01*
X101315Y-27571D01*
X101482Y-27437D01*
X101488Y-27425D01*
X101488Y-28739D01*
X101463Y-28701D01*
X101286Y-28583D01*
X101077Y-28541D01*
X100716Y-28541D01*
X100716Y-27632D01*
X100716Y-27137D01*
X99990Y-27137D01*
X99942Y-27221D01*
X99947Y-27249D01*
X100049Y-27437D01*
X100216Y-27571D01*
X100421Y-27632D01*
X100716Y-27632D01*
X100716Y-28541D01*
X100454Y-28541D01*
X100245Y-28583D01*
X100068Y-28701D01*
X99950Y-28878D01*
X99909Y-29087D01*
X99950Y-29295D01*
X100068Y-29472D01*
X100245Y-29590D01*
X100250Y-29591D01*
X100216Y-29602D01*
X100049Y-29736D01*
X99947Y-29924D01*
X99942Y-29952D01*
X99990Y-30037D01*
X100716Y-30037D01*
X100716Y-30029D01*
X100816Y-30029D01*
X100816Y-30037D01*
X100823Y-30037D01*
X100823Y-30137D01*
X100816Y-30137D01*
X100816Y-30144D01*
X100716Y-30144D01*
X100716Y-30137D01*
X99990Y-30137D01*
X99942Y-30221D01*
X99947Y-30249D01*
X100049Y-30437D01*
X100216Y-30571D01*
X100250Y-30582D01*
X100245Y-30583D01*
X100068Y-30701D01*
X99950Y-30878D01*
X99909Y-31087D01*
X99950Y-31295D01*
X100068Y-31472D01*
X100245Y-31590D01*
X100454Y-31632D01*
X101077Y-31632D01*
X101286Y-31590D01*
X101463Y-31472D01*
X101488Y-31434D01*
X101488Y-33480D01*
X94214Y-33480D01*
X94274Y-33334D01*
X94275Y-33165D01*
X94210Y-33009D01*
X94091Y-32889D01*
X93934Y-32825D01*
X93849Y-32824D01*
X92574Y-31550D01*
X92575Y-31465D01*
X92510Y-31309D01*
X92391Y-31189D01*
X92234Y-31125D01*
X92065Y-31124D01*
X91909Y-31189D01*
X91789Y-31308D01*
X91725Y-31465D01*
X91724Y-31634D01*
X91789Y-31790D01*
X91908Y-31910D01*
X92065Y-31974D01*
X92150Y-31975D01*
X93425Y-33249D01*
X93424Y-33334D01*
X93485Y-33480D01*
X90825Y-33480D01*
X90825Y-28365D01*
X90760Y-28209D01*
X90641Y-28089D01*
X90484Y-28025D01*
X90315Y-28024D01*
X90159Y-28089D01*
X90098Y-28150D01*
X87227Y-28150D01*
X87210Y-28109D01*
X87091Y-27989D01*
X86934Y-27925D01*
X86765Y-27924D01*
X86609Y-27989D01*
X86600Y-27998D01*
X86600Y-21640D01*
X86535Y-21484D01*
X86416Y-21364D01*
X86259Y-21300D01*
X86174Y-21299D01*
X84922Y-20047D01*
X84824Y-19982D01*
X84709Y-19959D01*
X80800Y-19959D01*
X80840Y-19761D01*
X80840Y-19738D01*
X80814Y-19609D01*
X81924Y-18500D01*
X85823Y-18500D01*
X85883Y-18560D01*
X86040Y-18624D01*
X86209Y-18625D01*
X86365Y-18560D01*
X86485Y-18441D01*
X86549Y-18284D01*
X86550Y-18115D01*
X86485Y-17959D01*
X86366Y-17839D01*
X86209Y-17775D01*
X86040Y-17774D01*
X85884Y-17839D01*
X85823Y-17900D01*
X81800Y-17900D01*
X81685Y-17922D01*
X81646Y-17948D01*
X81587Y-17987D01*
X80840Y-18735D01*
X80840Y-18699D01*
X80822Y-18699D01*
X80775Y-18699D01*
X80822Y-18608D01*
X80725Y-18400D01*
X80555Y-18245D01*
X80391Y-18177D01*
X80300Y-18224D01*
X80300Y-18700D01*
X80307Y-18700D01*
X80307Y-18800D01*
X80300Y-18800D01*
X80300Y-18807D01*
X80242Y-18807D01*
X80242Y-14603D01*
X80129Y-14330D01*
X79920Y-14121D01*
X79648Y-14008D01*
X79353Y-14007D01*
X79080Y-14120D01*
X78871Y-14329D01*
X78758Y-14601D01*
X78757Y-14896D01*
X78870Y-15169D01*
X79079Y-15378D01*
X79351Y-15491D01*
X79646Y-15492D01*
X79919Y-15379D01*
X80128Y-15170D01*
X80241Y-14898D01*
X80242Y-14603D01*
X80242Y-18807D01*
X80200Y-18807D01*
X80200Y-18800D01*
X80200Y-18700D01*
X80200Y-18224D01*
X80108Y-18177D01*
X79944Y-18245D01*
X79834Y-18346D01*
X79801Y-18268D01*
X79731Y-18198D01*
X79639Y-18160D01*
X79540Y-18160D01*
X79362Y-18160D01*
X79300Y-18222D01*
X79300Y-18700D01*
X79724Y-18700D01*
X79777Y-18700D01*
X80200Y-18700D01*
X80200Y-18800D01*
X79777Y-18800D01*
X79724Y-18800D01*
X79300Y-18800D01*
X79300Y-18807D01*
X79200Y-18807D01*
X79200Y-18800D01*
X79200Y-18700D01*
X79200Y-18222D01*
X79137Y-18160D01*
X78959Y-18160D01*
X78860Y-18160D01*
X78768Y-18198D01*
X78698Y-18268D01*
X78660Y-18360D01*
X78660Y-18637D01*
X78722Y-18700D01*
X79200Y-18700D01*
X79200Y-18800D01*
X78722Y-18800D01*
X78660Y-18862D01*
X78660Y-19139D01*
X78698Y-19231D01*
X78768Y-19301D01*
X78828Y-19327D01*
X78704Y-19512D01*
X78660Y-19738D01*
X78660Y-19761D01*
X78704Y-19987D01*
X78832Y-20178D01*
X78939Y-20250D01*
X78832Y-20321D01*
X78704Y-20512D01*
X78660Y-20738D01*
X78660Y-20761D01*
X78704Y-20987D01*
X78832Y-21178D01*
X79024Y-21306D01*
X79250Y-21351D01*
X79475Y-21306D01*
X79667Y-21178D01*
X79750Y-21054D01*
X79832Y-21178D01*
X80024Y-21306D01*
X80250Y-21351D01*
X80475Y-21306D01*
X80667Y-21178D01*
X80795Y-20987D01*
X80840Y-20761D01*
X80840Y-20738D01*
X80804Y-20559D01*
X84585Y-20559D01*
X85750Y-21724D01*
X85749Y-21809D01*
X85814Y-21965D01*
X85933Y-22085D01*
X86090Y-22149D01*
X86259Y-22150D01*
X86415Y-22085D01*
X86535Y-21966D01*
X86599Y-21809D01*
X86600Y-21640D01*
X86600Y-27998D01*
X86489Y-28108D01*
X86425Y-28265D01*
X86424Y-28434D01*
X86489Y-28590D01*
X86608Y-28710D01*
X86765Y-28774D01*
X86934Y-28775D01*
X86994Y-28750D01*
X90098Y-28750D01*
X90158Y-28810D01*
X90315Y-28874D01*
X90484Y-28875D01*
X90640Y-28810D01*
X90760Y-28691D01*
X90824Y-28534D01*
X90825Y-28365D01*
X90825Y-33480D01*
X90775Y-33480D01*
X90775Y-29265D01*
X90710Y-29109D01*
X90591Y-28989D01*
X90434Y-28925D01*
X90265Y-28924D01*
X90109Y-28989D01*
X89989Y-29108D01*
X89925Y-29265D01*
X89924Y-29350D01*
X88725Y-30550D01*
X87301Y-30550D01*
X87241Y-30489D01*
X87084Y-30425D01*
X86915Y-30424D01*
X86759Y-30489D01*
X86639Y-30608D01*
X86575Y-30765D01*
X86574Y-30934D01*
X86639Y-31090D01*
X86758Y-31210D01*
X86915Y-31274D01*
X87084Y-31275D01*
X87240Y-31210D01*
X87301Y-31150D01*
X88850Y-31150D01*
X88850Y-31149D01*
X88964Y-31127D01*
X88964Y-31127D01*
X89062Y-31062D01*
X90349Y-29774D01*
X90434Y-29775D01*
X90590Y-29710D01*
X90710Y-29591D01*
X90774Y-29434D01*
X90775Y-29265D01*
X90775Y-33480D01*
X83876Y-33480D01*
X83876Y-29814D01*
X83876Y-27314D01*
X83873Y-26916D01*
X83728Y-26566D01*
X83586Y-26484D01*
X83515Y-26555D01*
X83515Y-26413D01*
X83433Y-26271D01*
X83064Y-26123D01*
X82666Y-26126D01*
X82316Y-26271D01*
X82234Y-26413D01*
X82875Y-27054D01*
X83515Y-26413D01*
X83515Y-26555D01*
X82945Y-27125D01*
X83586Y-27765D01*
X83728Y-27683D01*
X83876Y-27314D01*
X83876Y-29814D01*
X83873Y-29416D01*
X83728Y-29066D01*
X83586Y-28984D01*
X83515Y-29055D01*
X83515Y-28913D01*
X83433Y-28771D01*
X83064Y-28623D01*
X82666Y-28626D01*
X82524Y-28685D01*
X82574Y-28564D01*
X82575Y-28186D01*
X82523Y-28061D01*
X82685Y-28126D01*
X83083Y-28123D01*
X83433Y-27978D01*
X83515Y-27836D01*
X82875Y-27195D01*
X82869Y-27201D01*
X82798Y-27130D01*
X82804Y-27125D01*
X82163Y-26484D01*
X82021Y-26566D01*
X81873Y-26935D01*
X81876Y-27333D01*
X81935Y-27475D01*
X81814Y-27425D01*
X81436Y-27424D01*
X81311Y-27476D01*
X81376Y-27314D01*
X81373Y-26916D01*
X81228Y-26566D01*
X81086Y-26484D01*
X81015Y-26555D01*
X81015Y-26413D01*
X80933Y-26271D01*
X80564Y-26123D01*
X80166Y-26126D01*
X79816Y-26271D01*
X79734Y-26413D01*
X80375Y-27054D01*
X81015Y-26413D01*
X81015Y-26555D01*
X80445Y-27125D01*
X80451Y-27130D01*
X80380Y-27201D01*
X80375Y-27195D01*
X80304Y-27266D01*
X80304Y-27125D01*
X79663Y-26484D01*
X79521Y-26566D01*
X79373Y-26935D01*
X79376Y-27333D01*
X79521Y-27683D01*
X79663Y-27765D01*
X80304Y-27125D01*
X80304Y-27266D01*
X79734Y-27836D01*
X79816Y-27978D01*
X80185Y-28126D01*
X80583Y-28123D01*
X80725Y-28064D01*
X80675Y-28185D01*
X80674Y-28563D01*
X80726Y-28688D01*
X80564Y-28623D01*
X80166Y-28626D01*
X79816Y-28771D01*
X79734Y-28913D01*
X80375Y-29554D01*
X80380Y-29548D01*
X80451Y-29619D01*
X80445Y-29625D01*
X81086Y-30265D01*
X81228Y-30183D01*
X81376Y-29814D01*
X81373Y-29416D01*
X81314Y-29274D01*
X81435Y-29324D01*
X81813Y-29325D01*
X81938Y-29273D01*
X81873Y-29435D01*
X81876Y-29833D01*
X82021Y-30183D01*
X82163Y-30265D01*
X82804Y-29625D01*
X82798Y-29619D01*
X82869Y-29548D01*
X82875Y-29554D01*
X83515Y-28913D01*
X83515Y-29055D01*
X82945Y-29625D01*
X83586Y-30265D01*
X83728Y-30183D01*
X83876Y-29814D01*
X83876Y-33480D01*
X83515Y-33480D01*
X83515Y-30336D01*
X82875Y-29695D01*
X82234Y-30336D01*
X82316Y-30478D01*
X82685Y-30626D01*
X83083Y-30623D01*
X83433Y-30478D01*
X83515Y-30336D01*
X83515Y-33480D01*
X81015Y-33480D01*
X81015Y-30336D01*
X80375Y-29695D01*
X80304Y-29766D01*
X80304Y-29625D01*
X79663Y-28984D01*
X79521Y-29066D01*
X79373Y-29435D01*
X79376Y-29833D01*
X79521Y-30183D01*
X79663Y-30265D01*
X80304Y-29625D01*
X80304Y-29766D01*
X79734Y-30336D01*
X79816Y-30478D01*
X80185Y-30626D01*
X80583Y-30623D01*
X80933Y-30478D01*
X81015Y-30336D01*
X81015Y-33480D01*
X80242Y-33480D01*
X80242Y-32353D01*
X80129Y-32080D01*
X79920Y-31871D01*
X79648Y-31758D01*
X79353Y-31757D01*
X79080Y-31870D01*
X78871Y-32079D01*
X78758Y-32351D01*
X78757Y-32646D01*
X78870Y-32919D01*
X79079Y-33128D01*
X79351Y-33241D01*
X79646Y-33242D01*
X79919Y-33129D01*
X80128Y-32920D01*
X80241Y-32648D01*
X80242Y-32353D01*
X80242Y-33480D01*
X78519Y-33480D01*
X78519Y-13769D01*
X105730Y-13769D01*
X105730Y-33480D01*
X105730Y-33480D01*
G37*
G54D21*
X105730Y-33480D02*
X104862Y-33480D01*
X104862Y-33242D01*
X104896Y-33242D01*
X105169Y-33129D01*
X105378Y-32920D01*
X105491Y-32648D01*
X105492Y-32353D01*
X105379Y-32080D01*
X105170Y-31871D01*
X104898Y-31758D01*
X104862Y-31758D01*
X104862Y-22783D01*
X104898Y-22776D01*
X104920Y-22771D01*
X104920Y-22771D01*
X105033Y-22696D01*
X105196Y-22533D01*
X105196Y-22533D01*
X105196Y-22533D01*
X105271Y-22420D01*
X105287Y-22340D01*
X105339Y-22340D01*
X105431Y-22301D01*
X105501Y-22231D01*
X105540Y-22139D01*
X105540Y-22040D01*
X105540Y-21360D01*
X105501Y-21268D01*
X105431Y-21198D01*
X105371Y-21172D01*
X105495Y-20987D01*
X105540Y-20761D01*
X105540Y-20738D01*
X105495Y-20512D01*
X105367Y-20321D01*
X105260Y-20250D01*
X105367Y-20178D01*
X105495Y-19987D01*
X105540Y-19761D01*
X105540Y-19738D01*
X105495Y-19512D01*
X105367Y-19321D01*
X105260Y-19250D01*
X105425Y-19099D01*
X105522Y-18891D01*
X105522Y-18608D01*
X105425Y-18400D01*
X105260Y-18250D01*
X105425Y-18099D01*
X105522Y-17891D01*
X105475Y-17800D01*
X105000Y-17800D01*
X105000Y-18224D01*
X105000Y-18275D01*
X105000Y-18700D01*
X105475Y-18700D01*
X105522Y-18608D01*
X105522Y-18891D01*
X105475Y-18800D01*
X105000Y-18800D01*
X105000Y-18807D01*
X104900Y-18807D01*
X104900Y-18800D01*
X104892Y-18800D01*
X104892Y-18700D01*
X104900Y-18700D01*
X104900Y-18275D01*
X104900Y-18224D01*
X104900Y-17800D01*
X104892Y-17800D01*
X104892Y-17700D01*
X104900Y-17700D01*
X104900Y-17692D01*
X105000Y-17692D01*
X105000Y-17700D01*
X105475Y-17700D01*
X105522Y-17608D01*
X105425Y-17400D01*
X105260Y-17249D01*
X105367Y-17178D01*
X105495Y-16987D01*
X105540Y-16761D01*
X105540Y-16738D01*
X105495Y-16512D01*
X105492Y-16508D01*
X105492Y-14603D01*
X105379Y-14330D01*
X105170Y-14121D01*
X104898Y-14008D01*
X104603Y-14007D01*
X104330Y-14120D01*
X104121Y-14329D01*
X104008Y-14601D01*
X104007Y-14896D01*
X104120Y-15169D01*
X104329Y-15378D01*
X104601Y-15491D01*
X104896Y-15492D01*
X105169Y-15379D01*
X105378Y-15170D01*
X105491Y-14898D01*
X105492Y-14603D01*
X105492Y-16508D01*
X105367Y-16321D01*
X105175Y-16193D01*
X104950Y-16148D01*
X104724Y-16193D01*
X104532Y-16321D01*
X104450Y-16445D01*
X104367Y-16321D01*
X104175Y-16193D01*
X103950Y-16148D01*
X103724Y-16193D01*
X103532Y-16321D01*
X103404Y-16512D01*
X103360Y-16738D01*
X103360Y-16761D01*
X103404Y-16987D01*
X103532Y-17178D01*
X103639Y-17250D01*
X103532Y-17321D01*
X103404Y-17512D01*
X103360Y-17738D01*
X103360Y-17761D01*
X103404Y-17987D01*
X103532Y-18178D01*
X103639Y-18250D01*
X103532Y-18321D01*
X103404Y-18512D01*
X103360Y-18738D01*
X103360Y-18761D01*
X103404Y-18987D01*
X103532Y-19178D01*
X103639Y-19250D01*
X103532Y-19321D01*
X103404Y-19512D01*
X103360Y-19738D01*
X103360Y-19761D01*
X103404Y-19987D01*
X103532Y-20178D01*
X103639Y-20250D01*
X103532Y-20321D01*
X103404Y-20512D01*
X103360Y-20738D01*
X103360Y-20761D01*
X103404Y-20987D01*
X103532Y-21178D01*
X103639Y-21250D01*
X103532Y-21321D01*
X103404Y-21512D01*
X103360Y-21738D01*
X103360Y-21761D01*
X103404Y-21987D01*
X103481Y-22101D01*
X102794Y-22101D01*
X102348Y-21655D01*
X102348Y-20596D01*
X102348Y-20283D01*
X102378Y-20253D01*
X102446Y-20089D01*
X102446Y-19911D01*
X102379Y-19747D01*
X102253Y-19621D01*
X102089Y-19553D01*
X101911Y-19553D01*
X101747Y-19620D01*
X101696Y-19671D01*
X101696Y-18661D01*
X101629Y-18497D01*
X101503Y-18371D01*
X101339Y-18303D01*
X101295Y-18303D01*
X99746Y-16753D01*
X99633Y-16678D01*
X99611Y-16673D01*
X99500Y-16651D01*
X99499Y-16651D01*
X93054Y-16651D01*
X93054Y-15081D01*
X93043Y-14863D01*
X92981Y-14712D01*
X92885Y-14684D01*
X92815Y-14755D01*
X92815Y-14614D01*
X92787Y-14518D01*
X92581Y-14445D01*
X92363Y-14456D01*
X92212Y-14518D01*
X92184Y-14614D01*
X92500Y-14929D01*
X92815Y-14614D01*
X92815Y-14755D01*
X92570Y-15000D01*
X92885Y-15315D01*
X92981Y-15287D01*
X93054Y-15081D01*
X93054Y-16651D01*
X92929Y-16651D01*
X92811Y-16534D01*
X92730Y-16500D01*
X92811Y-16466D01*
X92965Y-16311D01*
X93049Y-16109D01*
X93050Y-15891D01*
X92966Y-15688D01*
X92811Y-15534D01*
X92736Y-15502D01*
X92787Y-15481D01*
X92815Y-15385D01*
X92500Y-15070D01*
X92429Y-15141D01*
X92429Y-15000D01*
X92114Y-14684D01*
X92018Y-14712D01*
X91945Y-14918D01*
X91956Y-15136D01*
X92018Y-15287D01*
X92114Y-15315D01*
X92429Y-15000D01*
X92429Y-15141D01*
X92184Y-15385D01*
X92212Y-15481D01*
X92267Y-15500D01*
X92188Y-15533D01*
X92034Y-15688D01*
X91950Y-15890D01*
X91949Y-16108D01*
X92033Y-16311D01*
X92188Y-16465D01*
X92269Y-16499D01*
X92188Y-16533D01*
X92034Y-16688D01*
X91950Y-16890D01*
X91949Y-17108D01*
X92033Y-17311D01*
X92188Y-17465D01*
X92390Y-17549D01*
X92608Y-17550D01*
X92811Y-17466D01*
X92929Y-17348D01*
X99355Y-17348D01*
X100803Y-18795D01*
X100803Y-18838D01*
X100870Y-19002D01*
X100996Y-19128D01*
X101160Y-19196D01*
X101338Y-19196D01*
X101502Y-19129D01*
X101628Y-19003D01*
X101696Y-18839D01*
X101696Y-18661D01*
X101696Y-19671D01*
X101621Y-19746D01*
X101553Y-19910D01*
X101553Y-20088D01*
X101620Y-20252D01*
X101651Y-20283D01*
X101651Y-20596D01*
X101651Y-21799D01*
X101651Y-21800D01*
X101673Y-21911D01*
X101678Y-21933D01*
X101753Y-22046D01*
X102121Y-22413D01*
X101488Y-22413D01*
X101488Y-25739D01*
X101463Y-25701D01*
X101286Y-25583D01*
X101077Y-25541D01*
X100454Y-25541D01*
X100245Y-25583D01*
X100068Y-25701D01*
X99975Y-25841D01*
X99975Y-18515D01*
X99910Y-18359D01*
X99791Y-18239D01*
X99634Y-18175D01*
X99530Y-18174D01*
X99489Y-18147D01*
X99375Y-18125D01*
X91749Y-18125D01*
X88345Y-14721D01*
X88349Y-14709D01*
X88350Y-14491D01*
X88266Y-14288D01*
X88111Y-14134D01*
X87909Y-14050D01*
X87691Y-14049D01*
X87488Y-14133D01*
X87334Y-14288D01*
X87250Y-14490D01*
X87249Y-14708D01*
X87333Y-14911D01*
X87488Y-15065D01*
X87569Y-15099D01*
X87488Y-15133D01*
X87334Y-15288D01*
X87250Y-15490D01*
X87249Y-15708D01*
X87333Y-15911D01*
X87488Y-16065D01*
X87569Y-16099D01*
X87488Y-16133D01*
X87334Y-16288D01*
X87250Y-16490D01*
X87249Y-16708D01*
X87333Y-16911D01*
X87488Y-17065D01*
X87690Y-17149D01*
X87908Y-17150D01*
X88111Y-17066D01*
X88265Y-16911D01*
X88349Y-16709D01*
X88350Y-16491D01*
X88266Y-16288D01*
X88111Y-16134D01*
X88030Y-16100D01*
X88111Y-16066D01*
X88265Y-15911D01*
X88349Y-15709D01*
X88350Y-15574D01*
X91412Y-18637D01*
X91510Y-18702D01*
X91510Y-18702D01*
X91625Y-18725D01*
X99141Y-18725D01*
X99189Y-18840D01*
X99308Y-18960D01*
X99465Y-19024D01*
X99634Y-19025D01*
X99790Y-18960D01*
X99910Y-18841D01*
X99974Y-18684D01*
X99975Y-18515D01*
X99975Y-25841D01*
X99950Y-25878D01*
X99925Y-26006D01*
X99925Y-20815D01*
X99860Y-20659D01*
X99741Y-20539D01*
X99584Y-20475D01*
X99415Y-20474D01*
X99259Y-20539D01*
X99139Y-20658D01*
X99075Y-20815D01*
X99074Y-20900D01*
X94875Y-25100D01*
X93054Y-25100D01*
X93054Y-24581D01*
X93050Y-24488D01*
X93050Y-23391D01*
X92966Y-23188D01*
X92811Y-23034D01*
X92730Y-23000D01*
X92811Y-22966D01*
X92965Y-22811D01*
X93049Y-22609D01*
X93050Y-22391D01*
X92966Y-22188D01*
X92925Y-22147D01*
X92925Y-19315D01*
X92860Y-19159D01*
X92741Y-19039D01*
X92584Y-18975D01*
X92480Y-18974D01*
X92439Y-18947D01*
X92325Y-18925D01*
X89474Y-18925D01*
X89360Y-18947D01*
X89319Y-18975D01*
X89319Y-18975D01*
X89215Y-18974D01*
X89059Y-19039D01*
X88939Y-19158D01*
X88875Y-19315D01*
X88874Y-19484D01*
X88939Y-19640D01*
X89058Y-19760D01*
X89094Y-19774D01*
X89059Y-19789D01*
X88939Y-19908D01*
X88875Y-20065D01*
X88874Y-20234D01*
X88939Y-20390D01*
X89058Y-20510D01*
X89215Y-20574D01*
X89384Y-20575D01*
X89540Y-20510D01*
X89601Y-20450D01*
X89750Y-20450D01*
X91598Y-20450D01*
X91658Y-20510D01*
X91815Y-20574D01*
X91984Y-20575D01*
X92140Y-20510D01*
X92260Y-20391D01*
X92324Y-20234D01*
X92325Y-20065D01*
X92322Y-20059D01*
X92428Y-19953D01*
X92481Y-19824D01*
X92584Y-19825D01*
X92740Y-19760D01*
X92860Y-19641D01*
X92924Y-19484D01*
X92925Y-19315D01*
X92925Y-22147D01*
X92811Y-22034D01*
X92609Y-21950D01*
X92391Y-21949D01*
X92188Y-22033D01*
X92034Y-22188D01*
X91950Y-22390D01*
X91949Y-22608D01*
X92033Y-22811D01*
X92188Y-22965D01*
X92269Y-22999D01*
X92188Y-23033D01*
X92034Y-23188D01*
X91950Y-23390D01*
X91949Y-23608D01*
X92033Y-23811D01*
X92188Y-23965D01*
X92263Y-23997D01*
X92212Y-24018D01*
X92184Y-24114D01*
X92500Y-24429D01*
X92815Y-24114D01*
X92787Y-24018D01*
X92732Y-23999D01*
X92811Y-23966D01*
X92965Y-23811D01*
X93049Y-23609D01*
X93050Y-23391D01*
X93050Y-24488D01*
X93043Y-24363D01*
X92981Y-24212D01*
X92885Y-24184D01*
X92570Y-24500D01*
X92885Y-24815D01*
X92981Y-24787D01*
X93054Y-24581D01*
X93054Y-25100D01*
X92815Y-25100D01*
X92815Y-24885D01*
X92500Y-24570D01*
X92429Y-24641D01*
X92429Y-24500D01*
X92114Y-24184D01*
X92018Y-24212D01*
X91945Y-24418D01*
X91956Y-24636D01*
X92018Y-24787D01*
X92114Y-24815D01*
X92429Y-24500D01*
X92429Y-24641D01*
X92184Y-24885D01*
X92212Y-24981D01*
X92418Y-25054D01*
X92636Y-25043D01*
X92787Y-24981D01*
X92815Y-24885D01*
X92815Y-25100D01*
X88471Y-25100D01*
X88466Y-25088D01*
X88311Y-24934D01*
X88230Y-24900D01*
X88311Y-24866D01*
X88465Y-24711D01*
X88549Y-24509D01*
X88550Y-24291D01*
X88466Y-24088D01*
X88311Y-23934D01*
X88230Y-23900D01*
X88311Y-23866D01*
X88465Y-23711D01*
X88549Y-23509D01*
X88550Y-23291D01*
X88466Y-23088D01*
X88311Y-22934D01*
X88109Y-22850D01*
X87891Y-22849D01*
X87688Y-22933D01*
X87534Y-23088D01*
X87450Y-23290D01*
X87449Y-23508D01*
X87533Y-23711D01*
X87688Y-23865D01*
X87769Y-23899D01*
X87688Y-23933D01*
X87534Y-24088D01*
X87450Y-24290D01*
X87449Y-24508D01*
X87533Y-24711D01*
X87688Y-24865D01*
X87769Y-24899D01*
X87688Y-24933D01*
X87534Y-25088D01*
X87450Y-25290D01*
X87449Y-25508D01*
X87533Y-25711D01*
X87688Y-25865D01*
X87890Y-25949D01*
X88108Y-25950D01*
X88311Y-25866D01*
X88465Y-25711D01*
X88470Y-25700D01*
X95000Y-25700D01*
X95000Y-25699D01*
X95114Y-25677D01*
X95114Y-25677D01*
X95212Y-25612D01*
X99499Y-21324D01*
X99584Y-21325D01*
X99740Y-21260D01*
X99860Y-21141D01*
X99924Y-20984D01*
X99925Y-20815D01*
X99925Y-26006D01*
X99909Y-26087D01*
X99950Y-26295D01*
X100068Y-26472D01*
X100245Y-26590D01*
X100250Y-26591D01*
X100216Y-26602D01*
X100049Y-26736D01*
X99947Y-26924D01*
X99942Y-26952D01*
X99990Y-27037D01*
X100716Y-27037D01*
X100716Y-27029D01*
X100816Y-27029D01*
X100816Y-27037D01*
X100823Y-27037D01*
X100823Y-27137D01*
X100816Y-27137D01*
X100816Y-27632D01*
X101111Y-27632D01*
X101315Y-27571D01*
X101482Y-27437D01*
X101488Y-27425D01*
X101488Y-28739D01*
X101463Y-28701D01*
X101286Y-28583D01*
X101077Y-28541D01*
X100716Y-28541D01*
X100716Y-27632D01*
X100716Y-27137D01*
X99990Y-27137D01*
X99942Y-27221D01*
X99947Y-27249D01*
X100049Y-27437D01*
X100216Y-27571D01*
X100421Y-27632D01*
X100716Y-27632D01*
X100716Y-28541D01*
X100454Y-28541D01*
X100245Y-28583D01*
X100068Y-28701D01*
X99950Y-28878D01*
X99909Y-29087D01*
X99950Y-29295D01*
X100068Y-29472D01*
X100245Y-29590D01*
X100250Y-29591D01*
X100216Y-29602D01*
X100049Y-29736D01*
X99947Y-29924D01*
X99942Y-29952D01*
X99990Y-30037D01*
X100716Y-30037D01*
X100716Y-30029D01*
X100816Y-30029D01*
X100816Y-30037D01*
X100823Y-30037D01*
X100823Y-30137D01*
X100816Y-30137D01*
X100816Y-30144D01*
X100716Y-30144D01*
X100716Y-30137D01*
X99990Y-30137D01*
X99942Y-30221D01*
X99947Y-30249D01*
X100049Y-30437D01*
X100216Y-30571D01*
X100250Y-30582D01*
X100245Y-30583D01*
X100068Y-30701D01*
X99950Y-30878D01*
X99909Y-31087D01*
X99950Y-31295D01*
X100068Y-31472D01*
X100245Y-31590D01*
X100454Y-31632D01*
X101077Y-31632D01*
X101286Y-31590D01*
X101463Y-31472D01*
X101488Y-31434D01*
X101488Y-33480D01*
X94214Y-33480D01*
X94274Y-33334D01*
X94275Y-33165D01*
X94210Y-33009D01*
X94091Y-32889D01*
X93934Y-32825D01*
X93849Y-32824D01*
X92574Y-31550D01*
X92575Y-31465D01*
X92510Y-31309D01*
X92391Y-31189D01*
X92234Y-31125D01*
X92065Y-31124D01*
X91909Y-31189D01*
X91789Y-31308D01*
X91725Y-31465D01*
X91724Y-31634D01*
X91789Y-31790D01*
X91908Y-31910D01*
X92065Y-31974D01*
X92150Y-31975D01*
X93425Y-33249D01*
X93424Y-33334D01*
X93485Y-33480D01*
X90825Y-33480D01*
X90825Y-28365D01*
X90760Y-28209D01*
X90641Y-28089D01*
X90484Y-28025D01*
X90315Y-28024D01*
X90159Y-28089D01*
X90098Y-28150D01*
X87227Y-28150D01*
X87210Y-28109D01*
X87091Y-27989D01*
X86934Y-27925D01*
X86765Y-27924D01*
X86609Y-27989D01*
X86600Y-27998D01*
X86600Y-21640D01*
X86535Y-21484D01*
X86416Y-21364D01*
X86259Y-21300D01*
X86174Y-21299D01*
X84922Y-20047D01*
X84824Y-19982D01*
X84709Y-19959D01*
X80800Y-19959D01*
X80840Y-19761D01*
X80840Y-19738D01*
X80814Y-19609D01*
X81924Y-18500D01*
X85823Y-18500D01*
X85883Y-18560D01*
X86040Y-18624D01*
X86209Y-18625D01*
X86365Y-18560D01*
X86485Y-18441D01*
X86549Y-18284D01*
X86550Y-18115D01*
X86485Y-17959D01*
X86366Y-17839D01*
X86209Y-17775D01*
X86040Y-17774D01*
X85884Y-17839D01*
X85823Y-17900D01*
X81800Y-17900D01*
X81685Y-17922D01*
X81646Y-17948D01*
X81587Y-17987D01*
X80840Y-18735D01*
X80840Y-18699D01*
X80822Y-18699D01*
X80775Y-18699D01*
X80822Y-18608D01*
X80725Y-18400D01*
X80555Y-18245D01*
X80391Y-18177D01*
X80300Y-18224D01*
X80300Y-18700D01*
X80307Y-18700D01*
X80307Y-18800D01*
X80300Y-18800D01*
X80300Y-18807D01*
X80242Y-18807D01*
X80242Y-14603D01*
X80129Y-14330D01*
X79920Y-14121D01*
X79648Y-14008D01*
X79353Y-14007D01*
X79080Y-14120D01*
X78871Y-14329D01*
X78758Y-14601D01*
X78757Y-14896D01*
X78870Y-15169D01*
X79079Y-15378D01*
X79351Y-15491D01*
X79646Y-15492D01*
X79919Y-15379D01*
X80128Y-15170D01*
X80241Y-14898D01*
X80242Y-14603D01*
X80242Y-18807D01*
X80200Y-18807D01*
X80200Y-18800D01*
X80200Y-18700D01*
X80200Y-18224D01*
X80108Y-18177D01*
X79944Y-18245D01*
X79834Y-18346D01*
X79801Y-18268D01*
X79731Y-18198D01*
X79639Y-18160D01*
X79540Y-18160D01*
X79362Y-18160D01*
X79300Y-18222D01*
X79300Y-18700D01*
X79724Y-18700D01*
X79777Y-18700D01*
X80200Y-18700D01*
X80200Y-18800D01*
X79777Y-18800D01*
X79724Y-18800D01*
X79300Y-18800D01*
X79300Y-18807D01*
X79200Y-18807D01*
X79200Y-18800D01*
X79200Y-18700D01*
X79200Y-18222D01*
X79137Y-18160D01*
X78959Y-18160D01*
X78860Y-18160D01*
X78768Y-18198D01*
X78698Y-18268D01*
X78660Y-18360D01*
X78660Y-18637D01*
X78722Y-18700D01*
X79200Y-18700D01*
X79200Y-18800D01*
X78722Y-18800D01*
X78660Y-18862D01*
X78660Y-19139D01*
X78698Y-19231D01*
X78768Y-19301D01*
X78828Y-19327D01*
X78704Y-19512D01*
X78660Y-19738D01*
X78660Y-19761D01*
X78704Y-19987D01*
X78832Y-20178D01*
X78939Y-20250D01*
X78832Y-20321D01*
X78704Y-20512D01*
X78660Y-20738D01*
X78660Y-20761D01*
X78704Y-20987D01*
X78832Y-21178D01*
X79024Y-21306D01*
X79250Y-21351D01*
X79475Y-21306D01*
X79667Y-21178D01*
X79750Y-21054D01*
X79832Y-21178D01*
X80024Y-21306D01*
X80250Y-21351D01*
X80475Y-21306D01*
X80667Y-21178D01*
X80795Y-20987D01*
X80840Y-20761D01*
X80840Y-20738D01*
X80804Y-20559D01*
X84585Y-20559D01*
X85750Y-21724D01*
X85749Y-21809D01*
X85814Y-21965D01*
X85933Y-22085D01*
X86090Y-22149D01*
X86259Y-22150D01*
X86415Y-22085D01*
X86535Y-21966D01*
X86599Y-21809D01*
X86600Y-21640D01*
X86600Y-27998D01*
X86489Y-28108D01*
X86425Y-28265D01*
X86424Y-28434D01*
X86489Y-28590D01*
X86608Y-28710D01*
X86765Y-28774D01*
X86934Y-28775D01*
X86994Y-28750D01*
X90098Y-28750D01*
X90158Y-28810D01*
X90315Y-28874D01*
X90484Y-28875D01*
X90640Y-28810D01*
X90760Y-28691D01*
X90824Y-28534D01*
X90825Y-28365D01*
X90825Y-33480D01*
X90775Y-33480D01*
X90775Y-29265D01*
X90710Y-29109D01*
X90591Y-28989D01*
X90434Y-28925D01*
X90265Y-28924D01*
X90109Y-28989D01*
X89989Y-29108D01*
X89925Y-29265D01*
X89924Y-29350D01*
X88725Y-30550D01*
X87301Y-30550D01*
X87241Y-30489D01*
X87084Y-30425D01*
X86915Y-30424D01*
X86759Y-30489D01*
X86639Y-30608D01*
X86575Y-30765D01*
X86574Y-30934D01*
X86639Y-31090D01*
X86758Y-31210D01*
X86915Y-31274D01*
X87084Y-31275D01*
X87240Y-31210D01*
X87301Y-31150D01*
X88850Y-31150D01*
X88850Y-31149D01*
X88964Y-31127D01*
X88964Y-31127D01*
X89062Y-31062D01*
X90349Y-29774D01*
X90434Y-29775D01*
X90590Y-29710D01*
X90710Y-29591D01*
X90774Y-29434D01*
X90775Y-29265D01*
X90775Y-33480D01*
X83876Y-33480D01*
X83876Y-29814D01*
X83876Y-27314D01*
X83873Y-26916D01*
X83728Y-26566D01*
X83586Y-26484D01*
X83515Y-26555D01*
X83515Y-26413D01*
X83433Y-26271D01*
X83064Y-26123D01*
X82666Y-26126D01*
X82316Y-26271D01*
X82234Y-26413D01*
X82875Y-27054D01*
X83515Y-26413D01*
X83515Y-26555D01*
X82945Y-27125D01*
X83586Y-27765D01*
X83728Y-27683D01*
X83876Y-27314D01*
X83876Y-29814D01*
X83873Y-29416D01*
X83728Y-29066D01*
X83586Y-28984D01*
X83515Y-29055D01*
X83515Y-28913D01*
X83433Y-28771D01*
X83064Y-28623D01*
X82666Y-28626D01*
X82524Y-28685D01*
X82574Y-28564D01*
X82575Y-28186D01*
X82523Y-28061D01*
X82685Y-28126D01*
X83083Y-28123D01*
X83433Y-27978D01*
X83515Y-27836D01*
X82875Y-27195D01*
X82869Y-27201D01*
X82798Y-27130D01*
X82804Y-27125D01*
X82163Y-26484D01*
X82021Y-26566D01*
X81873Y-26935D01*
X81876Y-27333D01*
X81935Y-27475D01*
X81814Y-27425D01*
X81436Y-27424D01*
X81311Y-27476D01*
X81376Y-27314D01*
X81373Y-26916D01*
X81228Y-26566D01*
X81086Y-26484D01*
X81015Y-26555D01*
X81015Y-26413D01*
X80933Y-26271D01*
X80564Y-26123D01*
X80166Y-26126D01*
X79816Y-26271D01*
X79734Y-26413D01*
X80375Y-27054D01*
X81015Y-26413D01*
X81015Y-26555D01*
X80445Y-27125D01*
X80451Y-27130D01*
X80380Y-27201D01*
X80375Y-27195D01*
X80304Y-27266D01*
X80304Y-27125D01*
X79663Y-26484D01*
X79521Y-26566D01*
X79373Y-26935D01*
X79376Y-27333D01*
X79521Y-27683D01*
X79663Y-27765D01*
X80304Y-27125D01*
X80304Y-27266D01*
X79734Y-27836D01*
X79816Y-27978D01*
X80185Y-28126D01*
X80583Y-28123D01*
X80725Y-28064D01*
X80675Y-28185D01*
X80674Y-28563D01*
X80726Y-28688D01*
X80564Y-28623D01*
X80166Y-28626D01*
X79816Y-28771D01*
X79734Y-28913D01*
X80375Y-29554D01*
X80380Y-29548D01*
X80451Y-29619D01*
X80445Y-29625D01*
X81086Y-30265D01*
X81228Y-30183D01*
X81376Y-29814D01*
X81373Y-29416D01*
X81314Y-29274D01*
X81435Y-29324D01*
X81813Y-29325D01*
X81938Y-29273D01*
X81873Y-29435D01*
X81876Y-29833D01*
X82021Y-30183D01*
X82163Y-30265D01*
X82804Y-29625D01*
X82798Y-29619D01*
X82869Y-29548D01*
X82875Y-29554D01*
X83515Y-28913D01*
X83515Y-29055D01*
X82945Y-29625D01*
X83586Y-30265D01*
X83728Y-30183D01*
X83876Y-29814D01*
X83876Y-33480D01*
X83515Y-33480D01*
X83515Y-30336D01*
X82875Y-29695D01*
X82234Y-30336D01*
X82316Y-30478D01*
X82685Y-30626D01*
X83083Y-30623D01*
X83433Y-30478D01*
X83515Y-30336D01*
X83515Y-33480D01*
X81015Y-33480D01*
X81015Y-30336D01*
X80375Y-29695D01*
X80304Y-29766D01*
X80304Y-29625D01*
X79663Y-28984D01*
X79521Y-29066D01*
X79373Y-29435D01*
X79376Y-29833D01*
X79521Y-30183D01*
X79663Y-30265D01*
X80304Y-29625D01*
X80304Y-29766D01*
X79734Y-30336D01*
X79816Y-30478D01*
X80185Y-30626D01*
X80583Y-30623D01*
X80933Y-30478D01*
X81015Y-30336D01*
X81015Y-33480D01*
X80242Y-33480D01*
X80242Y-32353D01*
X80129Y-32080D01*
X79920Y-31871D01*
X79648Y-31758D01*
X79353Y-31757D01*
X79080Y-31870D01*
X78871Y-32079D01*
X78758Y-32351D01*
X78757Y-32646D01*
X78870Y-32919D01*
X79079Y-33128D01*
X79351Y-33241D01*
X79646Y-33242D01*
X79919Y-33129D01*
X80128Y-32920D01*
X80241Y-32648D01*
X80242Y-32353D01*
X80242Y-33480D01*
X78519Y-33480D01*
X78519Y-13769D01*
X105730Y-13769D01*
X105730Y-33480D01*
M02*
