<?xml version="1.0" standalone="no"?>
 <!DOCTYPE svg PUBLIC "-//W3C//DTD SVG 1.1//EN" 
 "http://www.w3.org/Graphics/SVG/1.1/DTD/svg11.dtd"> 
<svg xmlns="http://www.w3.org/2000/svg" version="1.1" 
    width="29.7002cm" height="21.0007cm" viewBox="0 0 116929 82679 ">
<title>SVG Picture created as SingleEndedtoDiffwithOffset-analog.svg date 2014/03/02 23:09:33 </title>
  <desc>Picture generated by Eeschema-SVG </desc>
<g style="fill:#000000; fill-opacity:1;stroke:#000000; stroke-opacity:1;
stroke-linecap:round; stroke-linejoin:round; "
 transform="translate(0 0) scale(1 1)">
</g>
<g style="fill:#840000; fill-opacity:0.0; 
stroke:#840000; stroke-width:100; stroke-opacity:1; 
stroke-linecap:round; stroke-linejoin:round;">
</g>
<g style="fill:#840000; fill-opacity:0.0; 
stroke:#840000; stroke-width:60; stroke-opacity:1; 
stroke-linecap:round; stroke-linejoin:round;">
<rect x="69680" y="65350" width="42520" height="12600" rx="0" />
</g>
<g style="fill:#840000; fill-opacity:0.0; 
stroke:#840000; stroke-width:100; stroke-opacity:1; 
stroke-linecap:round; stroke-linejoin:round;">
</g>
<g style="fill:#840000; fill-opacity:0.0; 
stroke:#840000; stroke-width:60; stroke-opacity:1; 
stroke-linecap:round; stroke-linejoin:round;">
<rect x="3930" y="3930" width="109060" height="74810" rx="0" />
</g>
<g style="fill:#840000; fill-opacity:0.0; 
stroke:#840000; stroke-width:100; stroke-opacity:1; 
stroke-linecap:round; stroke-linejoin:round;">
</g>
<g style="fill:#840000; fill-opacity:0.0; 
stroke:#840000; stroke-width:60; stroke-opacity:1; 
stroke-linecap:round; stroke-linejoin:round;">
<rect x="4720" y="4720" width="107480" height="73230" rx="0" />
</g>
<g style="fill:#840000; fill-opacity:0.0; 
stroke:#840000; stroke-width:100; stroke-opacity:1; 
stroke-linecap:round; stroke-linejoin:round;">
</g>
<g style="fill:#840000; fill-opacity:0.0; 
stroke:#840000; stroke-width:60; stroke-opacity:1; 
stroke-linecap:round; stroke-linejoin:round;">
<path d="M23620 4720
L23620 3930
" />
</g>
<g style="fill:#840000; fill-opacity:0.0; 
stroke:#840000; stroke-width:100; stroke-opacity:1; 
stroke-linecap:round; stroke-linejoin:round;">
</g>
<g style="fill:#840000; fill-opacity:0.0; 
stroke:#840000; stroke-width:60; stroke-opacity:1; 
stroke-linecap:round; stroke-linejoin:round;">
<path d="M43300 4720
L43300 3930
" />
</g>
<g style="fill:#840000; fill-opacity:0.0; 
stroke:#840000; stroke-width:100; stroke-opacity:1; 
stroke-linecap:round; stroke-linejoin:round;">
</g>
<g style="fill:#840000; fill-opacity:0.0; 
stroke:#840000; stroke-width:60; stroke-opacity:1; 
stroke-linecap:round; stroke-linejoin:round;">
<path d="M62990 4720
L62990 3930
" />
</g>
<g style="fill:#840000; fill-opacity:0.0; 
stroke:#840000; stroke-width:100; stroke-opacity:1; 
stroke-linecap:round; stroke-linejoin:round;">
</g>
<g style="fill:#840000; fill-opacity:0.0; 
stroke:#840000; stroke-width:60; stroke-opacity:1; 
stroke-linecap:round; stroke-linejoin:round;">
<path d="M82670 4720
L82670 3930
" />
</g>
<g style="fill:#840000; fill-opacity:0.0; 
stroke:#840000; stroke-width:100; stroke-opacity:1; 
stroke-linecap:round; stroke-linejoin:round;">
</g>
<g style="fill:#840000; fill-opacity:0.0; 
stroke:#840000; stroke-width:60; stroke-opacity:1; 
stroke-linecap:round; stroke-linejoin:round;">
<path d="M102360 4720
L102360 3930
" />
</g>
<g style="fill:#840000; fill-opacity:0.0; 
stroke:#840000; stroke-width:100; stroke-opacity:1; 
stroke-linecap:round; stroke-linejoin:round;">
</g>
<g style="fill:#840000; fill-opacity:0.0; 
stroke:#840000; stroke-width:60; stroke-opacity:1; 
stroke-linecap:round; stroke-linejoin:round;">
<path d="M14160 4560
L13870 4560
" />
<path d="M14010 4560
L14010 4050
L13960 4120
L13920 4170
L13870 4190
" />
</g>
<g style="fill:#840000; fill-opacity:0.0; 
stroke:#840000; stroke-width:100; stroke-opacity:1; 
stroke-linecap:round; stroke-linejoin:round;">
</g>
<g style="fill:#840000; fill-opacity:0.0; 
stroke:#840000; stroke-width:60; stroke-opacity:1; 
stroke-linecap:round; stroke-linejoin:round;">
<path d="M33560 4090
L33580 4070
L33630 4050
L33750 4050
L33800 4070
L33820 4090
L33850 4140
L33850 4190
L33820 4260
L33530 4560
L33850 4560
" />
</g>
<g style="fill:#840000; fill-opacity:0.0; 
stroke:#840000; stroke-width:100; stroke-opacity:1; 
stroke-linecap:round; stroke-linejoin:round;">
</g>
<g style="fill:#840000; fill-opacity:0.0; 
stroke:#840000; stroke-width:60; stroke-opacity:1; 
stroke-linecap:round; stroke-linejoin:round;">
<path d="M53210 4050
L53530 4050
L53360 4240
L53430 4240
L53480 4260
L53500 4290
L53530 4340
L53530 4460
L53500 4510
L53480 4530
L53430 4560
L53290 4560
L53240 4530
L53210 4510
" />
</g>
<g style="fill:#840000; fill-opacity:0.0; 
stroke:#840000; stroke-width:100; stroke-opacity:1; 
stroke-linecap:round; stroke-linejoin:round;">
</g>
<g style="fill:#840000; fill-opacity:0.0; 
stroke:#840000; stroke-width:60; stroke-opacity:1; 
stroke-linecap:round; stroke-linejoin:round;">
<path d="M73170 4220
L73170 4560
" />
<path d="M73050 4020
L72930 4390
L73240 4390
" />
</g>
<g style="fill:#840000; fill-opacity:0.0; 
stroke:#840000; stroke-width:100; stroke-opacity:1; 
stroke-linecap:round; stroke-linejoin:round;">
</g>
<g style="fill:#840000; fill-opacity:0.0; 
stroke:#840000; stroke-width:60; stroke-opacity:1; 
stroke-linecap:round; stroke-linejoin:round;">
<path d="M92870 4050
L92630 4050
L92610 4290
L92630 4260
L92680 4240
L92800 4240
L92850 4260
L92870 4290
L92900 4340
L92900 4460
L92870 4510
L92850 4530
L92800 4560
L92680 4560
L92630 4530
L92610 4510
" />
</g>
<g style="fill:#840000; fill-opacity:0.0; 
stroke:#840000; stroke-width:100; stroke-opacity:1; 
stroke-linecap:round; stroke-linejoin:round;">
</g>
<g style="fill:#840000; fill-opacity:0.0; 
stroke:#840000; stroke-width:60; stroke-opacity:1; 
stroke-linecap:round; stroke-linejoin:round;">
<path d="M112540 4050
L112440 4050
L112390 4070
L112370 4090
L112320 4170
L112300 4260
L112300 4460
L112320 4510
L112350 4530
L112390 4560
L112490 4560
L112540 4530
L112560 4510
L112590 4460
L112590 4340
L112560 4290
L112540 4260
L112490 4240
L112390 4240
L112350 4260
L112320 4290
L112300 4340
" />
</g>
<g style="fill:#840000; fill-opacity:0.0; 
stroke:#840000; stroke-width:100; stroke-opacity:1; 
stroke-linecap:round; stroke-linejoin:round;">
</g>
<g style="fill:#840000; fill-opacity:0.0; 
stroke:#840000; stroke-width:60; stroke-opacity:1; 
stroke-linecap:round; stroke-linejoin:round;">
<path d="M23620 77950
L23620 78740
" />
</g>
<g style="fill:#840000; fill-opacity:0.0; 
stroke:#840000; stroke-width:100; stroke-opacity:1; 
stroke-linecap:round; stroke-linejoin:round;">
</g>
<g style="fill:#840000; fill-opacity:0.0; 
stroke:#840000; stroke-width:60; stroke-opacity:1; 
stroke-linecap:round; stroke-linejoin:round;">
<path d="M43300 77950
L43300 78740
" />
</g>
<g style="fill:#840000; fill-opacity:0.0; 
stroke:#840000; stroke-width:100; stroke-opacity:1; 
stroke-linecap:round; stroke-linejoin:round;">
</g>
<g style="fill:#840000; fill-opacity:0.0; 
stroke:#840000; stroke-width:60; stroke-opacity:1; 
stroke-linecap:round; stroke-linejoin:round;">
<path d="M62990 77950
L62990 78740
" />
</g>
<g style="fill:#840000; fill-opacity:0.0; 
stroke:#840000; stroke-width:100; stroke-opacity:1; 
stroke-linecap:round; stroke-linejoin:round;">
</g>
<g style="fill:#840000; fill-opacity:0.0; 
stroke:#840000; stroke-width:60; stroke-opacity:1; 
stroke-linecap:round; stroke-linejoin:round;">
<path d="M82670 77950
L82670 78740
" />
</g>
<g style="fill:#840000; fill-opacity:0.0; 
stroke:#840000; stroke-width:100; stroke-opacity:1; 
stroke-linecap:round; stroke-linejoin:round;">
</g>
<g style="fill:#840000; fill-opacity:0.0; 
stroke:#840000; stroke-width:60; stroke-opacity:1; 
stroke-linecap:round; stroke-linejoin:round;">
<path d="M102360 77950
L102360 78740
" />
</g>
<g style="fill:#840000; fill-opacity:0.0; 
stroke:#840000; stroke-width:100; stroke-opacity:1; 
stroke-linecap:round; stroke-linejoin:round;">
</g>
<g style="fill:#840000; fill-opacity:0.0; 
stroke:#840000; stroke-width:60; stroke-opacity:1; 
stroke-linecap:round; stroke-linejoin:round;">
<path d="M14160 78570
L13870 78570
" />
<path d="M14010 78570
L14010 78060
L13960 78130
L13920 78180
L13870 78200
" />
</g>
<g style="fill:#840000; fill-opacity:0.0; 
stroke:#840000; stroke-width:100; stroke-opacity:1; 
stroke-linecap:round; stroke-linejoin:round;">
</g>
<g style="fill:#840000; fill-opacity:0.0; 
stroke:#840000; stroke-width:60; stroke-opacity:1; 
stroke-linecap:round; stroke-linejoin:round;">
<path d="M33560 78100
L33580 78080
L33630 78060
L33750 78060
L33800 78080
L33820 78100
L33850 78150
L33850 78200
L33820 78270
L33530 78570
L33850 78570
" />
</g>
<g style="fill:#840000; fill-opacity:0.0; 
stroke:#840000; stroke-width:100; stroke-opacity:1; 
stroke-linecap:round; stroke-linejoin:round;">
</g>
<g style="fill:#840000; fill-opacity:0.0; 
stroke:#840000; stroke-width:60; stroke-opacity:1; 
stroke-linecap:round; stroke-linejoin:round;">
<path d="M53210 78060
L53530 78060
L53360 78250
L53430 78250
L53480 78270
L53500 78300
L53530 78350
L53530 78470
L53500 78520
L53480 78540
L53430 78570
L53290 78570
L53240 78540
L53210 78520
" />
</g>
<g style="fill:#840000; fill-opacity:0.0; 
stroke:#840000; stroke-width:100; stroke-opacity:1; 
stroke-linecap:round; stroke-linejoin:round;">
</g>
<g style="fill:#840000; fill-opacity:0.0; 
stroke:#840000; stroke-width:60; stroke-opacity:1; 
stroke-linecap:round; stroke-linejoin:round;">
<path d="M73170 78230
L73170 78570
" />
<path d="M73050 78030
L72930 78400
L73240 78400
" />
</g>
<g style="fill:#840000; fill-opacity:0.0; 
stroke:#840000; stroke-width:100; stroke-opacity:1; 
stroke-linecap:round; stroke-linejoin:round;">
</g>
<g style="fill:#840000; fill-opacity:0.0; 
stroke:#840000; stroke-width:60; stroke-opacity:1; 
stroke-linecap:round; stroke-linejoin:round;">
<path d="M92870 78060
L92630 78060
L92610 78300
L92630 78270
L92680 78250
L92800 78250
L92850 78270
L92870 78300
L92900 78350
L92900 78470
L92870 78520
L92850 78540
L92800 78570
L92680 78570
L92630 78540
L92610 78520
" />
</g>
<g style="fill:#840000; fill-opacity:0.0; 
stroke:#840000; stroke-width:100; stroke-opacity:1; 
stroke-linecap:round; stroke-linejoin:round;">
</g>
<g style="fill:#840000; fill-opacity:0.0; 
stroke:#840000; stroke-width:60; stroke-opacity:1; 
stroke-linecap:round; stroke-linejoin:round;">
<path d="M112540 78060
L112440 78060
L112390 78080
L112370 78100
L112320 78180
L112300 78270
L112300 78470
L112320 78520
L112350 78540
L112390 78570
L112490 78570
L112540 78540
L112560 78520
L112590 78470
L112590 78350
L112560 78300
L112540 78270
L112490 78250
L112390 78250
L112350 78270
L112320 78300
L112300 78350
" />
</g>
<g style="fill:#840000; fill-opacity:0.0; 
stroke:#840000; stroke-width:100; stroke-opacity:1; 
stroke-linecap:round; stroke-linejoin:round;">
</g>
<g style="fill:#840000; fill-opacity:0.0; 
stroke:#840000; stroke-width:60; stroke-opacity:1; 
stroke-linecap:round; stroke-linejoin:round;">
<path d="M3930 23620
L4720 23620
" />
</g>
<g style="fill:#840000; fill-opacity:0.0; 
stroke:#840000; stroke-width:100; stroke-opacity:1; 
stroke-linecap:round; stroke-linejoin:round;">
</g>
<g style="fill:#840000; fill-opacity:0.0; 
stroke:#840000; stroke-width:60; stroke-opacity:1; 
stroke-linecap:round; stroke-linejoin:round;">
<path d="M3930 43300
L4720 43300
" />
</g>
<g style="fill:#840000; fill-opacity:0.0; 
stroke:#840000; stroke-width:100; stroke-opacity:1; 
stroke-linecap:round; stroke-linejoin:round;">
</g>
<g style="fill:#840000; fill-opacity:0.0; 
stroke:#840000; stroke-width:60; stroke-opacity:1; 
stroke-linecap:round; stroke-linejoin:round;">
<path d="M3930 62990
L4720 62990
" />
</g>
<g style="fill:#840000; fill-opacity:0.0; 
stroke:#840000; stroke-width:100; stroke-opacity:1; 
stroke-linecap:round; stroke-linejoin:round;">
</g>
<g style="fill:#840000; fill-opacity:0.0; 
stroke:#840000; stroke-width:60; stroke-opacity:1; 
stroke-linecap:round; stroke-linejoin:round;">
<path d="M4210 13850
L4450 13850
" />
<path d="M4160 14000
L4330 13490
L4500 14000
" />
</g>
<g style="fill:#840000; fill-opacity:0.0; 
stroke:#840000; stroke-width:100; stroke-opacity:1; 
stroke-linecap:round; stroke-linejoin:round;">
</g>
<g style="fill:#840000; fill-opacity:0.0; 
stroke:#840000; stroke-width:60; stroke-opacity:1; 
stroke-linecap:round; stroke-linejoin:round;">
<path d="M4370 33420
L4440 33440
L4470 33470
L4490 33520
L4490 33590
L4470 33640
L4440 33660
L4400 33690
L4200 33690
L4200 33180
L4370 33180
L4420 33200
L4440 33220
L4470 33270
L4470 33320
L4440 33370
L4420 33390
L4370 33420
L4200 33420
" />
</g>
<g style="fill:#840000; fill-opacity:0.0; 
stroke:#840000; stroke-width:100; stroke-opacity:1; 
stroke-linecap:round; stroke-linejoin:round;">
</g>
<g style="fill:#840000; fill-opacity:0.0; 
stroke:#840000; stroke-width:60; stroke-opacity:1; 
stroke-linecap:round; stroke-linejoin:round;">
<path d="M4490 53320
L4470 53340
L4400 53370
L4350 53370
L4270 53340
L4230 53290
L4200 53240
L4180 53150
L4180 53070
L4200 52980
L4230 52930
L4270 52880
L4350 52860
L4400 52860
L4470 52880
L4490 52900
" />
</g>
<g style="fill:#840000; fill-opacity:0.0; 
stroke:#840000; stroke-width:100; stroke-opacity:1; 
stroke-linecap:round; stroke-linejoin:round;">
</g>
<g style="fill:#840000; fill-opacity:0.0; 
stroke:#840000; stroke-width:60; stroke-opacity:1; 
stroke-linecap:round; stroke-linejoin:round;">
<path d="M4200 73060
L4200 72550
L4320 72550
L4400 72570
L4440 72620
L4470 72670
L4490 72760
L4490 72840
L4470 72930
L4440 72980
L4400 73030
L4320 73060
L4200 73060
" />
</g>
<g style="fill:#840000; fill-opacity:0.0; 
stroke:#840000; stroke-width:100; stroke-opacity:1; 
stroke-linecap:round; stroke-linejoin:round;">
</g>
<g style="fill:#840000; fill-opacity:0.0; 
stroke:#840000; stroke-width:60; stroke-opacity:1; 
stroke-linecap:round; stroke-linejoin:round;">
<path d="M112990 23620
L112200 23620
" />
</g>
<g style="fill:#840000; fill-opacity:0.0; 
stroke:#840000; stroke-width:100; stroke-opacity:1; 
stroke-linecap:round; stroke-linejoin:round;">
</g>
<g style="fill:#840000; fill-opacity:0.0; 
stroke:#840000; stroke-width:60; stroke-opacity:1; 
stroke-linecap:round; stroke-linejoin:round;">
<path d="M112990 43300
L112200 43300
" />
</g>
<g style="fill:#840000; fill-opacity:0.0; 
stroke:#840000; stroke-width:100; stroke-opacity:1; 
stroke-linecap:round; stroke-linejoin:round;">
</g>
<g style="fill:#840000; fill-opacity:0.0; 
stroke:#840000; stroke-width:60; stroke-opacity:1; 
stroke-linecap:round; stroke-linejoin:round;">
<path d="M112990 62990
L112200 62990
" />
</g>
<g style="fill:#840000; fill-opacity:0.0; 
stroke:#840000; stroke-width:100; stroke-opacity:1; 
stroke-linecap:round; stroke-linejoin:round;">
</g>
<g style="fill:#840000; fill-opacity:0.0; 
stroke:#840000; stroke-width:60; stroke-opacity:1; 
stroke-linecap:round; stroke-linejoin:round;">
<path d="M112470 13850
L112710 13850
" />
<path d="M112420 14000
L112590 13490
L112760 14000
" />
</g>
<g style="fill:#840000; fill-opacity:0.0; 
stroke:#840000; stroke-width:100; stroke-opacity:1; 
stroke-linecap:round; stroke-linejoin:round;">
</g>
<g style="fill:#840000; fill-opacity:0.0; 
stroke:#840000; stroke-width:60; stroke-opacity:1; 
stroke-linecap:round; stroke-linejoin:round;">
<path d="M112630 33420
L112700 33440
L112730 33470
L112750 33520
L112750 33590
L112730 33640
L112700 33660
L112660 33690
L112460 33690
L112460 33180
L112630 33180
L112680 33200
L112700 33220
L112730 33270
L112730 33320
L112700 33370
L112680 33390
L112630 33420
L112460 33420
" />
</g>
<g style="fill:#840000; fill-opacity:0.0; 
stroke:#840000; stroke-width:100; stroke-opacity:1; 
stroke-linecap:round; stroke-linejoin:round;">
</g>
<g style="fill:#840000; fill-opacity:0.0; 
stroke:#840000; stroke-width:60; stroke-opacity:1; 
stroke-linecap:round; stroke-linejoin:round;">
<path d="M112750 53320
L112730 53340
L112660 53370
L112610 53370
L112530 53340
L112490 53290
L112460 53240
L112440 53150
L112440 53070
L112460 52980
L112490 52930
L112530 52880
L112610 52860
L112660 52860
L112730 52880
L112750 52900
" />
</g>
<g style="fill:#840000; fill-opacity:0.0; 
stroke:#840000; stroke-width:100; stroke-opacity:1; 
stroke-linecap:round; stroke-linejoin:round;">
</g>
<g style="fill:#840000; fill-opacity:0.0; 
stroke:#840000; stroke-width:60; stroke-opacity:1; 
stroke-linecap:round; stroke-linejoin:round;">
<path d="M112460 73060
L112460 72550
L112580 72550
L112660 72570
L112700 72620
L112730 72670
L112750 72760
L112750 72840
L112730 72930
L112700 72980
L112660 73030
L112580 73060
L112460 73060
" />
</g>
<g style="fill:#840000; fill-opacity:0.0; 
stroke:#840000; stroke-width:100; stroke-opacity:1; 
stroke-linecap:round; stroke-linejoin:round;">
</g>
<g style="fill:#840000; fill-opacity:0.0; 
stroke:#840000; stroke-width:60; stroke-opacity:1; 
stroke-linecap:round; stroke-linejoin:round;">
<path d="M78880 76280
L78880 75690
L79020 75690
L79110 75720
L79160 75780
L79190 75830
L79220 75940
L79220 76030
L79190 76140
L79160 76200
L79110 76250
L79020 76280
L78880 76280
" />
<path d="M79720 76280
L79720 75970
L79700 75920
L79640 75890
L79530 75890
L79470 75920
" />
<path d="M79720 76250
L79670 76280
L79530 76280
L79470 76250
L79440 76200
L79440 76140
L79470 76090
L79530 76060
L79670 76060
L79720 76030
" />
<path d="M79920 75890
L80140 75890
" />
<path d="M80000 75690
L80000 76200
L80030 76250
L80080 76280
L80140 76280
" />
<path d="M80570 76250
L80510 76280
L80400 76280
L80340 76250
L80310 76200
L80310 75970
L80340 75920
L80400 75890
L80510 75890
L80570 75920
L80590 75970
L80590 76030
L80310 76090
" />
<path d="M80850 76230
L80880 76250
L80850 76280
L80820 76250
L80850 76230
L80850 76280
" />
<path d="M80850 75920
L80880 75940
L80850 75970
L80820 75940
L80850 75920
L80850 75970
" />
</g>
<g style="fill:#840000; fill-opacity:0.0; 
stroke:#840000; stroke-width:100; stroke-opacity:1; 
stroke-linecap:round; stroke-linejoin:round;">
</g>
<g style="fill:#840000; fill-opacity:0.0; 
stroke:#840000; stroke-width:60; stroke-opacity:1; 
stroke-linecap:round; stroke-linejoin:round;">
<path d="M69680 76570
L112200 76570
" />
</g>
<g style="fill:#840000; fill-opacity:0.0; 
stroke:#840000; stroke-width:100; stroke-opacity:1; 
stroke-linecap:round; stroke-linejoin:round;">
</g>
<g style="fill:#840000; fill-opacity:0.0; 
stroke:#840000; stroke-width:60; stroke-opacity:1; 
stroke-linecap:round; stroke-linejoin:round;">
<path d="M70210 77380
L70210 76790
" />
<path d="M70550 77380
L70290 77040
" />
<path d="M70550 76790
L70210 77130
" />
<path d="M70800 77380
L70800 76990
" />
<path d="M70800 76790
L70770 76820
L70800 76850
L70830 76820
L70800 76790
L70800 76850
" />
<path d="M71420 77330
L71390 77350
L71310 77380
L71250 77380
L71160 77350
L71110 77300
L71080 77240
L71050 77130
L71050 77040
L71080 76930
L71110 76880
L71160 76820
L71250 76790
L71310 76790
L71390 76820
L71420 76850
" />
<path d="M71920 77380
L71920 77070
L71900 77020
L71840 76990
L71730 76990
L71670 77020
" />
<path d="M71920 77350
L71870 77380
L71730 77380
L71670 77350
L71640 77300
L71640 77240
L71670 77190
L71730 77160
L71870 77160
L71920 77130
" />
<path d="M72450 77380
L72450 76790
" />
<path d="M72450 77350
L72400 77380
L72280 77380
L72230 77350
L72200 77330
L72170 77270
L72170 77100
L72200 77040
L72230 77020
L72280 76990
L72400 76990
L72450 77020
" />
<path d="M73180 77070
L73380 77070
" />
<path d="M73460 77380
L73180 77380
L73180 76790
L73460 76790
" />
<path d="M73710 77330
L73740 77350
L73710 77380
L73680 77350
L73710 77330
L73710 77380
" />
<path d="M73990 77380
L73990 76790
L74130 76790
L74220 76820
L74270 76880
L74300 76930
L74330 77040
L74330 77130
L74300 77240
L74270 77300
L74220 77350
L74130 77380
L73990 77380
" />
<path d="M74580 77330
L74610 77350
L74580 77380
L74550 77350
L74580 77330
L74580 77380
" />
<path d="M74830 77210
L75110 77210
" />
<path d="M74780 77380
L74970 76790
L75170 77380
" />
<path d="M75370 77330
L75400 77350
L75370 77380
L75340 77350
L75370 77330
L75370 77380
" />
<path d="M76780 77350
L76720 77380
L76610 77380
L76550 77350
L76520 77300
L76520 77070
L76550 77020
L76610 76990
L76720 76990
L76780 77020
L76800 77070
L76800 77130
L76520 77190
" />
<path d="M77290 77350
L77230 77380
L77120 77380
L77060 77350
L77030 77300
L77030 77070
L77060 77020
L77120 76990
L77230 76990
L77290 77020
L77310 77070
L77310 77130
L77030 77190
" />
<path d="M77540 77350
L77600 77380
L77710 77380
L77770 77350
L77800 77300
L77800 77270
L77770 77210
L77710 77190
L77630 77190
L77570 77160
L77540 77100
L77540 77070
L77570 77020
L77630 76990
L77710 76990
L77770 77020
" />
<path d="M78300 77350
L78250 77380
L78130 77380
L78080 77350
L78050 77330
L78020 77270
L78020 77100
L78050 77040
L78080 77020
L78130 76990
L78250 76990
L78300 77020
" />
<path d="M78560 77380
L78560 76790
" />
<path d="M78810 77380
L78810 77070
L78790 77020
L78730 76990
L78640 76990
L78590 77020
L78560 77040
" />
<path d="M79320 77350
L79260 77380
L79150 77380
L79090 77350
L79060 77300
L79060 77070
L79090 77020
L79150 76990
L79260 76990
L79320 77020
L79340 77070
L79340 77130
L79060 77190
" />
<path d="M79600 77380
L79600 76990
" />
<path d="M79600 77040
L79630 77020
L79680 76990
L79770 76990
L79830 77020
L79850 77070
L79850 77380
" />
<path d="M79850 77070
L79880 77020
L79940 76990
L80020 76990
L80080 77020
L80110 77070
L80110 77380
" />
<path d="M80640 77380
L80640 77070
L80620 77020
L80560 76990
L80450 76990
L80390 77020
" />
<path d="M80640 77350
L80590 77380
L80450 77380
L80390 77350
L80360 77300
L80360 77240
L80390 77190
L80450 77160
L80590 77160
L80640 77130
" />
<path d="M81540 77610
L81510 77580
L81450 77490
L81430 77440
L81400 77350
L81370 77210
L81370 77100
L81400 76960
L81430 76880
L81450 76820
L81510 76740
L81540 76710
" />
<path d="M81730 76850
L81760 76820
L81820 76790
L81960 76790
L82010 76820
L82040 76850
L82070 76900
L82070 76960
L82040 77040
L81700 77380
L82070 77380
" />
<path d="M82430 76790
L82490 76790
L82550 76820
L82570 76850
L82600 76900
L82630 77020
L82630 77160
L82600 77270
L82570 77330
L82550 77350
L82490 77380
L82430 77380
L82380 77350
L82350 77330
L82320 77270
L82290 77160
L82290 77020
L82320 76900
L82350 76850
L82380 76820
L82430 76790
" />
<path d="M83190 77380
L82850 77380
" />
<path d="M83020 77380
L83020 76790
L82960 76880
L82910 76930
L82850 76960
" />
<path d="M83690 76990
L83690 77380
" />
<path d="M83550 76760
L83410 77190
L83780 77190
" />
<path d="M84000 77160
L84450 77160
" />
<path d="M84840 76790
L84900 76790
L84960 76820
L84980 76850
L85010 76900
L85040 77020
L85040 77160
L85010 77270
L84980 77330
L84960 77350
L84900 77380
L84840 77380
L84790 77350
L84760 77330
L84730 77270
L84700 77160
L84700 77020
L84730 76900
L84760 76850
L84790 76820
L84840 76790
" />
<path d="M85260 76850
L85290 76820
L85350 76790
L85490 76790
L85540 76820
L85570 76850
L85600 76900
L85600 76960
L85570 77040
L85230 77380
L85600 77380
" />
<path d="M85850 77160
L86300 77160
" />
<path d="M86550 76850
L86580 76820
L86640 76790
L86780 76790
L86830 76820
L86860 76850
L86890 76900
L86890 76960
L86860 77040
L86520 77380
L86890 77380
" />
<path d="M87390 76990
L87390 77380
" />
<path d="M87250 76760
L87110 77190
L87480 77190
" />
<path d="M88350 77070
L88430 77100
L88460 77130
L88490 77190
L88490 77270
L88460 77330
L88430 77350
L88380 77380
L88150 77380
L88150 76790
L88350 76790
L88400 76820
L88430 76850
L88460 76900
L88460 76960
L88430 77020
L88400 77040
L88350 77070
L88150 77070
" />
<path d="M88680 76790
L89080 76790
L88680 77380
L89080 77380
" />
<path d="M89640 77380
L89440 77100
" />
<path d="M89300 77380
L89300 76790
L89530 76790
L89580 76820
L89610 76850
L89640 76900
L89640 76990
L89610 77040
L89580 77070
L89530 77100
L89300 77100
" />
<path d="M90590 76990
L90590 77380
" />
<path d="M90450 76760
L90310 77190
L90680 77190
" />
<path d="M90840 76790
L91240 76790
L90980 77380
" />
<path d="M91770 77380
L91430 77380
" />
<path d="M91600 77380
L91600 76790
L91540 76880
L91490 76930
L91430 76960
" />
<path d="M92050 77380
L92160 77380
L92220 77350
L92250 77330
L92300 77240
L92330 77130
L92330 76900
L92300 76850
L92270 76820
L92220 76790
L92100 76790
L92050 76820
L92020 76850
L91990 76900
L91990 77040
L92020 77100
L92050 77130
L92100 77160
L92220 77160
L92270 77130
L92300 77100
L92330 77040
" />
<path d="M92520 77610
L92550 77580
L92610 77490
L92640 77440
L92660 77350
L92690 77210
L92690 77100
L92660 76960
L92640 76880
L92610 76820
L92550 76740
L92520 76710
" />
<path d="M92970 77160
L93420 77160
" />
<path d="M93700 76990
L93700 77580
" />
<path d="M93700 77020
L93760 76990
L93870 76990
L93930 77020
L93950 77040
L93980 77100
L93980 77270
L93950 77330
L93930 77350
L93870 77380
L93760 77380
L93700 77350
" />
<path d="M94230 77380
L94230 76990
" />
<path d="M94230 77100
L94260 77040
L94290 77020
L94340 76990
L94400 76990
" />
<path d="M94680 77380
L94630 77350
L94600 77330
L94570 77270
L94570 77100
L94600 77040
L94630 77020
L94680 76990
L94770 76990
L94830 77020
L94850 77040
L94880 77100
L94880 77270
L94850 77330
L94830 77350
L94770 77380
L94680 77380
" />
<path d="M95380 77380
L95380 76790
" />
<path d="M95380 77350
L95330 77380
L95210 77380
L95160 77350
L95130 77330
L95100 77270
L95100 77100
L95130 77040
L95160 77020
L95210 76990
L95330 76990
L95380 77020
" />
<path d="M95910 76990
L95910 77380
" />
<path d="M95660 76990
L95660 77300
L95690 77350
L95740 77380
L95830 77380
L95890 77350
L95910 77330
" />
<path d="M96440 77350
L96390 77380
L96270 77380
L96220 77350
L96190 77330
L96160 77270
L96160 77100
L96190 77040
L96220 77020
L96270 76990
L96390 76990
L96440 77020
" />
<path d="M96620 76990
L96840 76990
" />
<path d="M96700 76790
L96700 77300
L96730 77350
L96780 77380
L96840 77380
" />
</g>
<g style="fill:#840000; fill-opacity:0.0; 
stroke:#840000; stroke-width:100; stroke-opacity:1; 
stroke-linecap:round; stroke-linejoin:round;">
</g>
<g style="fill:#840000; fill-opacity:0.0; 
stroke:#840000; stroke-width:60; stroke-opacity:1; 
stroke-linecap:round; stroke-linejoin:round;">
<path d="M69680 75390
L112200 75390
" />
</g>
<g style="fill:#840000; fill-opacity:0.0; 
stroke:#840000; stroke-width:100; stroke-opacity:1; 
stroke-linecap:round; stroke-linejoin:round;">
</g>
<g style="fill:#840000; fill-opacity:0.0; 
stroke:#840000; stroke-width:120; stroke-opacity:1; 
stroke-linecap:round; stroke-linejoin:round;">
<path d="M104020 76280
L103820 76000
" />
<path d="M103680 76280
L103680 75690
L103910 75690
L103960 75720
L103990 75750
L104020 75800
L104020 75890
L103990 75940
L103960 75970
L103910 76000
L103680 76000
" />
<path d="M104500 76250
L104440 76280
L104330 76280
L104270 76250
L104240 76200
L104240 75970
L104270 75920
L104330 75890
L104440 75890
L104500 75920
L104520 75970
L104520 76030
L104240 76090
" />
<path d="M104720 75890
L104860 76280
L105010 75890
" />
<path d="M105230 76230
L105260 76250
L105230 76280
L105200 76250
L105230 76230
L105230 76280
" />
<path d="M105230 75920
L105260 75940
L105230 75970
L105200 75940
L105230 75920
L105230 75970
" />
</g>
<g style="fill:#840000; fill-opacity:0.0; 
stroke:#840000; stroke-width:100; stroke-opacity:1; 
stroke-linecap:round; stroke-linejoin:round;">
</g>
<g style="fill:#840000; fill-opacity:0.0; 
stroke:#840000; stroke-width:60; stroke-opacity:1; 
stroke-linecap:round; stroke-linejoin:round;">
<path d="M70180 76250
L70270 76280
L70410 76280
L70460 76250
L70490 76230
L70520 76170
L70520 76110
L70490 76060
L70460 76030
L70410 76000
L70290 75970
L70240 75940
L70210 75920
L70180 75860
L70180 75800
L70210 75750
L70240 75720
L70290 75690
L70440 75690
L70520 75720
" />
<path d="M70770 76280
L70770 75890
" />
<path d="M70770 75690
L70740 75720
L70770 75750
L70800 75720
L70770 75690
L70770 75750
" />
<path d="M70990 75890
L71300 75890
L70990 76280
L71300 76280
" />
<path d="M71760 76250
L71700 76280
L71590 76280
L71530 76250
L71500 76200
L71500 75970
L71530 75920
L71590 75890
L71700 75890
L71760 75920
L71780 75970
L71780 76030
L71500 76090
" />
<path d="M72040 76230
L72070 76250
L72040 76280
L72010 76250
L72040 76230
L72040 76280
" />
<path d="M72040 75920
L72070 75940
L72040 75970
L72010 75940
L72040 75920
L72040 75970
" />
<path d="M72740 76110
L73020 76110
" />
<path d="M72690 76280
L72880 75690
L73080 76280
" />
<path d="M73530 75890
L73530 76280
" />
<path d="M73390 75660
L73250 76090
L73620 76090
" />
</g>
<g style="fill:#840000; fill-opacity:0.0; 
stroke:#840000; stroke-width:100; stroke-opacity:1; 
stroke-linecap:round; stroke-linejoin:round;">
</g>
<g style="fill:#840000; fill-opacity:0.0; 
stroke:#840000; stroke-width:60; stroke-opacity:1; 
stroke-linecap:round; stroke-linejoin:round;">
<path d="M103680 77380
L103680 76790
" />
<path d="M104210 77380
L104210 76790
" />
<path d="M104210 77350
L104160 77380
L104040 77380
L103990 77350
L103960 77330
L103930 77270
L103930 77100
L103960 77040
L103990 77020
L104040 76990
L104160 76990
L104210 77020
" />
<path d="M104490 77330
L104520 77350
L104490 77380
L104460 77350
L104490 77330
L104490 77380
" />
<path d="M104490 77020
L104520 77040
L104490 77070
L104460 77040
L104490 77020
L104490 77070
" />
<path d="M105190 76850
L105220 76820
L105280 76790
L105420 76790
L105470 76820
L105500 76850
L105530 76900
L105530 76960
L105500 77040
L105160 77380
L105530 77380
" />
<path d="M106200 76760
L105700 77520
" />
<path d="M106650 76990
L106650 77380
" />
<path d="M106510 76760
L106370 77190
L106740 77190
" />
</g>
<g style="fill:#840000; fill-opacity:0.0; 
stroke:#840000; stroke-width:100; stroke-opacity:1; 
stroke-linecap:round; stroke-linejoin:round;">
</g>
<g style="fill:#840000; fill-opacity:0.0; 
stroke:#840000; stroke-width:60; stroke-opacity:1; 
stroke-linecap:round; stroke-linejoin:round;">
<path d="M69680 73820
L112200 73820
" />
</g>
<g style="fill:#840000; fill-opacity:0.0; 
stroke:#840000; stroke-width:100; stroke-opacity:1; 
stroke-linecap:round; stroke-linejoin:round;">
</g>
<g style="fill:#840000; fill-opacity:0.0; 
stroke:#840000; stroke-width:160; stroke-opacity:1; 
stroke-linecap:round; stroke-linejoin:round;">
<path d="M70250 74090
L70700 74090
" />
<path d="M70380 74880
L70470 74090
" />
<path d="M70870 74880
L70930 74360
" />
<path d="M70960 74090
L70920 74130
L70950 74170
L71000 74130
L70960 74090
L70950 74170
" />
<path d="M71200 74360
L71500 74360
" />
<path d="M71340 74090
L71260 74770
L71290 74840
L71360 74880
L71440 74880
" />
<path d="M71810 74880
L71740 74840
L71710 74770
L71790 74090
" />
<path d="M72410 74840
L72330 74880
L72180 74880
L72110 74840
L72080 74770
L72120 74470
L72170 74390
L72240 74360
L72390 74360
L72470 74390
L72500 74470
L72490 74540
L72100 74620
" />
<path d="M72790 74810
L72830 74840
L72790 74880
L72750 74840
L72790 74810
L72790 74880
" />
<path d="M72850 74390
L72880 74430
L72840 74470
L72800 74430
L72850 74390
L72840 74470
" />
</g>
<g style="fill:#840000; fill-opacity:0.0; 
stroke:#840000; stroke-width:100; stroke-opacity:1; 
stroke-linecap:round; stroke-linejoin:round;">
</g>
<g style="fill:#840000; fill-opacity:0.0; 
stroke:#840000; stroke-width:60; stroke-opacity:1; 
stroke-linecap:round; stroke-linejoin:round;">
<path d="M70410 73060
L70210 73060
" />
<path d="M70210 73370
L70210 72780
L70490 72780
" />
<path d="M70720 73370
L70720 72980
" />
<path d="M70720 72780
L70690 72810
L70720 72840
L70750 72810
L70720 72780
L70720 72840
" />
<path d="M71080 73370
L71030 73340
L71000 73290
L71000 72780
" />
<path d="M71540 73340
L71480 73370
L71370 73370
L71310 73340
L71280 73290
L71280 73060
L71310 73010
L71370 72980
L71480 72980
L71540 73010
L71560 73060
L71560 73120
L71280 73180
" />
<path d="M71820 73320
L71850 73340
L71820 73370
L71790 73340
L71820 73320
L71820 73370
" />
<path d="M71820 73010
L71850 73030
L71820 73060
L71790 73030
L71820 73010
L71820 73060
" />
<path d="M72520 73340
L72610 73370
L72750 73370
L72800 73340
L72830 73320
L72860 73260
L72860 73200
L72830 73150
L72800 73120
L72750 73090
L72630 73060
L72580 73030
L72550 73010
L72520 72950
L72520 72890
L72550 72840
L72580 72810
L72630 72780
L72780 72780
L72860 72810
" />
<path d="M73110 73370
L73110 72980
" />
<path d="M73110 72780
L73080 72810
L73110 72840
L73140 72810
L73110 72780
L73110 72840
" />
<path d="M73390 72980
L73390 73370
" />
<path d="M73390 73030
L73420 73010
L73470 72980
L73560 72980
L73620 73010
L73640 73060
L73640 73370
" />
<path d="M74170 72980
L74170 73460
L74150 73510
L74120 73540
L74060 73570
L73980 73570
L73920 73540
" />
<path d="M74170 73340
L74120 73370
L74000 73370
L73950 73340
L73920 73320
L73890 73260
L73890 73090
L73920 73030
L73950 73010
L74000 72980
L74120 72980
L74170 73010
" />
<path d="M74530 73370
L74480 73340
L74450 73290
L74450 72780
" />
<path d="M74990 73340
L74930 73370
L74820 73370
L74760 73340
L74730 73290
L74730 73060
L74760 73010
L74820 72980
L74930 72980
L74990 73010
L75010 73060
L75010 73120
L74730 73180
" />
<path d="M75270 73060
L75470 73060
" />
<path d="M75550 73370
L75270 73370
L75270 72780
L75550 72780
" />
<path d="M75800 72980
L75800 73370
" />
<path d="M75800 73030
L75830 73010
L75880 72980
L75970 72980
L76030 73010
L76050 73060
L76050 73370
" />
<path d="M76580 73370
L76580 72780
" />
<path d="M76580 73340
L76530 73370
L76410 73370
L76360 73340
L76330 73320
L76300 73260
L76300 73090
L76330 73030
L76360 73010
L76410 72980
L76530 72980
L76580 73010
" />
<path d="M77090 73340
L77030 73370
L76920 73370
L76860 73340
L76830 73290
L76830 73060
L76860 73010
L76920 72980
L77030 72980
L77090 73010
L77110 73060
L77110 73120
L76830 73180
" />
<path d="M77620 73370
L77620 72780
" />
<path d="M77620 73340
L77570 73370
L77450 73370
L77400 73340
L77370 73320
L77340 73260
L77340 73090
L77370 73030
L77400 73010
L77450 72980
L77570 72980
L77620 73010
" />
<path d="M77820 72980
L78040 72980
" />
<path d="M77900 72780
L77900 73290
L77930 73340
L77980 73370
L78040 73370
" />
<path d="M78320 73370
L78270 73340
L78240 73320
L78210 73260
L78210 73090
L78240 73030
L78270 73010
L78320 72980
L78410 72980
L78470 73010
L78490 73030
L78520 73090
L78520 73260
L78490 73320
L78470 73340
L78410 73370
L78320 73370
" />
<path d="M78770 73370
L78770 72780
L78910 72780
L79000 72810
L79050 72870
L79080 72920
L79110 73030
L79110 73120
L79080 73230
L79050 73290
L79000 73340
L78910 73370
L78770 73370
" />
<path d="M79360 73370
L79360 72980
" />
<path d="M79360 72780
L79330 72810
L79360 72840
L79390 72810
L79360 72780
L79360 72840
" />
<path d="M79560 72980
L79780 72980
" />
<path d="M79640 73370
L79640 72870
L79670 72810
L79720 72780
L79780 72780
" />
<path d="M79900 72980
L80120 72980
" />
<path d="M79980 73370
L79980 72870
L80010 72810
L80060 72780
L80120 72780
" />
<path d="M80260 72980
L80380 73370
L80490 73090
L80600 73370
L80710 72980
" />
<path d="M80940 73370
L80940 72980
" />
<path d="M80940 72780
L80910 72810
L80940 72840
L80970 72810
L80940 72780
L80940 72840
" />
<path d="M81140 72980
L81360 72980
" />
<path d="M81220 72780
L81220 73290
L81250 73340
L81300 73370
L81360 73370
" />
<path d="M81560 73370
L81560 72780
" />
<path d="M81810 73370
L81810 73060
L81790 73010
L81730 72980
L81640 72980
L81590 73010
L81560 73030
" />
<path d="M82200 72780
L82320 72780
L82370 72810
L82430 72870
L82460 72980
L82460 73180
L82430 73290
L82370 73340
L82320 73370
L82200 73370
L82150 73340
L82090 73290
L82060 73180
L82060 72980
L82090 72870
L82150 72810
L82200 72780
" />
<path d="M82630 72980
L82850 72980
" />
<path d="M82710 73370
L82710 72870
L82740 72810
L82790 72780
L82850 72780
" />
<path d="M82970 72980
L83190 72980
" />
<path d="M83050 73370
L83050 72870
L83080 72810
L83130 72780
L83190 72780
" />
<path d="M83360 73340
L83420 73370
L83530 73370
L83590 73340
L83620 73290
L83620 73260
L83590 73200
L83530 73180
L83450 73180
L83390 73150
L83360 73090
L83360 73060
L83390 73010
L83450 72980
L83530 72980
L83590 73010
" />
<path d="M84100 73340
L84040 73370
L83930 73370
L83870 73340
L83840 73290
L83840 73060
L83870 73010
L83930 72980
L84040 72980
L84100 73010
L84120 73060
L84120 73120
L83840 73180
" />
<path d="M84300 72980
L84520 72980
" />
<path d="M84380 72780
L84380 73290
L84410 73340
L84460 73370
L84520 73370
" />
<path d="M84720 73320
L84750 73340
L84720 73370
L84690 73340
L84720 73320
L84720 73370
" />
<path d="M84970 73340
L85030 73370
L85140 73370
L85200 73340
L85230 73290
L85230 73260
L85200 73200
L85140 73180
L85060 73180
L85000 73150
L84970 73090
L84970 73060
L85000 73010
L85060 72980
L85140 72980
L85200 73010
" />
<path d="M85730 73340
L85680 73370
L85560 73370
L85510 73340
L85480 73320
L85450 73260
L85450 73090
L85480 73030
L85510 73010
L85560 72980
L85680 72980
L85730 73010
" />
<path d="M85990 73370
L85990 72780
" />
<path d="M86240 73370
L86240 73060
L86220 73010
L86160 72980
L86070 72980
L86020 73010
L85990 73030
" />
</g>
<g style="fill:#840000; fill-opacity:0.0; 
stroke:#840000; stroke-width:100; stroke-opacity:1; 
stroke-linecap:round; stroke-linejoin:round;">
</g>
<g style="fill:#840000; fill-opacity:0.0; 
stroke:#840000; stroke-width:60; stroke-opacity:1; 
stroke-linecap:round; stroke-linejoin:round;">
<path d="M69680 71450
L112200 71450
" />
</g>
<g style="fill:#840000; fill-opacity:0.0; 
stroke:#840000; stroke-width:100; stroke-opacity:1; 
stroke-linecap:round; stroke-linejoin:round;">
</g>
<g style="fill:#840000; fill-opacity:0.0; 
stroke:#840000; stroke-width:60; stroke-opacity:1; 
stroke-linecap:round; stroke-linejoin:round;">
<path d="M70180 72280
L70270 72310
L70410 72310
L70460 72280
L70490 72260
L70520 72200
L70520 72140
L70490 72090
L70460 72060
L70410 72030
L70290 72000
L70240 71970
L70210 71950
L70180 71890
L70180 71830
L70210 71780
L70240 71750
L70290 71720
L70440 71720
L70520 71750
" />
<path d="M70770 72310
L70770 71720
" />
<path d="M71020 72310
L71020 72000
L71000 71950
L70940 71920
L70850 71920
L70800 71950
L70770 71970
" />
<path d="M71530 72280
L71470 72310
L71360 72310
L71300 72280
L71270 72230
L71270 72000
L71300 71950
L71360 71920
L71470 71920
L71530 71950
L71550 72000
L71550 72060
L71270 72120
" />
<path d="M72040 72280
L71980 72310
L71870 72310
L71810 72280
L71780 72230
L71780 72000
L71810 71950
L71870 71920
L71980 71920
L72040 71950
L72060 72000
L72060 72060
L71780 72120
" />
<path d="M72240 71920
L72460 71920
" />
<path d="M72320 71720
L72320 72230
L72350 72280
L72400 72310
L72460 72310
" />
<path d="M72660 72260
L72690 72280
L72660 72310
L72630 72280
L72660 72260
L72660 72310
" />
<path d="M72660 71950
L72690 71970
L72660 72000
L72630 71970
L72660 71950
L72660 72000
" />
<path d="M73810 71690
L73310 72450
" />
<path d="M74260 72310
L74260 72000
L74240 71950
L74180 71920
L74070 71920
L74010 71950
" />
<path d="M74260 72280
L74210 72310
L74070 72310
L74010 72280
L73980 72230
L73980 72170
L74010 72120
L74070 72090
L74210 72090
L74260 72060
" />
<path d="M74540 71920
L74540 72310
" />
<path d="M74540 71970
L74570 71950
L74620 71920
L74710 71920
L74770 71950
L74790 72000
L74790 72310
" />
<path d="M75320 72310
L75320 72000
L75300 71950
L75240 71920
L75130 71920
L75070 71950
" />
<path d="M75320 72280
L75270 72310
L75130 72310
L75070 72280
L75040 72230
L75040 72170
L75070 72120
L75130 72090
L75270 72090
L75320 72060
" />
<path d="M75680 72310
L75630 72280
L75600 72230
L75600 71720
" />
<path d="M75990 72310
L75940 72280
L75910 72260
L75880 72200
L75880 72030
L75910 71970
L75940 71950
L75990 71920
L76080 71920
L76140 71950
L76160 71970
L76190 72030
L76190 72200
L76160 72260
L76140 72280
L76080 72310
L75990 72310
" />
<path d="M76690 71920
L76690 72400
L76670 72450
L76640 72480
L76580 72510
L76500 72510
L76440 72480
" />
<path d="M76690 72280
L76640 72310
L76520 72310
L76470 72280
L76440 72260
L76410 72200
L76410 72030
L76440 71970
L76470 71950
L76520 71920
L76640 71920
L76690 71950
" />
<path d="M77390 71690
L76890 72450
" />
</g>
<g style="fill:#840000; fill-opacity:0.0; 
stroke:#840000; stroke-width:100; stroke-opacity:1; 
stroke-linecap:round; stroke-linejoin:round;">
</g>
<g style="fill:#840000; fill-opacity:0.0; 
stroke:#840000; stroke-width:60; stroke-opacity:1; 
stroke-linecap:round; stroke-linejoin:round;">
<path d="M77550 75390
L77550 76570
" />
</g>
<g style="fill:#840000; fill-opacity:0.0; 
stroke:#840000; stroke-width:100; stroke-opacity:1; 
stroke-linecap:round; stroke-linejoin:round;">
</g>
<g style="fill:#840000; fill-opacity:0.0; 
stroke:#840000; stroke-width:60; stroke-opacity:1; 
stroke-linecap:round; stroke-linejoin:round;">
<path d="M102750 75390
L102750 77950
" />
</g>
<g style="fill:#840000; fill-opacity:0.0; 
stroke:#840000; stroke-width:0; stroke-opacity:1; 
stroke-linecap:round; stroke-linejoin:round;">
</g>
<g style="fill:#FFFFC1; fill-opacity:0.6; 
stroke:#FFFFC1; stroke-width:0; stroke-opacity:1; 
stroke-linecap:round; stroke-linejoin:round;">
<polyline style="fill-rule:evenodd;"
points="51000,26500
55000,28500
51000,30500
51000,26500
" /> 
</g>
<g style="fill:#840000; fill-opacity:0.0; 
stroke:#840000; stroke-width:60; stroke-opacity:1; 
stroke-linecap:round; stroke-linejoin:round;">
<polyline fill="none;"
points="51000,26500
55000,28500
51000,30500
51000,26500
" /> 
<path d="M52000 27000
L52000 24500
" />
<path d="M51780 28000
L52180 27870
L51780 27740
" />
<path d="M52030 27600
L52030 27300
" />
<path d="M52180 27450
L51880 27450
" />
</g>
<g style="fill:#008484; fill-opacity:0.0; 
stroke:#008484; stroke-width:60; stroke-opacity:1; 
stroke-linecap:round; stroke-linejoin:round;">
<path d="M51610 25670
L51880 25670
" />
<path d="M51460 25770
L51750 25860
L51750 25620
" />
</g>
<g style="fill:#840000; fill-opacity:0.0; 
stroke:#840000; stroke-width:60; stroke-opacity:1; 
stroke-linecap:round; stroke-linejoin:round;">
<path d="M52000 30000
L52000 32500
" />
<path d="M51780 29760
L52180 29630
L51780 29500
" />
<path d="M52030 29360
L52030 29060
" />
</g>
<g style="fill:#008484; fill-opacity:0.0; 
stroke:#008484; stroke-width:60; stroke-opacity:1; 
stroke-linecap:round; stroke-linejoin:round;">
<path d="M51880 31330
L51880 31550
" />
<path d="M51880 31440
L51480 31440
L51540 31480
L51580 31520
L51600 31550
" />
<path d="M51480 31190
L51480 30950
L51630 31080
L51630 31020
L51650 30980
L51670 30960
L51710 30950
L51800 30950
L51840 30960
L51860 30980
L51880 31020
L51880 31140
L51860 31170
L51840 31190
" />
</g>
<g style="fill:#840000; fill-opacity:0.0; 
stroke:#840000; stroke-width:60; stroke-opacity:1; 
stroke-linecap:round; stroke-linejoin:round;">
<path d="M51000 27500
L48000 27500
" />
<path d="M51300 27530
L51600 27530
" />
<path d="M51450 27680
L51450 27380
" />
</g>
<g style="fill:#008484; fill-opacity:0.0; 
stroke:#008484; stroke-width:60; stroke-opacity:1; 
stroke-linecap:round; stroke-linejoin:round;">
<path d="M49600 26980
L49410 26980
L49390 27170
L49410 27150
L49440 27130
L49540 27130
L49580 27150
L49600 27170
L49610 27210
L49610 27300
L49600 27340
L49580 27360
L49540 27380
L49440 27380
L49410 27360
L49390 27340
" />
</g>
<g style="fill:#840000; fill-opacity:0.0; 
stroke:#840000; stroke-width:60; stroke-opacity:1; 
stroke-linecap:round; stroke-linejoin:round;">
<path d="M51000 29500
L48000 29500
" />
<path d="M51300 29530
L51600 29530
" />
</g>
<g style="fill:#008484; fill-opacity:0.0; 
stroke:#008484; stroke-width:60; stroke-opacity:1; 
stroke-linecap:round; stroke-linejoin:round;">
<path d="M49580 28980
L49500 28980
L49460 29000
L49440 29020
L49410 29080
L49390 29150
L49390 29300
L49410 29340
L49420 29360
L49460 29380
L49540 29380
L49580 29360
L49600 29340
L49610 29300
L49610 29210
L49600 29170
L49580 29150
L49540 29130
L49460 29130
L49420 29150
L49410 29170
L49390 29210
" />
</g>
<g style="fill:#840000; fill-opacity:0.0; 
stroke:#840000; stroke-width:60; stroke-opacity:1; 
stroke-linecap:round; stroke-linejoin:round;">
<path d="M55000 28500
L58000 28500
" />
</g>
<g style="fill:#008484; fill-opacity:0.0; 
stroke:#008484; stroke-width:60; stroke-opacity:1; 
stroke-linecap:round; stroke-linejoin:round;">
<path d="M56370 27980
L56630 27980
L56460 28380
" />
</g>
<g style="fill:#840000; fill-opacity:0.0; 
stroke:#840000; stroke-width:60; stroke-opacity:1; 
stroke-linecap:round; stroke-linejoin:round;">
<path d="M52170 26140
L52170 26630
L52200 26680
L52230 26710
L52290 26740
L52400 26740
L52460 26710
L52490 26680
L52520 26630
L52520 26140
" />
<path d="M52770 26200
L52800 26170
L52860 26140
L53000 26140
L53060 26170
L53090 26200
L53120 26260
L53120 26310
L53090 26400
L52750 26740
L53120 26740
" />
<path d="M53490 26140
L53540 26140
L53600 26170
L53630 26200
L53660 26260
L53690 26370
L53690 26510
L53660 26630
L53630 26680
L53600 26710
L53540 26740
L53490 26740
L53430 26710
L53400 26680
L53370 26630
L53340 26510
L53340 26370
L53370 26260
L53400 26200
L53430 26170
L53490 26140
" />
<path d="M54260 26740
L53910 26740
" />
<path d="M54090 26740
L54090 26140
L54030 26230
L53970 26280
L53910 26310
" />
<path d="M54710 26430
L54800 26460
L54830 26480
L54860 26540
L54860 26630
L54830 26680
L54800 26710
L54740 26740
L54510 26740
L54510 26140
L54710 26140
L54770 26170
L54800 26200
L54830 26260
L54830 26310
L54800 26370
L54770 26400
L54710 26430
L54510 26430
" />
</g>
<g style="fill:#008484; fill-opacity:0.0; 
stroke:#008484; stroke-width:60; stroke-opacity:1; 
stroke-linecap:round; stroke-linejoin:round;">
<path d="M53480 30200
L53580 30200
L53630 30220
L53670 30270
L53700 30360
L53700 30530
L53670 30620
L53630 30670
L53580 30700
L53480 30700
L53440 30670
L53390 30620
L53370 30530
L53370 30360
L53390 30270
L53440 30220
L53480 30200
" />
<path d="M53910 30700
L53910 30200
L54100 30200
L54150 30220
L54170 30240
L54190 30290
L54190 30360
L54170 30410
L54150 30430
L54100 30460
L53910 30460
" />
<path d="M54620 30360
L54620 30700
" />
<path d="M54500 30170
L54390 30530
L54690 30530
" />
<path d="M54840 30200
L55170 30200
L54960 30700
" />
<path d="M55460 30200
L55510 30200
L55560 30220
L55580 30240
L55610 30290
L55630 30390
L55630 30510
L55610 30600
L55580 30650
L55560 30670
L55510 30700
L55460 30700
L55420 30670
L55390 30650
L55370 30600
L55350 30510
L55350 30390
L55370 30290
L55390 30240
L55420 30220
L55460 30200
" />
</g>
<g style="fill:#008484; fill-opacity:0.0; 
stroke:#008484; stroke-width:0; stroke-opacity:1; 
stroke-linecap:round; stroke-linejoin:round;">
</g>
<g style="fill:#FFFFC1; fill-opacity:0.6; 
stroke:#FFFFC1; stroke-width:0; stroke-opacity:1; 
stroke-linecap:round; stroke-linejoin:round;">
<polyline style="fill-rule:evenodd;"
points="30000,33500
34000,35500
30000,37500
30000,33500
" /> 
</g>
<g style="fill:#840000; fill-opacity:0.0; 
stroke:#840000; stroke-width:60; stroke-opacity:1; 
stroke-linecap:round; stroke-linejoin:round;">
<polyline fill="none;"
points="30000,33500
34000,35500
30000,37500
30000,33500
" /> 
<path d="M31000 37000
L31000 39500
" />
<path d="M30780 36760
L31180 36630
L30780 36500
" />
<path d="M31030 36360
L31030 36060
" />
</g>
<g style="fill:#008484; fill-opacity:0.0; 
stroke:#008484; stroke-width:60; stroke-opacity:1; 
stroke-linecap:round; stroke-linejoin:round;">
<path d="M30610 38170
L30880 38170
" />
<path d="M30460 38270
L30750 38360
L30750 38120
" />
</g>
<g style="fill:#840000; fill-opacity:0.0; 
stroke:#840000; stroke-width:60; stroke-opacity:1; 
stroke-linecap:round; stroke-linejoin:round;">
<path d="M31000 34000
L31000 31500
" />
<path d="M30780 35000
L31180 34870
L30780 34740
" />
<path d="M31030 34600
L31030 34300
" />
<path d="M31180 34450
L30880 34450
" />
</g>
<g style="fill:#008484; fill-opacity:0.0; 
stroke:#008484; stroke-width:60; stroke-opacity:1; 
stroke-linecap:round; stroke-linejoin:round;">
<path d="M30650 32790
L30630 32830
L30610 32840
L30580 32860
L30560 32860
L30520 32840
L30500 32830
L30480 32790
L30480 32710
L30500 32670
L30520 32650
L30560 32640
L30580 32640
L30610 32650
L30630 32670
L30650 32710
L30650 32790
L30670 32830
L30690 32840
L30730 32860
L30800 32860
L30840 32840
L30860 32830
L30880 32790
L30880 32710
L30860 32670
L30840 32650
L30800 32640
L30730 32640
L30690 32650
L30670 32670
L30650 32710
" />
</g>
<g style="fill:#840000; fill-opacity:0.0; 
stroke:#840000; stroke-width:60; stroke-opacity:1; 
stroke-linecap:round; stroke-linejoin:round;">
<path d="M34000 35500
L37000 35500
" />
</g>
<g style="fill:#008484; fill-opacity:0.0; 
stroke:#008484; stroke-width:60; stroke-opacity:1; 
stroke-linecap:round; stroke-linejoin:round;">
<path d="M35610 35380
L35390 35380
" />
<path d="M35500 35380
L35500 34980
L35460 35040
L35420 35080
L35390 35100
" />
</g>
<g style="fill:#840000; fill-opacity:0.0; 
stroke:#840000; stroke-width:60; stroke-opacity:1; 
stroke-linecap:round; stroke-linejoin:round;">
<path d="M30000 36500
L27000 36500
" />
<path d="M30300 36530
L30600 36530
" />
</g>
<g style="fill:#008484; fill-opacity:0.0; 
stroke:#008484; stroke-width:60; stroke-opacity:1; 
stroke-linecap:round; stroke-linejoin:round;">
<path d="M28390 36020
L28410 36000
L28440 35980
L28540 35980
L28580 36000
L28600 36020
L28610 36060
L28610 36100
L28600 36150
L28370 36380
L28610 36380
" />
</g>
<g style="fill:#840000; fill-opacity:0.0; 
stroke:#840000; stroke-width:60; stroke-opacity:1; 
stroke-linecap:round; stroke-linejoin:round;">
<path d="M30000 34500
L27000 34500
" />
<path d="M30300 34530
L30600 34530
" />
<path d="M30450 34680
L30450 34380
" />
</g>
<g style="fill:#008484; fill-opacity:0.0; 
stroke:#008484; stroke-width:60; stroke-opacity:1; 
stroke-linecap:round; stroke-linejoin:round;">
<path d="M28370 33980
L28610 33980
L28480 34130
L28540 34130
L28580 34150
L28600 34170
L28610 34210
L28610 34300
L28600 34340
L28580 34360
L28540 34380
L28420 34380
L28390 34360
L28370 34340
" />
</g>
<g style="fill:#840000; fill-opacity:0.0; 
stroke:#840000; stroke-width:60; stroke-opacity:1; 
stroke-linecap:round; stroke-linejoin:round;">
<path d="M31390 33140
L31390 33630
L31420 33680
L31450 33710
L31510 33740
L31620 33740
L31680 33710
L31710 33680
L31740 33630
L31740 33140
" />
<path d="M31990 33200
L32020 33170
L32080 33140
L32220 33140
L32280 33170
L32310 33200
L32340 33260
L32340 33310
L32310 33400
L31970 33740
L32340 33740
" />
<path d="M32710 33140
L32760 33140
L32820 33170
L32850 33200
L32880 33260
L32910 33370
L32910 33510
L32880 33630
L32850 33680
L32820 33710
L32760 33740
L32710 33740
L32650 33710
L32620 33680
L32590 33630
L32560 33510
L32560 33370
L32590 33260
L32620 33200
L32650 33170
L32710 33140
" />
<path d="M33130 33200
L33160 33170
L33220 33140
L33360 33140
L33420 33170
L33450 33200
L33480 33260
L33480 33310
L33450 33400
L33110 33740
L33480 33740
" />
<path d="M33700 33570
L33990 33570
" />
<path d="M33650 33740
L33850 33140
L34050 33740
" />
</g>
<g style="fill:#008484; fill-opacity:0.0; 
stroke:#008484; stroke-width:60; stroke-opacity:1; 
stroke-linecap:round; stroke-linejoin:round;">
<path d="M31930 38240
L31640 38240
L31640 37640
" />
<path d="M32130 38240
L32130 37640
L32330 38070
L32530 37640
L32530 38240
" />
<path d="M32770 37640
L33140 37640
L32940 37870
L33020 37870
L33080 37900
L33110 37930
L33140 37980
L33140 38130
L33110 38180
L33080 38210
L33020 38240
L32850 38240
L32790 38210
L32770 38180
" />
<path d="M33680 37640
L33390 37640
L33360 37930
L33390 37900
L33450 37870
L33590 37870
L33650 37900
L33680 37930
L33710 37980
L33710 38130
L33680 38180
L33650 38210
L33590 38240
L33450 38240
L33390 38210
L33360 38180
" />
<path d="M34050 37900
L33990 37870
L33960 37840
L33930 37780
L33930 37760
L33960 37700
L33990 37670
L34050 37640
L34160 37640
L34220 37670
L34250 37700
L34280 37760
L34280 37780
L34250 37840
L34220 37870
L34160 37900
L34050 37900
L33990 37930
L33960 37960
L33930 38010
L33930 38130
L33960 38180
L33990 38210
L34050 38240
L34160 38240
L34220 38210
L34250 38180
L34280 38130
L34280 38010
L34250 37960
L34220 37930
L34160 37900
" />
<path d="M13050 17040
L13510 17040
" />
<path d="M13280 17270
L13280 16810
" />
<path d="M13710 16670
L13910 17270
L14110 16670
" />
<path d="M14560 17270
L14560 16960
L14530 16900
L14470 16870
L14360 16870
L14300 16900
" />
<path d="M14560 17240
L14500 17270
L14360 17270
L14300 17240
L14270 17190
L14270 17130
L14300 17070
L14360 17040
L14500 17040
L14560 17010
" />
<path d="M14840 16870
L14840 17270
" />
<path d="M14840 16930
L14870 16900
L14930 16870
L15010 16870
L15070 16900
L15100 16960
L15100 17270
" />
</g>
<g style="fill:#848400; fill-opacity:0.0; 
stroke:#848400; stroke-width:60; stroke-opacity:1; 
stroke-linecap:round; stroke-linejoin:round;">
</g>
<g style="fill:#848400; fill-opacity:0.0; 
stroke:#848400; stroke-width:100; stroke-opacity:1; 
stroke-linecap:round; stroke-linejoin:round;">
<polyline fill="none;"
points="16000,17000
15700,16700
15400,16700
15400,17300
15700,17300
16000,17000
" /> 
</g>
<g style="fill:#848400; fill-opacity:0.0; 
stroke:#848400; stroke-width:60; stroke-opacity:1; 
stroke-linecap:round; stroke-linejoin:round;">
<path d="M13010 41600
L13300 41600
" />
<path d="M12960 41770
L13160 41170
L13360 41770
" />
<path d="M13870 41200
L13810 41170
L13720 41170
L13640 41200
L13580 41260
L13550 41310
L13520 41430
L13520 41510
L13550 41630
L13580 41690
L13640 41740
L13720 41770
L13780 41770
L13870 41740
L13900 41710
L13900 41510
L13780 41510
" />
<path d="M14150 41770
L14150 41170
L14500 41770
L14500 41170
" />
<path d="M14780 41770
L14780 41170
L14930 41170
L15010 41200
L15070 41260
L15100 41310
L15130 41430
L15130 41510
L15100 41630
L15070 41690
L15010 41740
L14930 41770
L14780 41770
" />
</g>
<g style="fill:#848400; fill-opacity:0.0; 
stroke:#848400; stroke-width:100; stroke-opacity:1; 
stroke-linecap:round; stroke-linejoin:round;">
<polyline fill="none;"
points="16000,41500
15700,41200
15400,41200
15400,41800
15700,41800
16000,41500
" /> 
</g>
<g style="fill:#848400; fill-opacity:0.0; 
stroke:#848400; stroke-width:60; stroke-opacity:1; 
stroke-linecap:round; stroke-linejoin:round;">
<path d="M13050 44540
L13510 44540
" />
<path d="M13710 44170
L13910 44770
L14110 44170
" />
<path d="M14560 44770
L14560 44460
L14530 44400
L14470 44370
L14360 44370
L14300 44400
" />
<path d="M14560 44740
L14500 44770
L14360 44770
L14300 44740
L14270 44690
L14270 44630
L14300 44570
L14360 44540
L14500 44540
L14560 44510
" />
<path d="M14840 44370
L14840 44770
" />
<path d="M14840 44430
L14870 44400
L14930 44370
L15010 44370
L15070 44400
L15100 44460
L15100 44770
" />
</g>
<g style="fill:#848400; fill-opacity:0.0; 
stroke:#848400; stroke-width:100; stroke-opacity:1; 
stroke-linecap:round; stroke-linejoin:round;">
<polyline fill="none;"
points="16000,44500
15700,44200
15400,44200
15400,44800
15700,44800
16000,44500
" /> 
</g>
<g style="fill:#848400; fill-opacity:0.0; 
stroke:#848400; stroke-width:60; stroke-opacity:1; 
stroke-linecap:round; stroke-linejoin:round;">
<path d="M37980 22270
L37980 21670
" />
<path d="M38270 21870
L38270 22270
" />
<path d="M38270 21930
L38300 21900
L38360 21870
L38440 21870
L38500 21900
L38530 21960
L38530 22270
" />
<path d="M39130 22270
L38780 22270
" />
<path d="M38960 22270
L38960 21670
L38900 21760
L38840 21810
L38780 21840
" />
</g>
<g style="fill:#848400; fill-opacity:0.0; 
stroke:#848400; stroke-width:100; stroke-opacity:1; 
stroke-linecap:round; stroke-linejoin:round;">
<polyline fill="none;"
points="40000,22000
39700,21700
39400,21700
39400,22300
39700,22300
40000,22000
" /> 
</g>
<g style="fill:#848400; fill-opacity:0.0; 
stroke:#848400; stroke-width:0; stroke-opacity:1; 
stroke-linecap:round; stroke-linejoin:round;">
</g>
<g style="fill:#840000; fill-opacity:0.0; 
stroke:#840000; stroke-width:60; stroke-opacity:1; 
stroke-linecap:round; stroke-linejoin:round;">
<rect x="18500" y="33000" width="1000" height="3000" rx="0" />
</g>
<g style="fill:#840000; fill-opacity:1.0; 
stroke:#840000; stroke-width:60; stroke-opacity:1; 
stroke-linecap:round; stroke-linejoin:round;">
<polyline style="fill-rule:evenodd;"
points="19500,34500
19700,34300
19700,34700
" /> 
<path d="M19000 33000
L19000 32000
" />
<path d="M18880 32390
L18880 32610
" />
<path d="M18880 32500
L18480 32500
L18540 32540
L18580 32580
L18600 32610
" />
<path d="M19700 34500
L20500 34500
" />
<path d="M19990 34020
L20010 34000
L20040 33980
L20140 33980
L20180 34000
L20200 34020
L20210 34060
L20210 34100
L20200 34150
L19970 34380
L20210 34380
" />
<path d="M19000 36000
L19000 37000
" />
<path d="M18480 36630
L18480 36390
L18630 36520
L18630 36460
L18650 36420
L18670 36400
L18710 36390
L18800 36390
L18840 36400
L18860 36420
L18880 36460
L18880 36580
L18860 36610
L18840 36630
" />
<path d="M18260 35280
L18020 35440
" />
<path d="M18260 35560
L17760 35560
L17760 35370
L17780 35320
L17800 35300
L17850 35280
L17920 35280
L17970 35300
L17990 35320
L18020 35370
L18020 35560
" />
<path d="M17760 35130
L18260 34970
L17760 34800
" />
<path d="M17800 34650
L17780 34630
L17760 34580
L17760 34460
L17780 34420
L17800 34390
L17850 34370
L17900 34370
L17970 34390
L18260 34680
L18260 34370
" />
<path d="M17760 34060
L17760 34010
L17780 33960
L17800 33940
L17850 33910
L17950 33890
L18070 33890
L18160 33910
L18210 33940
L18230 33960
L18260 34010
L18260 34060
L18230 34100
L18210 34130
L18160 34150
L18070 34170
L17950 34170
L17850 34150
L17800 34130
L17780 34100
L17760 34060
" />
<path d="M17800 33690
L17780 33670
L17760 33620
L17760 33500
L17780 33460
L17800 33430
L17850 33410
L17900 33410
L17970 33430
L18260 33720
L18260 33410
" />
</g>
<g style="fill:#008484; fill-opacity:1.0; 
stroke:#008484; stroke-width:60; stroke-opacity:1; 
stroke-linecap:round; stroke-linejoin:round;">
<path d="M19260 35500
L19260 35780
" />
<path d="M19260 35640
L18760 35640
L18830 35690
L18880 35740
L18900 35780
" />
<path d="M18760 35190
L18760 35140
L18780 35090
L18800 35070
L18850 35040
L18950 35020
L19070 35020
L19160 35040
L19210 35070
L19230 35090
L19260 35140
L19260 35190
L19230 35230
L19210 35260
L19160 35280
L19070 35300
L18950 35300
L18850 35280
L18800 35260
L18780 35230
L18760 35190
" />
<path d="M19260 34800
L18760 34800
" />
<path d="M19070 34750
L19260 34610
" />
<path d="M18920 34610
L19110 34800
" />
<path d="M19260 34400
L18760 34400
L18760 34210
L18780 34160
L18800 34140
L18850 34120
L18920 34120
L18970 34140
L18990 34160
L19020 34210
L19020 34400
" />
<path d="M18760 33810
L18760 33710
L18780 33660
L18830 33620
L18920 33590
L19090 33590
L19180 33620
L19230 33660
L19260 33710
L19260 33810
L19230 33850
L19180 33900
L19090 33920
L18920 33920
L18830 33900
L18780 33850
L18760 33810
" />
<path d="M18760 33450
L18760 33170
" />
<path d="M19260 33310
L18760 33310
" />
<path d="M12910 30040
L13370 30040
" />
<path d="M13140 30270
L13140 29810
" />
<path d="M13570 29670
L13770 30270
L13970 29670
" />
<path d="M14160 30270
L14160 29870
" />
<path d="M14160 29990
L14190 29930
L14220 29900
L14280 29870
L14330 29870
" />
<path d="M14760 30240
L14700 30270
L14590 30270
L14530 30240
L14500 30190
L14500 29960
L14530 29900
L14590 29870
L14700 29870
L14760 29900
L14790 29960
L14790 30010
L14500 30070
" />
<path d="M14960 29870
L15190 29870
" />
<path d="M15040 30270
L15040 29760
L15070 29700
L15130 29670
L15190 29670
" />
</g>
<g style="fill:#848400; fill-opacity:1.0; 
stroke:#848400; stroke-width:60; stroke-opacity:1; 
stroke-linecap:round; stroke-linejoin:round;">
</g>
<g style="fill:#848400; fill-opacity:0.0; 
stroke:#848400; stroke-width:100; stroke-opacity:1; 
stroke-linecap:round; stroke-linejoin:round;">
<polyline fill="none;"
points="16000,30000
15700,29700
15400,29700
15400,30300
15700,30300
16000,30000
" /> 
</g>
<g style="fill:#848400; fill-opacity:0.0; 
stroke:#848400; stroke-width:60; stroke-opacity:1; 
stroke-linecap:round; stroke-linejoin:round;">
</g>
<g style="fill:#008400; fill-opacity:0.0; 
stroke:#008400; stroke-width:60; stroke-opacity:1; 
stroke-linecap:round; stroke-linejoin:round;">
<path d="M16000 30000
L19000 30000
" />
<path d="M19000 30000
L19000 32000
" />
<path d="M19000 37000
L19000 41500
" />
<path d="M16000 41500
L66500 41500
" />
<path d="M20500 34500
L27000 34500
" />
<path d="M46000 35500
L37000 35500
" />
<path d="M39000 35500
L39000 40000
" />
<path d="M39000 40000
L25000 40000
" />
<path d="M25000 40000
L25000 36500
" />
<path d="M25000 36500
L27000 36500
" />
<path d="M31000 31500
L31000 17000
" />
<path d="M16000 17000
L71000 17000
" />
<path d="M31000 39500
L31000 44500
" />
<path d="M16000 44500
L71000 44500
" />
</g>
<g style="fill:#008400; fill-opacity:0.0; 
stroke:#008400; stroke-width:0; stroke-opacity:1; 
stroke-linecap:round; stroke-linejoin:round;">
</g>
<g style="fill:#FFFFC1; fill-opacity:0.6; 
stroke:#FFFFC1; stroke-width:0; stroke-opacity:1; 
stroke-linecap:round; stroke-linejoin:round;">
<polyline style="fill-rule:evenodd;"
points="70000,25500
74000,27500
70000,29500
70000,25500
" /> 
</g>
<g style="fill:#840000; fill-opacity:0.0; 
stroke:#840000; stroke-width:60; stroke-opacity:1; 
stroke-linecap:round; stroke-linejoin:round;">
<polyline fill="none;"
points="70000,25500
74000,27500
70000,29500
70000,25500
" /> 
<path d="M71000 26000
L71000 23500
" />
<path d="M70780 27000
L71180 26870
L70780 26740
" />
<path d="M71030 26600
L71030 26300
" />
<path d="M71180 26450
L70880 26450
" />
</g>
<g style="fill:#008484; fill-opacity:0.0; 
stroke:#008484; stroke-width:60; stroke-opacity:1; 
stroke-linecap:round; stroke-linejoin:round;">
<path d="M70610 24670
L70880 24670
" />
<path d="M70460 24770
L70750 24860
L70750 24620
" />
</g>
<g style="fill:#840000; fill-opacity:0.0; 
stroke:#840000; stroke-width:60; stroke-opacity:1; 
stroke-linecap:round; stroke-linejoin:round;">
<path d="M71000 29000
L71000 31500
" />
<path d="M70780 28760
L71180 28630
L70780 28500
" />
<path d="M71030 28360
L71030 28060
" />
</g>
<g style="fill:#008484; fill-opacity:0.0; 
stroke:#008484; stroke-width:60; stroke-opacity:1; 
stroke-linecap:round; stroke-linejoin:round;">
<path d="M70880 30330
L70880 30550
" />
<path d="M70880 30440
L70480 30440
L70540 30480
L70580 30520
L70600 30550
" />
<path d="M70480 30190
L70480 29950
L70630 30080
L70630 30020
L70650 29980
L70670 29960
L70710 29950
L70800 29950
L70840 29960
L70860 29980
L70880 30020
L70880 30140
L70860 30170
L70840 30190
" />
</g>
<g style="fill:#840000; fill-opacity:0.0; 
stroke:#840000; stroke-width:60; stroke-opacity:1; 
stroke-linecap:round; stroke-linejoin:round;">
<path d="M74000 27500
L77000 27500
" />
</g>
<g style="fill:#008484; fill-opacity:0.0; 
stroke:#008484; stroke-width:60; stroke-opacity:1; 
stroke-linecap:round; stroke-linejoin:round;">
<path d="M75610 27380
L75390 27380
" />
<path d="M75500 27380
L75500 26980
L75460 27040
L75420 27080
L75390 27100
" />
</g>
<g style="fill:#840000; fill-opacity:0.0; 
stroke:#840000; stroke-width:60; stroke-opacity:1; 
stroke-linecap:round; stroke-linejoin:round;">
<path d="M70000 28500
L67000 28500
" />
<path d="M70300 28530
L70600 28530
" />
</g>
<g style="fill:#008484; fill-opacity:0.0; 
stroke:#008484; stroke-width:60; stroke-opacity:1; 
stroke-linecap:round; stroke-linejoin:round;">
<path d="M68390 28020
L68410 28000
L68440 27980
L68540 27980
L68580 28000
L68600 28020
L68610 28060
L68610 28100
L68600 28150
L68370 28380
L68610 28380
" />
</g>
<g style="fill:#840000; fill-opacity:0.0; 
stroke:#840000; stroke-width:60; stroke-opacity:1; 
stroke-linecap:round; stroke-linejoin:round;">
<path d="M70000 26500
L67000 26500
" />
<path d="M70300 26530
L70600 26530
" />
<path d="M70450 26680
L70450 26380
" />
</g>
<g style="fill:#008484; fill-opacity:0.0; 
stroke:#008484; stroke-width:60; stroke-opacity:1; 
stroke-linecap:round; stroke-linejoin:round;">
<path d="M68370 25980
L68610 25980
L68480 26130
L68540 26130
L68580 26150
L68600 26170
L68610 26210
L68610 26300
L68600 26340
L68580 26360
L68540 26380
L68420 26380
L68390 26360
L68370 26340
" />
</g>
<g style="fill:#840000; fill-opacity:0.0; 
stroke:#840000; stroke-width:60; stroke-opacity:1; 
stroke-linecap:round; stroke-linejoin:round;">
<path d="M71220 25140
L71220 25630
L71250 25680
L71280 25710
L71340 25740
L71450 25740
L71510 25710
L71540 25680
L71570 25630
L71570 25140
" />
<path d="M71820 25200
L71850 25170
L71910 25140
L72050 25140
L72110 25170
L72140 25200
L72170 25260
L72170 25310
L72140 25400
L71800 25740
L72170 25740
" />
<path d="M72540 25140
L72590 25140
L72650 25170
L72680 25200
L72710 25260
L72740 25370
L72740 25510
L72710 25630
L72680 25680
L72650 25710
L72590 25740
L72540 25740
L72480 25710
L72450 25680
L72420 25630
L72390 25510
L72390 25370
L72420 25260
L72450 25200
L72480 25170
L72540 25140
" />
<path d="M73310 25740
L72960 25740
" />
<path d="M73140 25740
L73140 25140
L73080 25230
L73020 25280
L72960 25310
" />
<path d="M73530 25570
L73820 25570
" />
<path d="M73480 25740
L73680 25140
L73880 25740
" />
</g>
<g style="fill:#008484; fill-opacity:0.0; 
stroke:#008484; stroke-width:60; stroke-opacity:1; 
stroke-linecap:round; stroke-linejoin:round;">
<path d="M72480 29200
L72580 29200
L72630 29220
L72670 29270
L72700 29360
L72700 29530
L72670 29620
L72630 29670
L72580 29700
L72480 29700
L72440 29670
L72390 29620
L72370 29530
L72370 29360
L72390 29270
L72440 29220
L72480 29200
" />
<path d="M72910 29700
L72910 29200
L73100 29200
L73150 29220
L73170 29240
L73190 29290
L73190 29360
L73170 29410
L73150 29430
L73100 29460
L72910 29460
" />
<path d="M73620 29360
L73620 29700
" />
<path d="M73500 29170
L73390 29530
L73690 29530
" />
<path d="M73840 29200
L74170 29200
L73960 29700
" />
<path d="M74460 29200
L74510 29200
L74560 29220
L74580 29240
L74610 29290
L74630 29390
L74630 29510
L74610 29600
L74580 29650
L74560 29670
L74510 29700
L74460 29700
L74420 29670
L74390 29650
L74370 29600
L74350 29510
L74350 29390
L74370 29290
L74390 29240
L74420 29220
L74460 29200
" />
</g>
<g style="fill:#008484; fill-opacity:0.0; 
stroke:#008484; stroke-width:0; stroke-opacity:1; 
stroke-linecap:round; stroke-linejoin:round;">
</g>
<g style="fill:#840000; fill-opacity:0.0; 
stroke:#840000; stroke-width:120; stroke-opacity:1; 
stroke-linecap:round; stroke-linejoin:round;">
<rect x="47500" y="21100" width="3000" height="800" rx="0" />
</g>
<g style="fill:#840000; fill-opacity:0.0; 
stroke:#840000; stroke-width:60; stroke-opacity:1; 
stroke-linecap:round; stroke-linejoin:round;">
<path d="M47500 21500
L46500 21500
" />
</g>
<g style="fill:#008484; fill-opacity:0.0; 
stroke:#008484; stroke-width:60; stroke-opacity:1; 
stroke-linecap:round; stroke-linejoin:round;">
<path d="M50500 21500
L51500 21500
" />
</g>
<g style="fill:#840000; fill-opacity:0.0; 
stroke:#840000; stroke-width:60; stroke-opacity:1; 
stroke-linecap:round; stroke-linejoin:round;">
</g>
<g style="fill:#008484; fill-opacity:0.0; 
stroke:#008484; stroke-width:60; stroke-opacity:1; 
stroke-linecap:round; stroke-linejoin:round;">
<path d="M48550 20910
L48420 20720
" />
<path d="M48330 20910
L48330 20510
L48480 20510
L48520 20530
L48530 20550
L48550 20590
L48550 20640
L48530 20680
L48520 20700
L48480 20720
L48330 20720
" />
<path d="M48710 20550
L48730 20530
L48760 20510
L48860 20510
L48900 20530
L48920 20550
L48930 20590
L48930 20630
L48920 20680
L48690 20910
L48930 20910
" />
<path d="M49180 20510
L49220 20510
L49260 20530
L49280 20550
L49300 20590
L49310 20660
L49310 20760
L49300 20830
L49280 20870
L49260 20890
L49220 20910
L49180 20910
L49140 20890
L49120 20870
L49110 20830
L49090 20760
L49090 20660
L49110 20590
L49120 20550
L49140 20530
L49180 20510
" />
<path d="M49470 20550
L49490 20530
L49520 20510
L49620 20510
L49660 20530
L49680 20550
L49690 20590
L49690 20630
L49680 20680
L49450 20910
L49690 20910
" />
<path d="M48720 21370
L48720 21640
" />
<path d="M48620 21220
L48530 21510
L48770 21510
" />
<path d="M48890 21240
L49150 21240
L48980 21640
" />
<path d="M49310 21640
L49310 21240
" />
<path d="M49340 21490
L49460 21640
" />
<path d="M49460 21370
L49310 21530
" />
</g>
<g style="fill:#008484; fill-opacity:0.0; 
stroke:#008484; stroke-width:0; stroke-opacity:1; 
stroke-linecap:round; stroke-linejoin:round;">
</g>
<g style="fill:#840000; fill-opacity:0.0; 
stroke:#840000; stroke-width:120; stroke-opacity:1; 
stroke-linecap:round; stroke-linejoin:round;">
<rect x="61000" y="28100" width="3000" height="800" rx="0" />
</g>
<g style="fill:#840000; fill-opacity:0.0; 
stroke:#840000; stroke-width:60; stroke-opacity:1; 
stroke-linecap:round; stroke-linejoin:round;">
<path d="M61000 28500
L60000 28500
" />
</g>
<g style="fill:#008484; fill-opacity:0.0; 
stroke:#008484; stroke-width:60; stroke-opacity:1; 
stroke-linecap:round; stroke-linejoin:round;">
<path d="M64000 28500
L65000 28500
" />
</g>
<g style="fill:#840000; fill-opacity:0.0; 
stroke:#840000; stroke-width:60; stroke-opacity:1; 
stroke-linecap:round; stroke-linejoin:round;">
</g>
<g style="fill:#008484; fill-opacity:0.0; 
stroke:#008484; stroke-width:60; stroke-opacity:1; 
stroke-linecap:round; stroke-linejoin:round;">
<path d="M62050 27910
L61920 27720
" />
<path d="M61830 27910
L61830 27510
L61980 27510
L62020 27530
L62030 27550
L62050 27590
L62050 27640
L62030 27680
L62020 27700
L61980 27720
L61830 27720
" />
<path d="M62210 27550
L62230 27530
L62260 27510
L62360 27510
L62400 27530
L62420 27550
L62430 27590
L62430 27630
L62420 27680
L62190 27910
L62430 27910
" />
<path d="M62680 27510
L62720 27510
L62760 27530
L62780 27550
L62800 27590
L62810 27660
L62810 27760
L62800 27830
L62780 27870
L62760 27890
L62720 27910
L62680 27910
L62640 27890
L62620 27870
L62610 27830
L62590 27760
L62590 27660
L62610 27590
L62620 27550
L62640 27530
L62680 27510
" />
<path d="M62950 27510
L63190 27510
L63060 27660
L63120 27660
L63160 27680
L63180 27700
L63190 27740
L63190 27830
L63180 27870
L63160 27890
L63120 27910
L63000 27910
L62970 27890
L62950 27870
" />
<path d="M62250 28640
L62030 28640
" />
<path d="M62140 28640
L62140 28240
L62100 28300
L62060 28340
L62030 28360
" />
<path d="M62500 28240
L62540 28240
L62580 28260
L62600 28280
L62620 28320
L62630 28390
L62630 28490
L62620 28560
L62600 28600
L62580 28620
L62540 28640
L62500 28640
L62460 28620
L62440 28600
L62430 28560
L62410 28490
L62410 28390
L62430 28320
L62440 28280
L62460 28260
L62500 28240
" />
<path d="M62810 28640
L62810 28240
" />
<path d="M62840 28490
L62960 28640
" />
<path d="M62960 28370
L62810 28530
" />
</g>
<g style="fill:#008484; fill-opacity:0.0; 
stroke:#008484; stroke-width:0; stroke-opacity:1; 
stroke-linecap:round; stroke-linejoin:round;">
</g>
<g style="fill:#840000; fill-opacity:0.0; 
stroke:#840000; stroke-width:120; stroke-opacity:1; 
stroke-linecap:round; stroke-linejoin:round;">
<rect x="72500" y="20600" width="3000" height="800" rx="0" />
</g>
<g style="fill:#840000; fill-opacity:0.0; 
stroke:#840000; stroke-width:60; stroke-opacity:1; 
stroke-linecap:round; stroke-linejoin:round;">
<path d="M72500 21000
L71500 21000
" />
</g>
<g style="fill:#008484; fill-opacity:0.0; 
stroke:#008484; stroke-width:60; stroke-opacity:1; 
stroke-linecap:round; stroke-linejoin:round;">
<path d="M75500 21000
L76500 21000
" />
</g>
<g style="fill:#840000; fill-opacity:0.0; 
stroke:#840000; stroke-width:60; stroke-opacity:1; 
stroke-linecap:round; stroke-linejoin:round;">
</g>
<g style="fill:#008484; fill-opacity:0.0; 
stroke:#008484; stroke-width:60; stroke-opacity:1; 
stroke-linecap:round; stroke-linejoin:round;">
<path d="M73550 20410
L73420 20220
" />
<path d="M73330 20410
L73330 20010
L73480 20010
L73520 20030
L73530 20050
L73550 20090
L73550 20140
L73530 20180
L73520 20200
L73480 20220
L73330 20220
" />
<path d="M73710 20050
L73730 20030
L73760 20010
L73860 20010
L73900 20030
L73920 20050
L73930 20090
L73930 20130
L73920 20180
L73690 20410
L73930 20410
" />
<path d="M74180 20010
L74220 20010
L74260 20030
L74280 20050
L74300 20090
L74310 20160
L74310 20260
L74300 20330
L74280 20370
L74260 20390
L74220 20410
L74180 20410
L74140 20390
L74120 20370
L74110 20330
L74090 20260
L74090 20160
L74110 20090
L74120 20050
L74140 20030
L74180 20010
" />
<path d="M74690 20410
L74470 20410
" />
<path d="M74580 20410
L74580 20010
L74540 20070
L74500 20110
L74470 20130
" />
<path d="M73750 21140
L73530 21140
" />
<path d="M73640 21140
L73640 20740
L73600 20800
L73560 20840
L73530 20860
" />
<path d="M74000 20740
L74040 20740
L74080 20760
L74100 20780
L74120 20820
L74130 20890
L74130 20990
L74120 21060
L74100 21100
L74080 21120
L74040 21140
L74000 21140
L73960 21120
L73940 21100
L73930 21060
L73910 20990
L73910 20890
L73930 20820
L73940 20780
L73960 20760
L74000 20740
" />
<path d="M74310 21140
L74310 20740
" />
<path d="M74340 20990
L74460 21140
" />
<path d="M74460 20870
L74310 21030
" />
</g>
<g style="fill:#008400; fill-opacity:0.0; 
stroke:#008400; stroke-width:60; stroke-opacity:1; 
stroke-linecap:round; stroke-linejoin:round;">
<path d="M51500 21500
L59000 21500
" />
<path d="M46500 21500
L46000 21500
" />
<path d="M46000 21500
L46000 35500
" />
<path d="M46000 29500
L48000 29500
" />
</g>
<g style="fill:#008400; fill-opacity:0.0; 
stroke:#008400; stroke-width:0; stroke-opacity:1; 
stroke-linecap:round; stroke-linejoin:round;">
</g>
<g style="fill:#008400; fill-opacity:1.0; 
stroke:#008400; stroke-width:100; stroke-opacity:1; 
stroke-linecap:round; stroke-linejoin:round;">
<circle cx="39000" cy="35500" r="200" /> 
</g>
<g style="fill:#008400; fill-opacity:1.0; 
stroke:#008400; stroke-width:0; stroke-opacity:1; 
stroke-linecap:round; stroke-linejoin:round;">
</g>
<g style="fill:#008400; fill-opacity:1.0; 
stroke:#008400; stroke-width:100; stroke-opacity:1; 
stroke-linecap:round; stroke-linejoin:round;">
<circle cx="46000" cy="29500" r="200" /> 
</g>
<g style="fill:#008400; fill-opacity:1.0; 
stroke:#008400; stroke-width:60; stroke-opacity:1; 
stroke-linecap:round; stroke-linejoin:round;">
<path d="M58000 28500
L60000 28500
" />
<path d="M59000 21500
L59000 36500
" />
</g>
<g style="fill:#008400; fill-opacity:1.0; 
stroke:#008400; stroke-width:0; stroke-opacity:1; 
stroke-linecap:round; stroke-linejoin:round;">
</g>
<g style="fill:#008400; fill-opacity:1.0; 
stroke:#008400; stroke-width:100; stroke-opacity:1; 
stroke-linecap:round; stroke-linejoin:round;">
<circle cx="59000" cy="28500" r="200" /> 
</g>
<g style="fill:#008400; fill-opacity:1.0; 
stroke:#008400; stroke-width:60; stroke-opacity:1; 
stroke-linecap:round; stroke-linejoin:round;">
<path d="M65000 28500
L67000 28500
" />
<path d="M66000 28500
L66000 21000
" />
<path d="M66000 21000
L71500 21000
" />
</g>
<g style="fill:#008400; fill-opacity:1.0; 
stroke:#008400; stroke-width:0; stroke-opacity:1; 
stroke-linecap:round; stroke-linejoin:round;">
</g>
<g style="fill:#008400; fill-opacity:1.0; 
stroke:#008400; stroke-width:100; stroke-opacity:1; 
stroke-linecap:round; stroke-linejoin:round;">
<circle cx="66000" cy="28500" r="200" /> 
</g>
<g style="fill:#008400; fill-opacity:1.0; 
stroke:#008400; stroke-width:60; stroke-opacity:1; 
stroke-linecap:round; stroke-linejoin:round;">
<path d="M76500 21000
L77500 21000
" />
<path d="M77500 21000
L77500 27500
" />
<path d="M77000 27500
L83000 27500
" />
<path d="M67000 26500
L66500 26500
" />
<path d="M66500 26500
L66500 41500
" />
</g>
<g style="fill:#008400; fill-opacity:1.0; 
stroke:#008400; stroke-width:0; stroke-opacity:1; 
stroke-linecap:round; stroke-linejoin:round;">
</g>
<g style="fill:#008400; fill-opacity:1.0; 
stroke:#008400; stroke-width:100; stroke-opacity:1; 
stroke-linecap:round; stroke-linejoin:round;">
<circle cx="19000" cy="41500" r="200" /> 
</g>
<g style="fill:#008400; fill-opacity:1.0; 
stroke:#008400; stroke-width:60; stroke-opacity:1; 
stroke-linecap:round; stroke-linejoin:round;">
<path d="M52000 44500
L52000 32500
" />
</g>
<g style="fill:#008400; fill-opacity:1.0; 
stroke:#008400; stroke-width:0; stroke-opacity:1; 
stroke-linecap:round; stroke-linejoin:round;">
</g>
<g style="fill:#008400; fill-opacity:1.0; 
stroke:#008400; stroke-width:100; stroke-opacity:1; 
stroke-linecap:round; stroke-linejoin:round;">
<circle cx="31000" cy="44500" r="200" /> 
</g>
<g style="fill:#008400; fill-opacity:1.0; 
stroke:#008400; stroke-width:60; stroke-opacity:1; 
stroke-linecap:round; stroke-linejoin:round;">
<path d="M71000 44500
L71000 31500
" />
</g>
<g style="fill:#008400; fill-opacity:1.0; 
stroke:#008400; stroke-width:0; stroke-opacity:1; 
stroke-linecap:round; stroke-linejoin:round;">
</g>
<g style="fill:#008400; fill-opacity:1.0; 
stroke:#008400; stroke-width:100; stroke-opacity:1; 
stroke-linecap:round; stroke-linejoin:round;">
<circle cx="52000" cy="44500" r="200" /> 
</g>
<g style="fill:#008400; fill-opacity:1.0; 
stroke:#008400; stroke-width:60; stroke-opacity:1; 
stroke-linecap:round; stroke-linejoin:round;">
<path d="M52000 17000
L52000 24500
" />
</g>
<g style="fill:#008400; fill-opacity:1.0; 
stroke:#008400; stroke-width:0; stroke-opacity:1; 
stroke-linecap:round; stroke-linejoin:round;">
</g>
<g style="fill:#008400; fill-opacity:1.0; 
stroke:#008400; stroke-width:100; stroke-opacity:1; 
stroke-linecap:round; stroke-linejoin:round;">
<circle cx="31000" cy="17000" r="200" /> 
</g>
<g style="fill:#008400; fill-opacity:1.0; 
stroke:#008400; stroke-width:60; stroke-opacity:1; 
stroke-linecap:round; stroke-linejoin:round;">
<path d="M71000 17000
L71000 23500
" />
</g>
<g style="fill:#008400; fill-opacity:1.0; 
stroke:#008400; stroke-width:0; stroke-opacity:1; 
stroke-linecap:round; stroke-linejoin:round;">
</g>
<g style="fill:#008400; fill-opacity:1.0; 
stroke:#008400; stroke-width:100; stroke-opacity:1; 
stroke-linecap:round; stroke-linejoin:round;">
<circle cx="52000" cy="17000" r="200" /> 
</g>
<g style="fill:#008400; fill-opacity:1.0; 
stroke:#008400; stroke-width:0; stroke-opacity:1; 
stroke-linecap:round; stroke-linejoin:round;">
</g>
<g style="fill:#840000; fill-opacity:0.0; 
stroke:#840000; stroke-width:60; stroke-opacity:1; 
stroke-linecap:round; stroke-linejoin:round;">
<rect x="41500" y="24000" width="1000" height="3000" rx="0" />
</g>
<g style="fill:#840000; fill-opacity:1.0; 
stroke:#840000; stroke-width:60; stroke-opacity:1; 
stroke-linecap:round; stroke-linejoin:round;">
<polyline style="fill-rule:evenodd;"
points="42500,25500
42700,25300
42700,25700
" /> 
<path d="M42000 24000
L42000 23000
" />
<path d="M41880 23390
L41880 23610
" />
<path d="M41880 23500
L41480 23500
L41540 23540
L41580 23580
L41600 23610
" />
<path d="M42700 25500
L43500 25500
" />
<path d="M42990 25020
L43010 25000
L43040 24980
L43140 24980
L43180 25000
L43200 25020
L43210 25060
L43210 25100
L43200 25150
L42970 25380
L43210 25380
" />
<path d="M42000 27000
L42000 28000
" />
<path d="M41480 27630
L41480 27390
L41630 27520
L41630 27460
L41650 27420
L41670 27400
L41710 27390
L41800 27390
L41840 27400
L41860 27420
L41880 27460
L41880 27580
L41860 27610
L41840 27630
" />
<path d="M41260 26280
L41020 26440
" />
<path d="M41260 26560
L40760 26560
L40760 26370
L40780 26320
L40800 26300
L40850 26280
L40920 26280
L40970 26300
L40990 26320
L41020 26370
L41020 26560
" />
<path d="M40760 26130
L41260 25970
L40760 25800
" />
<path d="M40800 25650
L40780 25630
L40760 25580
L40760 25460
L40780 25420
L40800 25390
L40850 25370
L40900 25370
L40970 25390
L41260 25680
L41260 25370
" />
<path d="M40760 25060
L40760 25010
L40780 24960
L40800 24940
L40850 24910
L40950 24890
L41070 24890
L41160 24910
L41210 24940
L41230 24960
L41260 25010
L41260 25060
L41230 25100
L41210 25130
L41160 25150
L41070 25170
L40950 25170
L40850 25150
L40800 25130
L40780 25100
L40760 25060
" />
<path d="M41260 24410
L41260 24690
" />
<path d="M41260 24550
L40760 24550
L40830 24600
L40880 24650
L40900 24690
" />
</g>
<g style="fill:#008484; fill-opacity:1.0; 
stroke:#008484; stroke-width:60; stroke-opacity:1; 
stroke-linecap:round; stroke-linejoin:round;">
<path d="M42260 26260
L42260 26540
" />
<path d="M42260 26400
L41760 26400
L41830 26450
L41880 26500
L41900 26540
" />
<path d="M42260 26040
L41760 26040
" />
<path d="M42070 25990
L42260 25850
" />
<path d="M41920 25850
L42110 26040
" />
<path d="M42260 25640
L41760 25640
L41760 25450
L41780 25400
L41800 25380
L41850 25360
L41920 25360
L41970 25380
L41990 25400
L42020 25450
L42020 25640
" />
<path d="M41760 25050
L41760 24950
L41780 24900
L41830 24860
L41920 24830
L42090 24830
L42180 24860
L42230 24900
L42260 24950
L42260 25050
L42230 25090
L42180 25140
L42090 25160
L41920 25160
L41830 25140
L41780 25090
L41760 25050
" />
<path d="M41760 24690
L41760 24410
" />
<path d="M42260 24550
L41760 24550
" />
</g>
<g style="fill:#008484; fill-opacity:1.0; 
stroke:#008484; stroke-width:0; stroke-opacity:1; 
stroke-linecap:round; stroke-linejoin:round;">
</g>
<g style="fill:#840000; fill-opacity:0.0; 
stroke:#840000; stroke-width:120; stroke-opacity:1; 
stroke-linecap:round; stroke-linejoin:round;">
<rect x="41600" y="30500" width="800" height="3000" rx="0" />
</g>
<g style="fill:#840000; fill-opacity:0.0; 
stroke:#840000; stroke-width:60; stroke-opacity:1; 
stroke-linecap:round; stroke-linejoin:round;">
<path d="M42000 33500
L42000 34500
" />
</g>
<g style="fill:#008484; fill-opacity:0.0; 
stroke:#008484; stroke-width:60; stroke-opacity:1; 
stroke-linecap:round; stroke-linejoin:round;">
<path d="M42000 30500
L42000 29500
" />
</g>
<g style="fill:#840000; fill-opacity:0.0; 
stroke:#840000; stroke-width:60; stroke-opacity:1; 
stroke-linecap:round; stroke-linejoin:round;">
</g>
<g style="fill:#008484; fill-opacity:0.0; 
stroke:#008484; stroke-width:60; stroke-opacity:1; 
stroke-linecap:round; stroke-linejoin:round;">
<path d="M41410 32450
L41220 32580
" />
<path d="M41410 32670
L41010 32670
L41010 32520
L41030 32480
L41050 32470
L41090 32450
L41140 32450
L41180 32470
L41200 32480
L41220 32520
L41220 32670
" />
<path d="M41050 32290
L41030 32270
L41010 32240
L41010 32140
L41030 32100
L41050 32080
L41090 32070
L41130 32070
L41180 32080
L41410 32310
L41410 32070
" />
<path d="M41010 31820
L41010 31780
L41030 31740
L41050 31720
L41090 31700
L41160 31690
L41260 31690
L41330 31700
L41370 31720
L41390 31740
L41410 31780
L41410 31820
L41390 31860
L41370 31880
L41330 31890
L41260 31910
L41160 31910
L41090 31890
L41050 31880
L41030 31860
L41010 31820
" />
<path d="M41140 31340
L41410 31340
" />
<path d="M40990 31440
L41280 31530
L41280 31290
" />
<path d="M41910 32400
L41890 32440
L41870 32450
L41840 32470
L41820 32470
L41780 32450
L41760 32440
L41740 32400
L41740 32320
L41760 32280
L41780 32260
L41820 32250
L41840 32250
L41870 32260
L41890 32280
L41910 32320
L41910 32400
L41930 32440
L41950 32450
L41990 32470
L42060 32470
L42100 32450
L42120 32440
L42140 32400
L42140 32320
L42120 32280
L42100 32260
L42060 32250
L41990 32250
L41950 32260
L41930 32280
L41910 32320
" />
<path d="M42140 32070
L41740 32070
" />
<path d="M41990 32040
L42140 31920
" />
<path d="M41870 31920
L42030 32070
" />
<path d="M41780 31770
L41760 31750
L41740 31720
L41740 31620
L41760 31580
L41780 31560
L41820 31550
L41860 31550
L41910 31560
L42140 31790
L42140 31550
" />
</g>
<g style="fill:#008400; fill-opacity:0.0; 
stroke:#008400; stroke-width:60; stroke-opacity:1; 
stroke-linecap:round; stroke-linejoin:round;">
<path d="M40000 22000
L42000 22000
" />
<path d="M42000 22000
L42000 23000
" />
<path d="M42000 28000
L42000 29500
" />
<path d="M42000 34500
L42000 41500
" />
</g>
<g style="fill:#008400; fill-opacity:0.0; 
stroke:#008400; stroke-width:0; stroke-opacity:1; 
stroke-linecap:round; stroke-linejoin:round;">
</g>
<g style="fill:#008400; fill-opacity:1.0; 
stroke:#008400; stroke-width:100; stroke-opacity:1; 
stroke-linecap:round; stroke-linejoin:round;">
<circle cx="42000" cy="41500" r="200" /> 
</g>
<g style="fill:#008400; fill-opacity:1.0; 
stroke:#008400; stroke-width:60; stroke-opacity:1; 
stroke-linecap:round; stroke-linejoin:round;">
<path d="M48000 27500
L44500 27500
" />
<path d="M44500 27500
L44500 25500
" />
<path d="M44500 25500
L43500 25500
" />
<path d="M84020 27170
L84130 27170
L84190 27200
L84250 27260
L84270 27370
L84270 27570
L84250 27690
L84190 27740
L84130 27770
L84020 27770
L83960 27740
L83900 27690
L83870 27570
L83870 27370
L83900 27260
L83960 27200
L84020 27170
" />
<path d="M84790 27370
L84790 27770
" />
<path d="M84530 27370
L84530 27690
L84560 27740
L84620 27770
L84700 27770
L84760 27740
L84790 27710
" />
<path d="M84990 27370
L85220 27370
" />
<path d="M85070 27170
L85070 27690
L85100 27740
L85160 27770
L85220 27770
" />
<path d="M85730 27770
L85380 27770
" />
<path d="M85560 27770
L85560 27170
L85500 27260
L85440 27310
L85380 27340
" />
<path d="M85980 27540
L86440 27540
" />
</g>
<g style="fill:#848400; fill-opacity:1.0; 
stroke:#848400; stroke-width:60; stroke-opacity:1; 
stroke-linecap:round; stroke-linejoin:round;">
</g>
<g style="fill:#848400; fill-opacity:0.0; 
stroke:#848400; stroke-width:100; stroke-opacity:1; 
stroke-linecap:round; stroke-linejoin:round;">
<polyline fill="none;"
points="83600,27500
83300,27200
83000,27200
83000,27800
83300,27800
83600,27500
" /> 
</g>
<g style="fill:#848400; fill-opacity:0.0; 
stroke:#848400; stroke-width:60; stroke-opacity:1; 
stroke-linecap:round; stroke-linejoin:round;">
<path d="M84020 36170
L84130 36170
L84190 36200
L84250 36260
L84270 36370
L84270 36570
L84250 36690
L84190 36740
L84130 36770
L84020 36770
L83960 36740
L83900 36690
L83870 36570
L83870 36370
L83900 36260
L83960 36200
L84020 36170
" />
<path d="M84790 36370
L84790 36770
" />
<path d="M84530 36370
L84530 36690
L84560 36740
L84620 36770
L84700 36770
L84760 36740
L84790 36710
" />
<path d="M84990 36370
L85220 36370
" />
<path d="M85070 36170
L85070 36690
L85100 36740
L85160 36770
L85220 36770
" />
<path d="M85730 36770
L85380 36770
" />
<path d="M85560 36770
L85560 36170
L85500 36260
L85440 36310
L85380 36340
" />
<path d="M85980 36540
L86440 36540
" />
<path d="M86210 36770
L86210 36310
" />
</g>
<g style="fill:#848400; fill-opacity:0.0; 
stroke:#848400; stroke-width:100; stroke-opacity:1; 
stroke-linecap:round; stroke-linejoin:round;">
<polyline fill="none;"
points="83600,36500
83300,36200
83000,36200
83000,36800
83300,36800
83600,36500
" /> 
</g>
<g style="fill:#848400; fill-opacity:0.0; 
stroke:#848400; stroke-width:0; stroke-opacity:1; 
stroke-linecap:round; stroke-linejoin:round;">
</g>
<g style="fill:#008400; fill-opacity:1.0; 
stroke:#008400; stroke-width:100; stroke-opacity:1; 
stroke-linecap:round; stroke-linejoin:round;">
<circle cx="77500" cy="27500" r="200" /> 
</g>
<g style="fill:#008400; fill-opacity:1.0; 
stroke:#008400; stroke-width:60; stroke-opacity:1; 
stroke-linecap:round; stroke-linejoin:round;">
<path d="M59000 36500
L83000 36500
" />
</g> 
</svg>
